G04 EAGLE Gerber RS-274X export*
G75*
%MOMM*%
%FSLAX34Y34*%
%LPD*%
%IN*%
%IPPOS*%
%AMOC8*
5,1,8,0,0,1.08239X$1,22.5*%
G01*
%ADD10C,0.254000*%


D10*
X-371500Y-8000D02*
X-141500Y-8000D01*
X-141500Y60000D01*
X-121500Y60000D01*
X-121500Y-28000D01*
X-9500Y-28000D01*
X-9500Y48000D01*
X-9354Y48796D01*
X-9140Y49576D01*
X-8858Y50334D01*
X-8511Y51065D01*
X-8102Y51763D01*
X-7634Y52422D01*
X-7110Y53039D01*
X-6534Y53607D01*
X-5911Y54123D01*
X-5245Y54582D01*
X-4542Y54982D01*
X-3807Y55319D01*
X-3045Y55591D01*
X-2262Y55795D01*
X-1465Y55930D01*
X-658Y55996D01*
X-500Y56000D01*
X334Y56013D01*
X1167Y55952D01*
X1991Y55820D01*
X2800Y55616D01*
X3588Y55342D01*
X4350Y55001D01*
X5079Y54595D01*
X5769Y54126D01*
X6417Y53600D01*
X7015Y53018D01*
X7561Y52387D01*
X8050Y51711D01*
X8478Y50995D01*
X8842Y50244D01*
X9139Y49464D01*
X9367Y48661D01*
X9500Y48000D01*
X9500Y-28000D01*
X221500Y-28000D01*
X221500Y56000D01*
X241500Y56000D01*
X241500Y-16500D01*
X471500Y-16500D01*
X471500Y660000D01*
X-371500Y660000D01*
X-371500Y-8000D01*
X-326500Y629464D02*
X-326576Y628396D01*
X-326729Y627335D01*
X-326957Y626288D01*
X-327259Y625260D01*
X-327633Y624256D01*
X-328078Y623281D01*
X-328592Y622341D01*
X-329171Y621440D01*
X-329813Y620582D01*
X-330515Y619772D01*
X-331272Y619015D01*
X-332082Y618313D01*
X-332940Y617671D01*
X-333841Y617092D01*
X-334781Y616578D01*
X-335756Y616133D01*
X-336760Y615759D01*
X-337788Y615457D01*
X-338835Y615229D01*
X-339896Y615076D01*
X-340964Y615000D01*
X-342036Y615000D01*
X-343104Y615076D01*
X-344165Y615229D01*
X-345212Y615457D01*
X-346240Y615759D01*
X-347244Y616133D01*
X-348219Y616578D01*
X-349159Y617092D01*
X-350060Y617671D01*
X-350918Y618313D01*
X-351728Y619015D01*
X-352485Y619772D01*
X-353187Y620582D01*
X-353829Y621440D01*
X-354408Y622341D01*
X-354922Y623281D01*
X-355367Y624256D01*
X-355741Y625260D01*
X-356043Y626288D01*
X-356271Y627335D01*
X-356424Y628396D01*
X-356500Y629464D01*
X-356500Y630536D01*
X-356424Y631604D01*
X-356271Y632665D01*
X-356043Y633712D01*
X-355741Y634740D01*
X-355367Y635744D01*
X-354922Y636719D01*
X-354408Y637659D01*
X-353829Y638560D01*
X-353187Y639418D01*
X-352485Y640228D01*
X-351728Y640985D01*
X-350918Y641687D01*
X-350060Y642329D01*
X-349159Y642908D01*
X-348219Y643422D01*
X-347244Y643867D01*
X-346240Y644241D01*
X-345212Y644543D01*
X-344165Y644771D01*
X-343104Y644924D01*
X-342036Y645000D01*
X-340964Y645000D01*
X-339896Y644924D01*
X-338835Y644771D01*
X-337788Y644543D01*
X-336760Y644241D01*
X-335756Y643867D01*
X-334781Y643422D01*
X-333841Y642908D01*
X-332940Y642329D01*
X-332082Y641687D01*
X-331272Y640985D01*
X-330515Y640228D01*
X-329813Y639418D01*
X-329171Y638560D01*
X-328592Y637659D01*
X-328078Y636719D01*
X-327633Y635744D01*
X-327259Y634740D01*
X-326957Y633712D01*
X-326729Y632665D01*
X-326576Y631604D01*
X-326500Y630536D01*
X-326500Y629464D01*
X456500Y629464D02*
X456424Y628396D01*
X456271Y627335D01*
X456043Y626288D01*
X455741Y625260D01*
X455367Y624256D01*
X454922Y623281D01*
X454408Y622341D01*
X453829Y621440D01*
X453187Y620582D01*
X452485Y619772D01*
X451728Y619015D01*
X450918Y618313D01*
X450060Y617671D01*
X449159Y617092D01*
X448219Y616578D01*
X447244Y616133D01*
X446240Y615759D01*
X445212Y615457D01*
X444165Y615229D01*
X443104Y615076D01*
X442036Y615000D01*
X440964Y615000D01*
X439896Y615076D01*
X438835Y615229D01*
X437788Y615457D01*
X436760Y615759D01*
X435756Y616133D01*
X434781Y616578D01*
X433841Y617092D01*
X432940Y617671D01*
X432082Y618313D01*
X431272Y619015D01*
X430515Y619772D01*
X429813Y620582D01*
X429171Y621440D01*
X428592Y622341D01*
X428078Y623281D01*
X427633Y624256D01*
X427259Y625260D01*
X426957Y626288D01*
X426729Y627335D01*
X426576Y628396D01*
X426500Y629464D01*
X426500Y630536D01*
X426576Y631604D01*
X426729Y632665D01*
X426957Y633712D01*
X427259Y634740D01*
X427633Y635744D01*
X428078Y636719D01*
X428592Y637659D01*
X429171Y638560D01*
X429813Y639418D01*
X430515Y640228D01*
X431272Y640985D01*
X432082Y641687D01*
X432940Y642329D01*
X433841Y642908D01*
X434781Y643422D01*
X435756Y643867D01*
X436760Y644241D01*
X437788Y644543D01*
X438835Y644771D01*
X439896Y644924D01*
X440964Y645000D01*
X442036Y645000D01*
X443104Y644924D01*
X444165Y644771D01*
X445212Y644543D01*
X446240Y644241D01*
X447244Y643867D01*
X448219Y643422D01*
X449159Y642908D01*
X450060Y642329D01*
X450918Y641687D01*
X451728Y640985D01*
X452485Y640228D01*
X453187Y639418D01*
X453829Y638560D01*
X454408Y637659D01*
X454922Y636719D01*
X455367Y635744D01*
X455741Y634740D01*
X456043Y633712D01*
X456271Y632665D01*
X456424Y631604D01*
X456500Y630536D01*
X456500Y629464D01*
M02*
