G04 EAGLE Gerber RS-274X export*
G75*
%MOMM*%
%FSLAX34Y34*%
%LPD*%
%INSilkscreen Bottom*%
%IPPOS*%
%AMOC8*
5,1,8,0,0,1.08239X$1,22.5*%
G01*
%ADD10C,0.101600*%
%ADD11C,0.127000*%
%ADD12C,0.076200*%
%ADD13R,0.150000X0.300000*%
%ADD14R,0.300000X0.300000*%
%ADD15C,0.152400*%
%ADD16C,0.050800*%
%ADD17C,0.254000*%
%ADD18R,2.100000X0.300000*%


D10*
X96585Y303348D02*
X98421Y301512D01*
X98493Y301443D01*
X98567Y301377D01*
X98644Y301314D01*
X98723Y301254D01*
X98804Y301196D01*
X98888Y301142D01*
X98973Y301092D01*
X99061Y301044D01*
X99150Y301000D01*
X99241Y300959D01*
X99333Y300922D01*
X99426Y300888D01*
X99521Y300858D01*
X99617Y300832D01*
X99714Y300809D01*
X99812Y300790D01*
X99910Y300775D01*
X100009Y300764D01*
X100108Y300756D01*
X100207Y300752D01*
X100307Y300752D01*
X100406Y300756D01*
X100505Y300764D01*
X100604Y300775D01*
X100702Y300790D01*
X100800Y300809D01*
X100897Y300832D01*
X100993Y300858D01*
X101088Y300888D01*
X101181Y300922D01*
X101273Y300959D01*
X101364Y301000D01*
X101453Y301044D01*
X101541Y301092D01*
X101626Y301142D01*
X101710Y301196D01*
X101791Y301254D01*
X101870Y301314D01*
X101947Y301377D01*
X102021Y301443D01*
X102093Y301512D01*
X106682Y306102D01*
X106751Y306173D01*
X106818Y306248D01*
X106881Y306324D01*
X106941Y306403D01*
X106998Y306485D01*
X107052Y306568D01*
X107103Y306654D01*
X107151Y306741D01*
X107195Y306830D01*
X107236Y306921D01*
X107273Y307013D01*
X107307Y307107D01*
X107337Y307202D01*
X107363Y307298D01*
X107386Y307395D01*
X107404Y307492D01*
X107420Y307591D01*
X107431Y307690D01*
X107439Y307789D01*
X107443Y307888D01*
X107443Y307988D01*
X107439Y308087D01*
X107431Y308186D01*
X107420Y308285D01*
X107405Y308383D01*
X107386Y308481D01*
X107363Y308578D01*
X107337Y308674D01*
X107307Y308769D01*
X107273Y308862D01*
X107236Y308955D01*
X107195Y309046D01*
X107151Y309135D01*
X107103Y309222D01*
X107053Y309308D01*
X106998Y309391D01*
X106941Y309472D01*
X106881Y309552D01*
X106818Y309628D01*
X106751Y309703D01*
X106682Y309774D01*
X104846Y311610D01*
X99924Y312861D02*
X99465Y316992D01*
X91203Y308730D01*
X93498Y306435D02*
X88908Y311025D01*
X508Y164451D02*
X508Y161854D01*
X510Y161755D01*
X516Y161655D01*
X525Y161556D01*
X538Y161458D01*
X555Y161360D01*
X576Y161262D01*
X601Y161166D01*
X629Y161071D01*
X661Y160977D01*
X696Y160884D01*
X735Y160792D01*
X778Y160702D01*
X823Y160614D01*
X873Y160527D01*
X925Y160443D01*
X981Y160360D01*
X1039Y160280D01*
X1101Y160202D01*
X1166Y160127D01*
X1234Y160054D01*
X1304Y159984D01*
X1377Y159916D01*
X1452Y159851D01*
X1530Y159789D01*
X1610Y159731D01*
X1693Y159675D01*
X1777Y159623D01*
X1864Y159573D01*
X1952Y159528D01*
X2042Y159485D01*
X2134Y159446D01*
X2227Y159411D01*
X2321Y159379D01*
X2416Y159351D01*
X2512Y159326D01*
X2610Y159305D01*
X2708Y159288D01*
X2806Y159275D01*
X2905Y159266D01*
X3005Y159260D01*
X3104Y159258D01*
X9596Y159258D01*
X9695Y159260D01*
X9795Y159266D01*
X9894Y159275D01*
X9992Y159288D01*
X10090Y159305D01*
X10188Y159326D01*
X10284Y159351D01*
X10379Y159379D01*
X10473Y159411D01*
X10566Y159446D01*
X10658Y159485D01*
X10748Y159528D01*
X10836Y159573D01*
X10923Y159623D01*
X11007Y159675D01*
X11090Y159731D01*
X11170Y159789D01*
X11248Y159851D01*
X11323Y159916D01*
X11396Y159984D01*
X11466Y160054D01*
X11534Y160127D01*
X11599Y160202D01*
X11661Y160280D01*
X11719Y160360D01*
X11775Y160443D01*
X11827Y160527D01*
X11877Y160614D01*
X11922Y160702D01*
X11965Y160792D01*
X12004Y160884D01*
X12039Y160976D01*
X12071Y161071D01*
X12099Y161166D01*
X12124Y161262D01*
X12145Y161360D01*
X12162Y161458D01*
X12175Y161556D01*
X12184Y161655D01*
X12190Y161755D01*
X12192Y161854D01*
X12192Y164451D01*
X9596Y168816D02*
X12192Y172062D01*
X508Y172062D01*
X508Y175307D02*
X508Y168816D01*
X6350Y180247D02*
X6580Y180250D01*
X6810Y180258D01*
X7039Y180272D01*
X7268Y180291D01*
X7497Y180316D01*
X7724Y180346D01*
X7952Y180381D01*
X8178Y180422D01*
X8403Y180468D01*
X8627Y180520D01*
X8849Y180577D01*
X9071Y180639D01*
X9290Y180707D01*
X9508Y180780D01*
X9725Y180858D01*
X9939Y180941D01*
X10151Y181029D01*
X10361Y181122D01*
X10569Y181221D01*
X10569Y181220D02*
X10659Y181253D01*
X10748Y181289D01*
X10836Y181329D01*
X10921Y181373D01*
X11005Y181420D01*
X11087Y181470D01*
X11167Y181524D01*
X11244Y181580D01*
X11320Y181640D01*
X11393Y181703D01*
X11463Y181768D01*
X11531Y181837D01*
X11595Y181908D01*
X11657Y181981D01*
X11716Y182057D01*
X11772Y182135D01*
X11825Y182216D01*
X11874Y182298D01*
X11920Y182382D01*
X11963Y182469D01*
X12002Y182556D01*
X12038Y182646D01*
X12070Y182736D01*
X12098Y182828D01*
X12123Y182921D01*
X12144Y183015D01*
X12161Y183109D01*
X12175Y183204D01*
X12184Y183300D01*
X12190Y183396D01*
X12192Y183492D01*
X12190Y183588D01*
X12184Y183684D01*
X12175Y183780D01*
X12161Y183875D01*
X12144Y183969D01*
X12123Y184063D01*
X12098Y184156D01*
X12070Y184248D01*
X12038Y184338D01*
X12002Y184428D01*
X11963Y184515D01*
X11920Y184602D01*
X11874Y184686D01*
X11825Y184768D01*
X11772Y184849D01*
X11716Y184927D01*
X11657Y185003D01*
X11595Y185076D01*
X11531Y185147D01*
X11463Y185216D01*
X11393Y185281D01*
X11320Y185344D01*
X11244Y185404D01*
X11167Y185460D01*
X11087Y185514D01*
X11005Y185564D01*
X10921Y185611D01*
X10836Y185655D01*
X10748Y185695D01*
X10659Y185731D01*
X10569Y185764D01*
X10362Y185863D01*
X10152Y185956D01*
X9939Y186044D01*
X9725Y186127D01*
X9509Y186205D01*
X9291Y186278D01*
X9071Y186346D01*
X8850Y186408D01*
X8627Y186465D01*
X8403Y186517D01*
X8178Y186563D01*
X7952Y186604D01*
X7725Y186639D01*
X7497Y186669D01*
X7268Y186694D01*
X7039Y186713D01*
X6810Y186727D01*
X6580Y186735D01*
X6350Y186738D01*
X6350Y180246D02*
X6120Y180249D01*
X5890Y180257D01*
X5661Y180271D01*
X5432Y180290D01*
X5203Y180315D01*
X4975Y180345D01*
X4748Y180380D01*
X4522Y180421D01*
X4297Y180467D01*
X4073Y180519D01*
X3850Y180576D01*
X3629Y180638D01*
X3409Y180706D01*
X3191Y180779D01*
X2975Y180857D01*
X2761Y180940D01*
X2549Y181028D01*
X2338Y181121D01*
X2131Y181220D01*
X2041Y181253D01*
X1952Y181289D01*
X1864Y181330D01*
X1779Y181373D01*
X1695Y181420D01*
X1613Y181470D01*
X1533Y181524D01*
X1456Y181580D01*
X1380Y181640D01*
X1307Y181703D01*
X1237Y181768D01*
X1169Y181837D01*
X1105Y181908D01*
X1043Y181981D01*
X984Y182057D01*
X928Y182135D01*
X875Y182216D01*
X826Y182298D01*
X780Y182382D01*
X737Y182469D01*
X698Y182556D01*
X662Y182646D01*
X630Y182736D01*
X602Y182828D01*
X577Y182921D01*
X556Y183015D01*
X539Y183109D01*
X525Y183204D01*
X516Y183300D01*
X510Y183396D01*
X508Y183492D01*
X2131Y185764D02*
X2338Y185863D01*
X2549Y185956D01*
X2761Y186044D01*
X2975Y186127D01*
X3191Y186205D01*
X3409Y186278D01*
X3629Y186346D01*
X3850Y186408D01*
X4073Y186465D01*
X4297Y186517D01*
X4522Y186563D01*
X4748Y186604D01*
X4975Y186639D01*
X5203Y186669D01*
X5432Y186694D01*
X5661Y186713D01*
X5890Y186727D01*
X6120Y186735D01*
X6350Y186738D01*
X2131Y185764D02*
X2041Y185731D01*
X1952Y185695D01*
X1864Y185655D01*
X1779Y185611D01*
X1695Y185564D01*
X1613Y185514D01*
X1533Y185460D01*
X1456Y185404D01*
X1380Y185344D01*
X1307Y185281D01*
X1237Y185216D01*
X1169Y185147D01*
X1105Y185076D01*
X1043Y185003D01*
X984Y184927D01*
X928Y184849D01*
X875Y184768D01*
X826Y184686D01*
X780Y184602D01*
X737Y184515D01*
X698Y184428D01*
X662Y184338D01*
X630Y184248D01*
X602Y184156D01*
X577Y184063D01*
X556Y183969D01*
X539Y183875D01*
X525Y183780D01*
X516Y183684D01*
X510Y183588D01*
X508Y183492D01*
X3104Y180895D02*
X9596Y186088D01*
X70358Y164451D02*
X70358Y161854D01*
X70360Y161755D01*
X70366Y161655D01*
X70375Y161556D01*
X70388Y161458D01*
X70405Y161360D01*
X70426Y161262D01*
X70451Y161166D01*
X70479Y161071D01*
X70511Y160977D01*
X70546Y160884D01*
X70585Y160792D01*
X70628Y160702D01*
X70673Y160614D01*
X70723Y160527D01*
X70775Y160443D01*
X70831Y160360D01*
X70889Y160280D01*
X70951Y160202D01*
X71016Y160127D01*
X71084Y160054D01*
X71154Y159984D01*
X71227Y159916D01*
X71302Y159851D01*
X71380Y159789D01*
X71460Y159731D01*
X71543Y159675D01*
X71627Y159623D01*
X71714Y159573D01*
X71802Y159528D01*
X71892Y159485D01*
X71984Y159446D01*
X72077Y159411D01*
X72171Y159379D01*
X72266Y159351D01*
X72362Y159326D01*
X72460Y159305D01*
X72558Y159288D01*
X72656Y159275D01*
X72755Y159266D01*
X72855Y159260D01*
X72954Y159258D01*
X79446Y159258D01*
X79545Y159260D01*
X79645Y159266D01*
X79744Y159275D01*
X79842Y159288D01*
X79940Y159305D01*
X80038Y159326D01*
X80134Y159351D01*
X80229Y159379D01*
X80323Y159411D01*
X80416Y159446D01*
X80508Y159485D01*
X80598Y159528D01*
X80686Y159573D01*
X80773Y159623D01*
X80857Y159675D01*
X80940Y159731D01*
X81020Y159789D01*
X81098Y159851D01*
X81173Y159916D01*
X81246Y159984D01*
X81316Y160054D01*
X81384Y160127D01*
X81449Y160202D01*
X81511Y160280D01*
X81569Y160360D01*
X81625Y160443D01*
X81677Y160527D01*
X81727Y160614D01*
X81772Y160702D01*
X81815Y160792D01*
X81854Y160884D01*
X81889Y160976D01*
X81921Y161071D01*
X81949Y161166D01*
X81974Y161262D01*
X81995Y161360D01*
X82012Y161458D01*
X82025Y161556D01*
X82034Y161655D01*
X82040Y161755D01*
X82042Y161854D01*
X82042Y164451D01*
X79446Y168816D02*
X82042Y172062D01*
X70358Y172062D01*
X70358Y175307D02*
X70358Y168816D01*
X79446Y180246D02*
X82042Y183492D01*
X70358Y183492D01*
X70358Y186737D02*
X70358Y180246D01*
X-125976Y82137D02*
X-127812Y83973D01*
X-125976Y82137D02*
X-125904Y82068D01*
X-125830Y82002D01*
X-125753Y81939D01*
X-125674Y81879D01*
X-125593Y81821D01*
X-125509Y81767D01*
X-125424Y81717D01*
X-125336Y81669D01*
X-125247Y81625D01*
X-125156Y81584D01*
X-125064Y81547D01*
X-124971Y81513D01*
X-124876Y81483D01*
X-124780Y81457D01*
X-124683Y81434D01*
X-124585Y81415D01*
X-124487Y81400D01*
X-124388Y81389D01*
X-124289Y81381D01*
X-124190Y81377D01*
X-124090Y81377D01*
X-123991Y81381D01*
X-123892Y81389D01*
X-123793Y81400D01*
X-123695Y81415D01*
X-123597Y81434D01*
X-123500Y81457D01*
X-123404Y81483D01*
X-123309Y81513D01*
X-123216Y81547D01*
X-123124Y81584D01*
X-123033Y81625D01*
X-122944Y81669D01*
X-122856Y81717D01*
X-122771Y81767D01*
X-122687Y81821D01*
X-122606Y81879D01*
X-122527Y81939D01*
X-122450Y82002D01*
X-122376Y82068D01*
X-122304Y82137D01*
X-117714Y86727D01*
X-117645Y86798D01*
X-117578Y86873D01*
X-117515Y86949D01*
X-117455Y87028D01*
X-117398Y87110D01*
X-117344Y87193D01*
X-117293Y87279D01*
X-117245Y87366D01*
X-117201Y87455D01*
X-117160Y87546D01*
X-117123Y87638D01*
X-117089Y87732D01*
X-117059Y87827D01*
X-117033Y87923D01*
X-117010Y88020D01*
X-116992Y88117D01*
X-116976Y88216D01*
X-116965Y88315D01*
X-116957Y88414D01*
X-116953Y88513D01*
X-116953Y88613D01*
X-116957Y88712D01*
X-116965Y88811D01*
X-116976Y88910D01*
X-116991Y89008D01*
X-117010Y89106D01*
X-117033Y89203D01*
X-117059Y89299D01*
X-117089Y89394D01*
X-117123Y89487D01*
X-117160Y89580D01*
X-117201Y89671D01*
X-117245Y89760D01*
X-117293Y89847D01*
X-117343Y89933D01*
X-117398Y90016D01*
X-117455Y90097D01*
X-117515Y90177D01*
X-117578Y90253D01*
X-117645Y90328D01*
X-117714Y90399D01*
X-119550Y92235D01*
X-124472Y93485D02*
X-124931Y97616D01*
X-133193Y89354D01*
X-130898Y87060D02*
X-135488Y91649D01*
X-137145Y96978D02*
X-132555Y105239D01*
X-137145Y96978D02*
X-141735Y101568D01*
X-138522Y102027D02*
X-142193Y98355D01*
X-37592Y118119D02*
X-37592Y120716D01*
X-37592Y118119D02*
X-37590Y118020D01*
X-37584Y117920D01*
X-37575Y117821D01*
X-37562Y117723D01*
X-37545Y117625D01*
X-37524Y117527D01*
X-37499Y117431D01*
X-37471Y117336D01*
X-37439Y117242D01*
X-37404Y117149D01*
X-37365Y117057D01*
X-37322Y116967D01*
X-37277Y116879D01*
X-37227Y116792D01*
X-37175Y116708D01*
X-37119Y116625D01*
X-37061Y116545D01*
X-36999Y116467D01*
X-36934Y116392D01*
X-36866Y116319D01*
X-36796Y116249D01*
X-36723Y116181D01*
X-36648Y116116D01*
X-36570Y116054D01*
X-36490Y115996D01*
X-36407Y115940D01*
X-36323Y115888D01*
X-36236Y115838D01*
X-36148Y115793D01*
X-36058Y115750D01*
X-35966Y115711D01*
X-35873Y115676D01*
X-35779Y115644D01*
X-35684Y115616D01*
X-35588Y115591D01*
X-35490Y115570D01*
X-35392Y115553D01*
X-35294Y115540D01*
X-35195Y115531D01*
X-35095Y115525D01*
X-34996Y115523D01*
X-28504Y115523D01*
X-28504Y115522D02*
X-28405Y115524D01*
X-28305Y115530D01*
X-28206Y115539D01*
X-28108Y115552D01*
X-28010Y115570D01*
X-27912Y115590D01*
X-27816Y115615D01*
X-27720Y115643D01*
X-27626Y115675D01*
X-27533Y115710D01*
X-27442Y115749D01*
X-27352Y115792D01*
X-27263Y115837D01*
X-27177Y115887D01*
X-27092Y115939D01*
X-27010Y115995D01*
X-26930Y116054D01*
X-26852Y116115D01*
X-26776Y116180D01*
X-26703Y116248D01*
X-26633Y116318D01*
X-26565Y116391D01*
X-26500Y116467D01*
X-26439Y116545D01*
X-26380Y116625D01*
X-26324Y116707D01*
X-26272Y116792D01*
X-26223Y116878D01*
X-26177Y116967D01*
X-26134Y117057D01*
X-26095Y117148D01*
X-26060Y117241D01*
X-26028Y117335D01*
X-26000Y117431D01*
X-25975Y117527D01*
X-25955Y117625D01*
X-25937Y117723D01*
X-25924Y117821D01*
X-25915Y117920D01*
X-25909Y118019D01*
X-25907Y118119D01*
X-25908Y118119D02*
X-25908Y120716D01*
X-28504Y125081D02*
X-25908Y128326D01*
X-37592Y128326D01*
X-37592Y125081D02*
X-37592Y131572D01*
X-31101Y136511D02*
X-31101Y140406D01*
X-31103Y140505D01*
X-31109Y140605D01*
X-31118Y140704D01*
X-31131Y140802D01*
X-31148Y140900D01*
X-31169Y140998D01*
X-31194Y141094D01*
X-31222Y141189D01*
X-31254Y141283D01*
X-31289Y141376D01*
X-31328Y141468D01*
X-31371Y141558D01*
X-31416Y141646D01*
X-31466Y141733D01*
X-31518Y141817D01*
X-31574Y141900D01*
X-31632Y141980D01*
X-31694Y142058D01*
X-31759Y142133D01*
X-31827Y142206D01*
X-31897Y142276D01*
X-31970Y142344D01*
X-32045Y142409D01*
X-32123Y142471D01*
X-32203Y142529D01*
X-32286Y142585D01*
X-32370Y142637D01*
X-32457Y142687D01*
X-32545Y142732D01*
X-32635Y142775D01*
X-32727Y142814D01*
X-32820Y142849D01*
X-32914Y142881D01*
X-33009Y142909D01*
X-33105Y142934D01*
X-33203Y142955D01*
X-33301Y142972D01*
X-33399Y142985D01*
X-33498Y142994D01*
X-33598Y143000D01*
X-33697Y143002D01*
X-34346Y143002D01*
X-34459Y143000D01*
X-34572Y142994D01*
X-34685Y142984D01*
X-34798Y142970D01*
X-34910Y142953D01*
X-35021Y142931D01*
X-35131Y142906D01*
X-35241Y142876D01*
X-35349Y142843D01*
X-35456Y142806D01*
X-35562Y142766D01*
X-35666Y142721D01*
X-35769Y142673D01*
X-35870Y142622D01*
X-35969Y142567D01*
X-36066Y142509D01*
X-36161Y142447D01*
X-36254Y142382D01*
X-36344Y142314D01*
X-36432Y142243D01*
X-36518Y142168D01*
X-36601Y142091D01*
X-36681Y142011D01*
X-36758Y141928D01*
X-36833Y141842D01*
X-36904Y141754D01*
X-36972Y141664D01*
X-37037Y141571D01*
X-37099Y141476D01*
X-37157Y141379D01*
X-37212Y141280D01*
X-37263Y141179D01*
X-37311Y141076D01*
X-37356Y140972D01*
X-37396Y140866D01*
X-37433Y140759D01*
X-37466Y140651D01*
X-37496Y140541D01*
X-37521Y140431D01*
X-37543Y140320D01*
X-37560Y140208D01*
X-37574Y140095D01*
X-37584Y139982D01*
X-37590Y139869D01*
X-37592Y139756D01*
X-37590Y139643D01*
X-37584Y139530D01*
X-37574Y139417D01*
X-37560Y139304D01*
X-37543Y139192D01*
X-37521Y139081D01*
X-37496Y138971D01*
X-37466Y138861D01*
X-37433Y138753D01*
X-37396Y138646D01*
X-37356Y138540D01*
X-37311Y138436D01*
X-37263Y138333D01*
X-37212Y138232D01*
X-37157Y138133D01*
X-37099Y138036D01*
X-37037Y137941D01*
X-36972Y137848D01*
X-36904Y137758D01*
X-36833Y137670D01*
X-36758Y137584D01*
X-36681Y137501D01*
X-36601Y137421D01*
X-36518Y137344D01*
X-36432Y137269D01*
X-36344Y137198D01*
X-36254Y137130D01*
X-36161Y137065D01*
X-36066Y137003D01*
X-35969Y136945D01*
X-35870Y136890D01*
X-35769Y136839D01*
X-35666Y136791D01*
X-35562Y136746D01*
X-35456Y136706D01*
X-35349Y136669D01*
X-35241Y136636D01*
X-35131Y136606D01*
X-35021Y136581D01*
X-34910Y136559D01*
X-34798Y136542D01*
X-34685Y136528D01*
X-34572Y136518D01*
X-34459Y136512D01*
X-34346Y136510D01*
X-34346Y136511D02*
X-31101Y136511D01*
X-30958Y136513D01*
X-30815Y136519D01*
X-30672Y136529D01*
X-30530Y136543D01*
X-30388Y136560D01*
X-30246Y136582D01*
X-30105Y136607D01*
X-29965Y136637D01*
X-29826Y136670D01*
X-29688Y136707D01*
X-29551Y136748D01*
X-29415Y136792D01*
X-29280Y136841D01*
X-29147Y136893D01*
X-29015Y136948D01*
X-28885Y137008D01*
X-28756Y137071D01*
X-28629Y137137D01*
X-28505Y137207D01*
X-28382Y137280D01*
X-28261Y137357D01*
X-28142Y137436D01*
X-28026Y137520D01*
X-27911Y137606D01*
X-27800Y137695D01*
X-27691Y137788D01*
X-27584Y137883D01*
X-27480Y137982D01*
X-27379Y138083D01*
X-27280Y138187D01*
X-27185Y138293D01*
X-27092Y138403D01*
X-27003Y138514D01*
X-26917Y138628D01*
X-26834Y138745D01*
X-26754Y138864D01*
X-26677Y138985D01*
X-26604Y139107D01*
X-26534Y139232D01*
X-26468Y139359D01*
X-26405Y139488D01*
X-26345Y139618D01*
X-26290Y139750D01*
X-26238Y139883D01*
X-26189Y140018D01*
X-26145Y140154D01*
X-26104Y140291D01*
X-26067Y140429D01*
X-26034Y140568D01*
X-26004Y140708D01*
X-25979Y140849D01*
X-25957Y140991D01*
X-25940Y141133D01*
X-25926Y141275D01*
X-25916Y141418D01*
X-25910Y141561D01*
X-25908Y141704D01*
X508Y116906D02*
X508Y114309D01*
X510Y114210D01*
X516Y114110D01*
X525Y114011D01*
X538Y113913D01*
X555Y113815D01*
X576Y113717D01*
X601Y113621D01*
X629Y113526D01*
X661Y113432D01*
X696Y113339D01*
X735Y113247D01*
X778Y113157D01*
X823Y113069D01*
X873Y112982D01*
X925Y112898D01*
X981Y112815D01*
X1039Y112735D01*
X1101Y112657D01*
X1166Y112582D01*
X1234Y112509D01*
X1304Y112439D01*
X1377Y112371D01*
X1452Y112306D01*
X1530Y112244D01*
X1610Y112186D01*
X1693Y112130D01*
X1777Y112078D01*
X1864Y112028D01*
X1952Y111983D01*
X2042Y111940D01*
X2134Y111901D01*
X2227Y111866D01*
X2321Y111834D01*
X2416Y111806D01*
X2512Y111781D01*
X2610Y111760D01*
X2708Y111743D01*
X2806Y111730D01*
X2905Y111721D01*
X3005Y111715D01*
X3104Y111713D01*
X9596Y111713D01*
X9695Y111715D01*
X9795Y111721D01*
X9894Y111730D01*
X9992Y111743D01*
X10090Y111760D01*
X10188Y111781D01*
X10284Y111806D01*
X10379Y111834D01*
X10473Y111866D01*
X10566Y111901D01*
X10658Y111940D01*
X10748Y111983D01*
X10836Y112028D01*
X10923Y112078D01*
X11007Y112130D01*
X11090Y112186D01*
X11170Y112244D01*
X11248Y112306D01*
X11323Y112371D01*
X11396Y112439D01*
X11466Y112509D01*
X11534Y112582D01*
X11599Y112657D01*
X11661Y112735D01*
X11719Y112815D01*
X11775Y112898D01*
X11827Y112982D01*
X11877Y113069D01*
X11922Y113157D01*
X11965Y113247D01*
X12004Y113339D01*
X12039Y113431D01*
X12071Y113526D01*
X12099Y113621D01*
X12124Y113717D01*
X12145Y113815D01*
X12162Y113913D01*
X12175Y114011D01*
X12184Y114110D01*
X12190Y114210D01*
X12192Y114309D01*
X12192Y116906D01*
X9596Y121271D02*
X12192Y124516D01*
X508Y124516D01*
X508Y121271D02*
X508Y127762D01*
X10894Y132701D02*
X12192Y132701D01*
X12192Y139192D01*
X508Y135946D01*
X69778Y353633D02*
X71614Y355469D01*
X71614Y355468D02*
X71683Y355540D01*
X71749Y355614D01*
X71812Y355691D01*
X71872Y355770D01*
X71930Y355851D01*
X71984Y355935D01*
X72034Y356020D01*
X72082Y356108D01*
X72126Y356197D01*
X72167Y356288D01*
X72204Y356380D01*
X72238Y356473D01*
X72268Y356568D01*
X72294Y356664D01*
X72317Y356761D01*
X72336Y356859D01*
X72351Y356957D01*
X72362Y357056D01*
X72370Y357155D01*
X72374Y357254D01*
X72374Y357354D01*
X72370Y357453D01*
X72362Y357552D01*
X72351Y357651D01*
X72336Y357749D01*
X72317Y357847D01*
X72294Y357944D01*
X72268Y358040D01*
X72238Y358135D01*
X72204Y358228D01*
X72167Y358320D01*
X72126Y358411D01*
X72082Y358500D01*
X72034Y358588D01*
X71984Y358673D01*
X71930Y358757D01*
X71872Y358838D01*
X71812Y358917D01*
X71749Y358994D01*
X71683Y359068D01*
X71614Y359140D01*
X67024Y363730D01*
X66953Y363799D01*
X66878Y363866D01*
X66802Y363929D01*
X66723Y363989D01*
X66641Y364046D01*
X66558Y364100D01*
X66472Y364151D01*
X66385Y364199D01*
X66296Y364243D01*
X66205Y364284D01*
X66113Y364321D01*
X66019Y364355D01*
X65924Y364385D01*
X65828Y364411D01*
X65731Y364434D01*
X65634Y364452D01*
X65535Y364468D01*
X65436Y364479D01*
X65337Y364487D01*
X65238Y364491D01*
X65138Y364491D01*
X65039Y364487D01*
X64940Y364479D01*
X64841Y364468D01*
X64743Y364453D01*
X64645Y364434D01*
X64548Y364411D01*
X64452Y364385D01*
X64357Y364355D01*
X64264Y364321D01*
X64171Y364284D01*
X64080Y364243D01*
X63991Y364199D01*
X63904Y364151D01*
X63818Y364101D01*
X63735Y364046D01*
X63654Y363989D01*
X63574Y363929D01*
X63498Y363866D01*
X63423Y363799D01*
X63352Y363730D01*
X61516Y361894D01*
X55905Y356283D02*
X55830Y356207D01*
X55759Y356127D01*
X55691Y356045D01*
X55626Y355961D01*
X55564Y355874D01*
X55505Y355785D01*
X55449Y355694D01*
X55397Y355601D01*
X55348Y355506D01*
X55303Y355409D01*
X55261Y355311D01*
X55223Y355211D01*
X55189Y355110D01*
X55158Y355008D01*
X55131Y354905D01*
X55108Y354801D01*
X55088Y354696D01*
X55073Y354590D01*
X55061Y354484D01*
X55053Y354378D01*
X55049Y354271D01*
X55049Y354165D01*
X55053Y354058D01*
X55061Y353952D01*
X55073Y353846D01*
X55088Y353740D01*
X55108Y353635D01*
X55131Y353531D01*
X55158Y353428D01*
X55189Y353326D01*
X55223Y353225D01*
X55261Y353125D01*
X55303Y353027D01*
X55348Y352930D01*
X55397Y352835D01*
X55449Y352742D01*
X55505Y352651D01*
X55564Y352562D01*
X55626Y352475D01*
X55691Y352391D01*
X55759Y352309D01*
X55830Y352229D01*
X55905Y352153D01*
X55904Y356284D02*
X55991Y356368D01*
X56081Y356449D01*
X56173Y356528D01*
X56268Y356603D01*
X56365Y356675D01*
X56464Y356745D01*
X56566Y356810D01*
X56669Y356873D01*
X56775Y356932D01*
X56882Y356988D01*
X56991Y357040D01*
X57102Y357089D01*
X57214Y357134D01*
X57328Y357176D01*
X57443Y357213D01*
X57559Y357248D01*
X57676Y357278D01*
X57794Y357304D01*
X57913Y357327D01*
X58033Y357346D01*
X58153Y357361D01*
X58273Y357372D01*
X58394Y357379D01*
X58515Y357383D01*
X58636Y357382D01*
X58757Y357378D01*
X58878Y357369D01*
X58998Y357357D01*
X59118Y357341D01*
X59237Y357321D01*
X59356Y357297D01*
X59474Y357270D01*
X59591Y357238D01*
X59706Y357203D01*
X59821Y357164D01*
X59934Y357122D01*
X60046Y357075D01*
X60156Y357026D01*
X60265Y356972D01*
X58199Y351234D02*
X58089Y351233D01*
X57978Y351236D01*
X57868Y351243D01*
X57758Y351254D01*
X57649Y351269D01*
X57540Y351288D01*
X57432Y351310D01*
X57324Y351336D01*
X57218Y351366D01*
X57113Y351400D01*
X57009Y351437D01*
X56906Y351478D01*
X56805Y351523D01*
X56706Y351571D01*
X56608Y351623D01*
X56513Y351678D01*
X56419Y351736D01*
X56327Y351798D01*
X56238Y351863D01*
X56150Y351930D01*
X56066Y352001D01*
X55984Y352075D01*
X55904Y352152D01*
X58200Y351234D02*
X66691Y350546D01*
X62101Y345956D01*
X32258Y116906D02*
X32258Y114309D01*
X32260Y114210D01*
X32266Y114110D01*
X32275Y114011D01*
X32288Y113913D01*
X32305Y113815D01*
X32326Y113717D01*
X32351Y113621D01*
X32379Y113526D01*
X32411Y113432D01*
X32446Y113339D01*
X32485Y113247D01*
X32528Y113157D01*
X32573Y113069D01*
X32623Y112982D01*
X32675Y112898D01*
X32731Y112815D01*
X32789Y112735D01*
X32851Y112657D01*
X32916Y112582D01*
X32984Y112509D01*
X33054Y112439D01*
X33127Y112371D01*
X33202Y112306D01*
X33280Y112244D01*
X33360Y112186D01*
X33443Y112130D01*
X33527Y112078D01*
X33614Y112028D01*
X33702Y111983D01*
X33792Y111940D01*
X33884Y111901D01*
X33977Y111866D01*
X34071Y111834D01*
X34166Y111806D01*
X34262Y111781D01*
X34360Y111760D01*
X34458Y111743D01*
X34556Y111730D01*
X34655Y111721D01*
X34755Y111715D01*
X34854Y111713D01*
X41346Y111713D01*
X41445Y111715D01*
X41545Y111721D01*
X41644Y111730D01*
X41742Y111743D01*
X41840Y111760D01*
X41938Y111781D01*
X42034Y111806D01*
X42129Y111834D01*
X42223Y111866D01*
X42316Y111901D01*
X42408Y111940D01*
X42498Y111983D01*
X42586Y112028D01*
X42673Y112078D01*
X42757Y112130D01*
X42840Y112186D01*
X42920Y112244D01*
X42998Y112306D01*
X43073Y112371D01*
X43146Y112439D01*
X43216Y112509D01*
X43284Y112582D01*
X43349Y112657D01*
X43411Y112735D01*
X43469Y112815D01*
X43525Y112898D01*
X43577Y112982D01*
X43627Y113069D01*
X43672Y113157D01*
X43715Y113247D01*
X43754Y113339D01*
X43789Y113431D01*
X43821Y113526D01*
X43849Y113621D01*
X43874Y113717D01*
X43895Y113815D01*
X43912Y113913D01*
X43925Y114011D01*
X43934Y114110D01*
X43940Y114210D01*
X43942Y114309D01*
X43942Y116906D01*
X43942Y124841D02*
X43940Y124948D01*
X43934Y125054D01*
X43924Y125160D01*
X43911Y125266D01*
X43893Y125372D01*
X43872Y125476D01*
X43847Y125580D01*
X43818Y125683D01*
X43786Y125784D01*
X43749Y125884D01*
X43709Y125983D01*
X43666Y126081D01*
X43619Y126177D01*
X43568Y126271D01*
X43514Y126363D01*
X43457Y126453D01*
X43397Y126541D01*
X43333Y126626D01*
X43266Y126709D01*
X43196Y126790D01*
X43124Y126868D01*
X43048Y126944D01*
X42970Y127016D01*
X42889Y127086D01*
X42806Y127153D01*
X42721Y127217D01*
X42633Y127277D01*
X42543Y127334D01*
X42451Y127388D01*
X42357Y127439D01*
X42261Y127486D01*
X42163Y127529D01*
X42064Y127569D01*
X41964Y127606D01*
X41863Y127638D01*
X41760Y127667D01*
X41656Y127692D01*
X41552Y127713D01*
X41446Y127731D01*
X41340Y127744D01*
X41234Y127754D01*
X41128Y127760D01*
X41021Y127762D01*
X43942Y124841D02*
X43940Y124720D01*
X43934Y124599D01*
X43924Y124479D01*
X43911Y124358D01*
X43893Y124239D01*
X43872Y124119D01*
X43847Y124001D01*
X43818Y123884D01*
X43785Y123767D01*
X43749Y123652D01*
X43708Y123538D01*
X43665Y123425D01*
X43617Y123313D01*
X43566Y123204D01*
X43511Y123096D01*
X43453Y122989D01*
X43392Y122885D01*
X43327Y122783D01*
X43259Y122683D01*
X43188Y122585D01*
X43114Y122489D01*
X43037Y122396D01*
X42956Y122306D01*
X42873Y122218D01*
X42787Y122133D01*
X42698Y122050D01*
X42607Y121971D01*
X42513Y121894D01*
X42417Y121821D01*
X42319Y121751D01*
X42218Y121684D01*
X42115Y121620D01*
X42010Y121560D01*
X41903Y121503D01*
X41795Y121449D01*
X41685Y121399D01*
X41573Y121353D01*
X41460Y121310D01*
X41345Y121271D01*
X38749Y126789D02*
X38826Y126868D01*
X38907Y126944D01*
X38990Y127017D01*
X39075Y127087D01*
X39163Y127154D01*
X39253Y127218D01*
X39345Y127278D01*
X39440Y127335D01*
X39536Y127389D01*
X39634Y127440D01*
X39734Y127487D01*
X39836Y127531D01*
X39939Y127571D01*
X40043Y127607D01*
X40149Y127639D01*
X40255Y127668D01*
X40363Y127693D01*
X40471Y127715D01*
X40581Y127732D01*
X40690Y127746D01*
X40800Y127755D01*
X40911Y127761D01*
X41021Y127763D01*
X38749Y126788D02*
X32258Y121271D01*
X32258Y127762D01*
X38100Y132701D02*
X38330Y132704D01*
X38560Y132712D01*
X38789Y132726D01*
X39018Y132745D01*
X39247Y132770D01*
X39474Y132800D01*
X39702Y132835D01*
X39928Y132876D01*
X40153Y132922D01*
X40377Y132974D01*
X40599Y133031D01*
X40821Y133093D01*
X41040Y133161D01*
X41258Y133234D01*
X41475Y133312D01*
X41689Y133395D01*
X41901Y133483D01*
X42111Y133576D01*
X42319Y133675D01*
X42319Y133674D02*
X42409Y133707D01*
X42498Y133743D01*
X42586Y133783D01*
X42671Y133827D01*
X42755Y133874D01*
X42837Y133924D01*
X42917Y133978D01*
X42994Y134034D01*
X43070Y134094D01*
X43143Y134157D01*
X43213Y134222D01*
X43281Y134291D01*
X43345Y134362D01*
X43407Y134435D01*
X43466Y134511D01*
X43522Y134589D01*
X43575Y134670D01*
X43624Y134752D01*
X43670Y134836D01*
X43713Y134923D01*
X43752Y135010D01*
X43788Y135100D01*
X43820Y135190D01*
X43848Y135282D01*
X43873Y135375D01*
X43894Y135469D01*
X43911Y135563D01*
X43925Y135658D01*
X43934Y135754D01*
X43940Y135850D01*
X43942Y135946D01*
X43940Y136042D01*
X43934Y136138D01*
X43925Y136234D01*
X43911Y136329D01*
X43894Y136423D01*
X43873Y136517D01*
X43848Y136610D01*
X43820Y136702D01*
X43788Y136792D01*
X43752Y136882D01*
X43713Y136969D01*
X43670Y137056D01*
X43624Y137140D01*
X43575Y137222D01*
X43522Y137303D01*
X43466Y137381D01*
X43407Y137457D01*
X43345Y137530D01*
X43281Y137601D01*
X43213Y137670D01*
X43143Y137735D01*
X43070Y137798D01*
X42994Y137858D01*
X42917Y137914D01*
X42837Y137968D01*
X42755Y138018D01*
X42671Y138065D01*
X42586Y138109D01*
X42498Y138149D01*
X42409Y138185D01*
X42319Y138218D01*
X42319Y138219D02*
X42112Y138318D01*
X41902Y138411D01*
X41689Y138499D01*
X41475Y138582D01*
X41259Y138660D01*
X41041Y138733D01*
X40821Y138801D01*
X40600Y138863D01*
X40377Y138920D01*
X40153Y138972D01*
X39928Y139018D01*
X39702Y139059D01*
X39475Y139094D01*
X39247Y139124D01*
X39018Y139149D01*
X38789Y139168D01*
X38560Y139182D01*
X38330Y139190D01*
X38100Y139193D01*
X38100Y132701D02*
X37870Y132704D01*
X37640Y132712D01*
X37411Y132726D01*
X37182Y132745D01*
X36953Y132770D01*
X36725Y132800D01*
X36498Y132835D01*
X36272Y132876D01*
X36047Y132922D01*
X35823Y132974D01*
X35600Y133031D01*
X35379Y133093D01*
X35159Y133161D01*
X34941Y133234D01*
X34725Y133312D01*
X34511Y133395D01*
X34299Y133483D01*
X34088Y133576D01*
X33881Y133675D01*
X33881Y133674D02*
X33791Y133707D01*
X33702Y133743D01*
X33614Y133784D01*
X33529Y133827D01*
X33445Y133874D01*
X33363Y133924D01*
X33283Y133978D01*
X33206Y134034D01*
X33130Y134094D01*
X33057Y134157D01*
X32987Y134222D01*
X32919Y134291D01*
X32855Y134362D01*
X32793Y134435D01*
X32734Y134511D01*
X32678Y134589D01*
X32625Y134670D01*
X32576Y134752D01*
X32530Y134836D01*
X32487Y134923D01*
X32448Y135010D01*
X32412Y135100D01*
X32380Y135190D01*
X32352Y135282D01*
X32327Y135375D01*
X32306Y135469D01*
X32289Y135563D01*
X32275Y135658D01*
X32266Y135754D01*
X32260Y135850D01*
X32258Y135946D01*
X33881Y138218D02*
X34088Y138317D01*
X34299Y138410D01*
X34511Y138498D01*
X34725Y138581D01*
X34941Y138659D01*
X35159Y138732D01*
X35379Y138800D01*
X35600Y138862D01*
X35823Y138919D01*
X36047Y138971D01*
X36272Y139017D01*
X36498Y139058D01*
X36725Y139093D01*
X36953Y139123D01*
X37182Y139148D01*
X37411Y139167D01*
X37640Y139181D01*
X37870Y139189D01*
X38100Y139192D01*
X33881Y138218D02*
X33791Y138185D01*
X33702Y138149D01*
X33614Y138109D01*
X33529Y138065D01*
X33445Y138018D01*
X33363Y137968D01*
X33283Y137914D01*
X33206Y137858D01*
X33130Y137798D01*
X33057Y137735D01*
X32987Y137670D01*
X32919Y137601D01*
X32855Y137530D01*
X32793Y137457D01*
X32734Y137381D01*
X32678Y137303D01*
X32625Y137222D01*
X32576Y137140D01*
X32530Y137056D01*
X32487Y136969D01*
X32448Y136882D01*
X32412Y136792D01*
X32380Y136702D01*
X32352Y136610D01*
X32327Y136517D01*
X32306Y136423D01*
X32289Y136329D01*
X32275Y136234D01*
X32266Y136138D01*
X32260Y136042D01*
X32258Y135946D01*
X34854Y133350D02*
X41346Y138543D01*
X76708Y116906D02*
X76708Y114309D01*
X76710Y114210D01*
X76716Y114110D01*
X76725Y114011D01*
X76738Y113913D01*
X76755Y113815D01*
X76776Y113717D01*
X76801Y113621D01*
X76829Y113526D01*
X76861Y113432D01*
X76896Y113339D01*
X76935Y113247D01*
X76978Y113157D01*
X77023Y113069D01*
X77073Y112982D01*
X77125Y112898D01*
X77181Y112815D01*
X77239Y112735D01*
X77301Y112657D01*
X77366Y112582D01*
X77434Y112509D01*
X77504Y112439D01*
X77577Y112371D01*
X77652Y112306D01*
X77730Y112244D01*
X77810Y112186D01*
X77893Y112130D01*
X77977Y112078D01*
X78064Y112028D01*
X78152Y111983D01*
X78242Y111940D01*
X78334Y111901D01*
X78427Y111866D01*
X78521Y111834D01*
X78616Y111806D01*
X78712Y111781D01*
X78810Y111760D01*
X78908Y111743D01*
X79006Y111730D01*
X79105Y111721D01*
X79205Y111715D01*
X79304Y111713D01*
X85796Y111713D01*
X85895Y111715D01*
X85995Y111721D01*
X86094Y111730D01*
X86192Y111743D01*
X86290Y111760D01*
X86388Y111781D01*
X86484Y111806D01*
X86579Y111834D01*
X86673Y111866D01*
X86766Y111901D01*
X86858Y111940D01*
X86948Y111983D01*
X87036Y112028D01*
X87123Y112078D01*
X87207Y112130D01*
X87290Y112186D01*
X87370Y112244D01*
X87448Y112306D01*
X87523Y112371D01*
X87596Y112439D01*
X87666Y112509D01*
X87734Y112582D01*
X87799Y112657D01*
X87861Y112735D01*
X87919Y112815D01*
X87975Y112898D01*
X88027Y112982D01*
X88077Y113069D01*
X88122Y113157D01*
X88165Y113247D01*
X88204Y113339D01*
X88239Y113431D01*
X88271Y113526D01*
X88299Y113621D01*
X88324Y113717D01*
X88345Y113815D01*
X88362Y113913D01*
X88375Y114011D01*
X88384Y114110D01*
X88390Y114210D01*
X88392Y114309D01*
X88392Y116906D01*
X88392Y124841D02*
X88390Y124948D01*
X88384Y125054D01*
X88374Y125160D01*
X88361Y125266D01*
X88343Y125372D01*
X88322Y125476D01*
X88297Y125580D01*
X88268Y125683D01*
X88236Y125784D01*
X88199Y125884D01*
X88159Y125983D01*
X88116Y126081D01*
X88069Y126177D01*
X88018Y126271D01*
X87964Y126363D01*
X87907Y126453D01*
X87847Y126541D01*
X87783Y126626D01*
X87716Y126709D01*
X87646Y126790D01*
X87574Y126868D01*
X87498Y126944D01*
X87420Y127016D01*
X87339Y127086D01*
X87256Y127153D01*
X87171Y127217D01*
X87083Y127277D01*
X86993Y127334D01*
X86901Y127388D01*
X86807Y127439D01*
X86711Y127486D01*
X86613Y127529D01*
X86514Y127569D01*
X86414Y127606D01*
X86313Y127638D01*
X86210Y127667D01*
X86106Y127692D01*
X86002Y127713D01*
X85896Y127731D01*
X85790Y127744D01*
X85684Y127754D01*
X85578Y127760D01*
X85471Y127762D01*
X88392Y124841D02*
X88390Y124720D01*
X88384Y124599D01*
X88374Y124479D01*
X88361Y124358D01*
X88343Y124239D01*
X88322Y124119D01*
X88297Y124001D01*
X88268Y123884D01*
X88235Y123767D01*
X88199Y123652D01*
X88158Y123538D01*
X88115Y123425D01*
X88067Y123313D01*
X88016Y123204D01*
X87961Y123096D01*
X87903Y122989D01*
X87842Y122885D01*
X87777Y122783D01*
X87709Y122683D01*
X87638Y122585D01*
X87564Y122489D01*
X87487Y122396D01*
X87406Y122306D01*
X87323Y122218D01*
X87237Y122133D01*
X87148Y122050D01*
X87057Y121971D01*
X86963Y121894D01*
X86867Y121821D01*
X86769Y121751D01*
X86668Y121684D01*
X86565Y121620D01*
X86460Y121560D01*
X86353Y121503D01*
X86245Y121449D01*
X86135Y121399D01*
X86023Y121353D01*
X85910Y121310D01*
X85795Y121271D01*
X83199Y126789D02*
X83276Y126868D01*
X83357Y126944D01*
X83440Y127017D01*
X83525Y127087D01*
X83613Y127154D01*
X83703Y127218D01*
X83795Y127278D01*
X83890Y127335D01*
X83986Y127389D01*
X84084Y127440D01*
X84184Y127487D01*
X84286Y127531D01*
X84389Y127571D01*
X84493Y127607D01*
X84599Y127639D01*
X84705Y127668D01*
X84813Y127693D01*
X84921Y127715D01*
X85031Y127732D01*
X85140Y127746D01*
X85250Y127755D01*
X85361Y127761D01*
X85471Y127763D01*
X83199Y126788D02*
X76708Y121271D01*
X76708Y127762D01*
X85796Y132701D02*
X88392Y135946D01*
X76708Y135946D01*
X76708Y132701D02*
X76708Y139192D01*
X60345Y286762D02*
X62181Y288598D01*
X62250Y288670D01*
X62316Y288744D01*
X62379Y288821D01*
X62439Y288900D01*
X62497Y288981D01*
X62551Y289065D01*
X62601Y289150D01*
X62649Y289238D01*
X62693Y289327D01*
X62734Y289418D01*
X62771Y289510D01*
X62805Y289603D01*
X62835Y289698D01*
X62861Y289794D01*
X62884Y289891D01*
X62903Y289989D01*
X62918Y290087D01*
X62929Y290186D01*
X62937Y290285D01*
X62941Y290384D01*
X62941Y290484D01*
X62937Y290583D01*
X62929Y290682D01*
X62918Y290781D01*
X62903Y290879D01*
X62884Y290977D01*
X62861Y291074D01*
X62835Y291170D01*
X62805Y291265D01*
X62771Y291358D01*
X62734Y291450D01*
X62693Y291541D01*
X62649Y291630D01*
X62601Y291718D01*
X62551Y291803D01*
X62497Y291887D01*
X62439Y291968D01*
X62379Y292047D01*
X62316Y292124D01*
X62250Y292198D01*
X62181Y292270D01*
X57591Y296860D01*
X57520Y296929D01*
X57445Y296996D01*
X57369Y297059D01*
X57290Y297119D01*
X57208Y297176D01*
X57125Y297230D01*
X57039Y297281D01*
X56952Y297329D01*
X56863Y297373D01*
X56772Y297414D01*
X56680Y297451D01*
X56586Y297485D01*
X56491Y297515D01*
X56395Y297541D01*
X56298Y297564D01*
X56201Y297582D01*
X56102Y297598D01*
X56003Y297609D01*
X55904Y297617D01*
X55805Y297621D01*
X55705Y297621D01*
X55606Y297617D01*
X55507Y297609D01*
X55408Y297598D01*
X55310Y297583D01*
X55212Y297564D01*
X55115Y297541D01*
X55019Y297515D01*
X54924Y297485D01*
X54831Y297451D01*
X54738Y297414D01*
X54647Y297373D01*
X54558Y297329D01*
X54471Y297281D01*
X54385Y297231D01*
X54302Y297176D01*
X54221Y297119D01*
X54141Y297059D01*
X54065Y296996D01*
X53990Y296929D01*
X53919Y296860D01*
X52083Y295024D01*
X57258Y283675D02*
X54963Y281381D01*
X54963Y281380D02*
X54882Y281301D01*
X54798Y281225D01*
X54711Y281152D01*
X54622Y281083D01*
X54530Y281016D01*
X54436Y280953D01*
X54340Y280893D01*
X54242Y280836D01*
X54142Y280783D01*
X54040Y280733D01*
X53936Y280687D01*
X53831Y280645D01*
X53725Y280606D01*
X53617Y280571D01*
X53508Y280540D01*
X53398Y280512D01*
X53287Y280489D01*
X53176Y280469D01*
X53064Y280453D01*
X52951Y280441D01*
X52838Y280433D01*
X52725Y280429D01*
X52611Y280429D01*
X52498Y280433D01*
X52385Y280441D01*
X52272Y280453D01*
X52160Y280469D01*
X52049Y280489D01*
X51938Y280512D01*
X51828Y280540D01*
X51719Y280571D01*
X51611Y280606D01*
X51505Y280645D01*
X51400Y280687D01*
X51296Y280733D01*
X51194Y280783D01*
X51094Y280836D01*
X50996Y280893D01*
X50900Y280953D01*
X50806Y281016D01*
X50715Y281083D01*
X50625Y281152D01*
X50538Y281225D01*
X50454Y281301D01*
X50373Y281380D01*
X50294Y281461D01*
X50218Y281545D01*
X50145Y281632D01*
X50076Y281722D01*
X50009Y281813D01*
X49946Y281907D01*
X49886Y282003D01*
X49829Y282101D01*
X49776Y282201D01*
X49726Y282303D01*
X49680Y282407D01*
X49638Y282512D01*
X49599Y282618D01*
X49564Y282726D01*
X49533Y282835D01*
X49505Y282945D01*
X49482Y283056D01*
X49462Y283167D01*
X49446Y283279D01*
X49434Y283392D01*
X49426Y283505D01*
X49422Y283618D01*
X49422Y283732D01*
X49426Y283845D01*
X49434Y283958D01*
X49446Y284071D01*
X49462Y284183D01*
X49482Y284294D01*
X49505Y284405D01*
X49533Y284515D01*
X49564Y284624D01*
X49599Y284732D01*
X49638Y284838D01*
X49680Y284943D01*
X49726Y285047D01*
X49776Y285149D01*
X49829Y285249D01*
X49886Y285347D01*
X49946Y285443D01*
X50009Y285537D01*
X50076Y285628D01*
X50145Y285718D01*
X50218Y285805D01*
X50294Y285889D01*
X50373Y285970D01*
X46243Y289183D02*
X48996Y291937D01*
X46242Y289183D02*
X46173Y289110D01*
X46106Y289035D01*
X46042Y288957D01*
X45981Y288877D01*
X45923Y288794D01*
X45869Y288710D01*
X45817Y288623D01*
X45770Y288535D01*
X45725Y288444D01*
X45684Y288352D01*
X45647Y288258D01*
X45614Y288164D01*
X45584Y288067D01*
X45558Y287970D01*
X45536Y287872D01*
X45517Y287773D01*
X45503Y287673D01*
X45492Y287573D01*
X45485Y287473D01*
X45482Y287372D01*
X45483Y287271D01*
X45488Y287171D01*
X45497Y287071D01*
X45509Y286971D01*
X45526Y286871D01*
X45546Y286773D01*
X45570Y286675D01*
X45598Y286578D01*
X45630Y286483D01*
X45665Y286389D01*
X45704Y286296D01*
X45747Y286204D01*
X45793Y286115D01*
X45842Y286027D01*
X45895Y285942D01*
X45951Y285858D01*
X46011Y285777D01*
X46073Y285698D01*
X46139Y285621D01*
X46207Y285547D01*
X46278Y285476D01*
X46352Y285408D01*
X46429Y285342D01*
X46508Y285280D01*
X46589Y285220D01*
X46673Y285164D01*
X46758Y285111D01*
X46846Y285062D01*
X46935Y285016D01*
X47027Y284973D01*
X47120Y284934D01*
X47214Y284899D01*
X47309Y284867D01*
X47406Y284839D01*
X47504Y284815D01*
X47602Y284795D01*
X47702Y284778D01*
X47802Y284766D01*
X47902Y284757D01*
X48002Y284752D01*
X48103Y284751D01*
X48204Y284754D01*
X48304Y284761D01*
X48404Y284772D01*
X48504Y284786D01*
X48603Y284805D01*
X48701Y284827D01*
X48798Y284853D01*
X48895Y284883D01*
X48989Y284916D01*
X49083Y284953D01*
X49175Y284994D01*
X49266Y285039D01*
X49354Y285086D01*
X49441Y285138D01*
X49525Y285192D01*
X49608Y285250D01*
X49688Y285311D01*
X49766Y285375D01*
X49841Y285442D01*
X49914Y285511D01*
X51750Y287347D01*
X44597Y321814D02*
X46433Y323650D01*
X46502Y323722D01*
X46568Y323796D01*
X46631Y323873D01*
X46691Y323952D01*
X46749Y324033D01*
X46803Y324117D01*
X46853Y324202D01*
X46901Y324290D01*
X46945Y324379D01*
X46986Y324470D01*
X47023Y324562D01*
X47057Y324655D01*
X47087Y324750D01*
X47113Y324846D01*
X47136Y324943D01*
X47155Y325041D01*
X47170Y325139D01*
X47181Y325238D01*
X47189Y325337D01*
X47193Y325436D01*
X47193Y325536D01*
X47189Y325635D01*
X47181Y325734D01*
X47170Y325833D01*
X47155Y325931D01*
X47136Y326029D01*
X47113Y326126D01*
X47087Y326222D01*
X47057Y326317D01*
X47023Y326410D01*
X46986Y326502D01*
X46945Y326593D01*
X46901Y326682D01*
X46853Y326770D01*
X46803Y326855D01*
X46749Y326939D01*
X46691Y327020D01*
X46631Y327099D01*
X46568Y327176D01*
X46502Y327250D01*
X46433Y327322D01*
X41843Y331912D01*
X41772Y331981D01*
X41697Y332048D01*
X41621Y332111D01*
X41542Y332171D01*
X41460Y332228D01*
X41377Y332282D01*
X41291Y332333D01*
X41204Y332381D01*
X41115Y332425D01*
X41024Y332466D01*
X40932Y332503D01*
X40838Y332537D01*
X40743Y332567D01*
X40647Y332593D01*
X40550Y332616D01*
X40453Y332634D01*
X40354Y332650D01*
X40255Y332661D01*
X40156Y332669D01*
X40057Y332673D01*
X39957Y332673D01*
X39858Y332669D01*
X39759Y332661D01*
X39660Y332650D01*
X39562Y332635D01*
X39464Y332616D01*
X39367Y332593D01*
X39271Y332567D01*
X39176Y332537D01*
X39083Y332503D01*
X38990Y332466D01*
X38899Y332425D01*
X38810Y332381D01*
X38723Y332333D01*
X38637Y332283D01*
X38554Y332228D01*
X38473Y332171D01*
X38393Y332111D01*
X38317Y332048D01*
X38242Y331981D01*
X38171Y331912D01*
X36335Y330076D01*
X31412Y325153D02*
X39674Y320563D01*
X35084Y315974D01*
X34625Y319187D02*
X38297Y315515D01*
X121158Y164451D02*
X121158Y161854D01*
X121160Y161755D01*
X121166Y161655D01*
X121175Y161556D01*
X121188Y161458D01*
X121205Y161360D01*
X121226Y161262D01*
X121251Y161166D01*
X121279Y161071D01*
X121311Y160977D01*
X121346Y160884D01*
X121385Y160792D01*
X121428Y160702D01*
X121473Y160614D01*
X121523Y160527D01*
X121575Y160443D01*
X121631Y160360D01*
X121689Y160280D01*
X121751Y160202D01*
X121816Y160127D01*
X121884Y160054D01*
X121954Y159984D01*
X122027Y159916D01*
X122102Y159851D01*
X122180Y159789D01*
X122260Y159731D01*
X122343Y159675D01*
X122427Y159623D01*
X122514Y159573D01*
X122602Y159528D01*
X122692Y159485D01*
X122784Y159446D01*
X122877Y159411D01*
X122971Y159379D01*
X123066Y159351D01*
X123162Y159326D01*
X123260Y159305D01*
X123358Y159288D01*
X123456Y159275D01*
X123555Y159266D01*
X123655Y159260D01*
X123754Y159258D01*
X130246Y159258D01*
X130345Y159260D01*
X130445Y159266D01*
X130544Y159275D01*
X130642Y159288D01*
X130740Y159305D01*
X130838Y159326D01*
X130934Y159351D01*
X131029Y159379D01*
X131123Y159411D01*
X131216Y159446D01*
X131308Y159485D01*
X131398Y159528D01*
X131486Y159573D01*
X131573Y159623D01*
X131657Y159675D01*
X131740Y159731D01*
X131820Y159789D01*
X131898Y159851D01*
X131973Y159916D01*
X132046Y159984D01*
X132116Y160054D01*
X132184Y160127D01*
X132249Y160202D01*
X132311Y160280D01*
X132369Y160360D01*
X132425Y160443D01*
X132477Y160527D01*
X132527Y160614D01*
X132572Y160702D01*
X132615Y160792D01*
X132654Y160884D01*
X132689Y160976D01*
X132721Y161071D01*
X132749Y161166D01*
X132774Y161262D01*
X132795Y161360D01*
X132812Y161458D01*
X132825Y161556D01*
X132834Y161655D01*
X132840Y161755D01*
X132842Y161854D01*
X132842Y164451D01*
X126351Y171413D02*
X126351Y175307D01*
X126351Y171413D02*
X126353Y171314D01*
X126359Y171214D01*
X126368Y171115D01*
X126381Y171017D01*
X126398Y170919D01*
X126419Y170821D01*
X126444Y170725D01*
X126472Y170630D01*
X126504Y170536D01*
X126539Y170443D01*
X126578Y170351D01*
X126621Y170261D01*
X126666Y170173D01*
X126716Y170086D01*
X126768Y170002D01*
X126824Y169919D01*
X126882Y169839D01*
X126944Y169761D01*
X127009Y169686D01*
X127077Y169613D01*
X127147Y169543D01*
X127220Y169475D01*
X127295Y169410D01*
X127373Y169348D01*
X127453Y169290D01*
X127536Y169234D01*
X127620Y169182D01*
X127707Y169132D01*
X127795Y169087D01*
X127885Y169044D01*
X127977Y169005D01*
X128070Y168970D01*
X128164Y168938D01*
X128259Y168910D01*
X128355Y168885D01*
X128453Y168864D01*
X128551Y168847D01*
X128649Y168834D01*
X128748Y168825D01*
X128848Y168819D01*
X128947Y168817D01*
X128947Y168816D02*
X129596Y168816D01*
X129709Y168818D01*
X129822Y168824D01*
X129935Y168834D01*
X130048Y168848D01*
X130160Y168865D01*
X130271Y168887D01*
X130381Y168912D01*
X130491Y168942D01*
X130599Y168975D01*
X130706Y169012D01*
X130812Y169052D01*
X130916Y169097D01*
X131019Y169145D01*
X131120Y169196D01*
X131219Y169251D01*
X131316Y169309D01*
X131411Y169371D01*
X131504Y169436D01*
X131594Y169504D01*
X131682Y169575D01*
X131768Y169650D01*
X131851Y169727D01*
X131931Y169807D01*
X132008Y169890D01*
X132083Y169976D01*
X132154Y170064D01*
X132222Y170154D01*
X132287Y170247D01*
X132349Y170342D01*
X132407Y170439D01*
X132462Y170538D01*
X132513Y170639D01*
X132561Y170742D01*
X132606Y170846D01*
X132646Y170952D01*
X132683Y171059D01*
X132716Y171167D01*
X132746Y171277D01*
X132771Y171387D01*
X132793Y171498D01*
X132810Y171610D01*
X132824Y171723D01*
X132834Y171836D01*
X132840Y171949D01*
X132842Y172062D01*
X132840Y172175D01*
X132834Y172288D01*
X132824Y172401D01*
X132810Y172514D01*
X132793Y172626D01*
X132771Y172737D01*
X132746Y172847D01*
X132716Y172957D01*
X132683Y173065D01*
X132646Y173172D01*
X132606Y173278D01*
X132561Y173382D01*
X132513Y173485D01*
X132462Y173586D01*
X132407Y173685D01*
X132349Y173782D01*
X132287Y173877D01*
X132222Y173970D01*
X132154Y174060D01*
X132083Y174148D01*
X132008Y174234D01*
X131931Y174317D01*
X131851Y174397D01*
X131768Y174474D01*
X131682Y174549D01*
X131594Y174620D01*
X131504Y174688D01*
X131411Y174753D01*
X131316Y174815D01*
X131219Y174873D01*
X131120Y174928D01*
X131019Y174979D01*
X130916Y175027D01*
X130812Y175072D01*
X130706Y175112D01*
X130599Y175149D01*
X130491Y175182D01*
X130381Y175212D01*
X130271Y175237D01*
X130160Y175259D01*
X130048Y175276D01*
X129935Y175290D01*
X129822Y175300D01*
X129709Y175306D01*
X129596Y175308D01*
X129596Y175307D02*
X126351Y175307D01*
X126208Y175305D01*
X126065Y175299D01*
X125922Y175289D01*
X125780Y175275D01*
X125638Y175258D01*
X125496Y175236D01*
X125355Y175211D01*
X125215Y175181D01*
X125076Y175148D01*
X124938Y175111D01*
X124801Y175070D01*
X124665Y175026D01*
X124530Y174977D01*
X124397Y174925D01*
X124265Y174870D01*
X124135Y174810D01*
X124006Y174747D01*
X123879Y174681D01*
X123755Y174611D01*
X123632Y174538D01*
X123511Y174461D01*
X123392Y174381D01*
X123276Y174298D01*
X123161Y174212D01*
X123050Y174123D01*
X122940Y174030D01*
X122834Y173935D01*
X122730Y173836D01*
X122629Y173735D01*
X122530Y173631D01*
X122435Y173525D01*
X122342Y173415D01*
X122253Y173304D01*
X122167Y173189D01*
X122084Y173073D01*
X122004Y172954D01*
X121927Y172833D01*
X121854Y172711D01*
X121784Y172586D01*
X121718Y172459D01*
X121655Y172330D01*
X121595Y172200D01*
X121540Y172068D01*
X121488Y171935D01*
X121439Y171800D01*
X121395Y171664D01*
X121354Y171527D01*
X121317Y171389D01*
X121284Y171250D01*
X121254Y171110D01*
X121229Y170969D01*
X121207Y170827D01*
X121190Y170685D01*
X121176Y170543D01*
X121166Y170400D01*
X121160Y170257D01*
X121158Y170114D01*
X139192Y241808D02*
X139192Y253492D01*
X135946Y253492D01*
X135833Y253490D01*
X135720Y253484D01*
X135607Y253474D01*
X135494Y253460D01*
X135382Y253443D01*
X135271Y253421D01*
X135161Y253396D01*
X135051Y253366D01*
X134943Y253333D01*
X134836Y253296D01*
X134730Y253256D01*
X134626Y253211D01*
X134523Y253163D01*
X134422Y253112D01*
X134323Y253057D01*
X134226Y252999D01*
X134131Y252937D01*
X134038Y252872D01*
X133948Y252804D01*
X133860Y252733D01*
X133774Y252658D01*
X133691Y252581D01*
X133611Y252501D01*
X133534Y252418D01*
X133459Y252332D01*
X133388Y252244D01*
X133320Y252154D01*
X133255Y252061D01*
X133193Y251966D01*
X133135Y251869D01*
X133080Y251770D01*
X133029Y251669D01*
X132981Y251566D01*
X132936Y251462D01*
X132896Y251356D01*
X132859Y251249D01*
X132826Y251141D01*
X132796Y251031D01*
X132771Y250921D01*
X132749Y250810D01*
X132732Y250698D01*
X132718Y250585D01*
X132708Y250472D01*
X132702Y250359D01*
X132700Y250246D01*
X132701Y250246D02*
X132701Y245054D01*
X132700Y245054D02*
X132702Y244941D01*
X132708Y244828D01*
X132718Y244715D01*
X132732Y244602D01*
X132749Y244490D01*
X132771Y244379D01*
X132796Y244269D01*
X132826Y244159D01*
X132859Y244051D01*
X132896Y243944D01*
X132936Y243838D01*
X132981Y243734D01*
X133029Y243631D01*
X133080Y243530D01*
X133135Y243431D01*
X133193Y243334D01*
X133255Y243239D01*
X133320Y243146D01*
X133388Y243056D01*
X133459Y242968D01*
X133534Y242882D01*
X133611Y242799D01*
X133691Y242719D01*
X133774Y242642D01*
X133860Y242567D01*
X133948Y242496D01*
X134038Y242428D01*
X134131Y242363D01*
X134226Y242301D01*
X134323Y242243D01*
X134422Y242188D01*
X134523Y242137D01*
X134626Y242089D01*
X134730Y242044D01*
X134836Y242004D01*
X134943Y241967D01*
X135051Y241934D01*
X135161Y241904D01*
X135271Y241879D01*
X135382Y241857D01*
X135494Y241840D01*
X135607Y241826D01*
X135720Y241816D01*
X135833Y241810D01*
X135946Y241808D01*
X139192Y241808D01*
X127000Y241808D02*
X127000Y253492D01*
X120509Y241808D01*
X120509Y253492D01*
X114639Y253492D02*
X114639Y241808D01*
X114639Y253492D02*
X111393Y253492D01*
X111280Y253490D01*
X111167Y253484D01*
X111054Y253474D01*
X110941Y253460D01*
X110829Y253443D01*
X110718Y253421D01*
X110608Y253396D01*
X110498Y253366D01*
X110390Y253333D01*
X110283Y253296D01*
X110177Y253256D01*
X110073Y253211D01*
X109970Y253163D01*
X109869Y253112D01*
X109770Y253057D01*
X109673Y252999D01*
X109578Y252937D01*
X109485Y252872D01*
X109395Y252804D01*
X109307Y252733D01*
X109221Y252658D01*
X109138Y252581D01*
X109058Y252501D01*
X108981Y252418D01*
X108906Y252332D01*
X108835Y252244D01*
X108767Y252154D01*
X108702Y252061D01*
X108640Y251966D01*
X108582Y251869D01*
X108527Y251770D01*
X108476Y251669D01*
X108428Y251566D01*
X108383Y251462D01*
X108343Y251356D01*
X108306Y251249D01*
X108273Y251141D01*
X108243Y251031D01*
X108218Y250921D01*
X108196Y250810D01*
X108179Y250698D01*
X108165Y250585D01*
X108155Y250472D01*
X108149Y250359D01*
X108147Y250246D01*
X108149Y250133D01*
X108155Y250020D01*
X108165Y249907D01*
X108179Y249794D01*
X108196Y249682D01*
X108218Y249571D01*
X108243Y249461D01*
X108273Y249351D01*
X108306Y249243D01*
X108343Y249136D01*
X108383Y249030D01*
X108428Y248926D01*
X108476Y248823D01*
X108527Y248722D01*
X108582Y248623D01*
X108640Y248526D01*
X108702Y248431D01*
X108767Y248338D01*
X108835Y248248D01*
X108906Y248160D01*
X108981Y248074D01*
X109058Y247991D01*
X109138Y247911D01*
X109221Y247834D01*
X109307Y247759D01*
X109395Y247688D01*
X109485Y247620D01*
X109578Y247555D01*
X109673Y247493D01*
X109770Y247435D01*
X109869Y247380D01*
X109970Y247329D01*
X110073Y247281D01*
X110177Y247236D01*
X110283Y247196D01*
X110390Y247159D01*
X110498Y247126D01*
X110608Y247096D01*
X110718Y247071D01*
X110829Y247049D01*
X110941Y247032D01*
X111054Y247018D01*
X111167Y247008D01*
X111280Y247002D01*
X111393Y247000D01*
X111393Y247001D02*
X114639Y247001D01*
X103759Y250896D02*
X100514Y253492D01*
X100514Y241808D01*
X103759Y241808D02*
X97268Y241808D01*
D11*
X-290100Y333500D02*
X-294100Y333500D01*
X-294100Y327500D01*
X-290100Y333500D02*
X-290100Y301500D01*
X-294100Y301500D01*
X-294100Y307500D01*
X-294344Y307503D01*
X-294587Y307512D01*
X-294830Y307527D01*
X-295073Y307547D01*
X-295315Y307574D01*
X-295556Y307607D01*
X-295796Y307645D01*
X-296036Y307689D01*
X-296274Y307739D01*
X-296511Y307795D01*
X-296747Y307857D01*
X-296981Y307924D01*
X-297213Y307997D01*
X-297444Y308076D01*
X-297672Y308160D01*
X-297899Y308250D01*
X-298123Y308345D01*
X-298345Y308446D01*
X-298564Y308552D01*
X-298780Y308663D01*
X-298994Y308780D01*
X-299205Y308901D01*
X-299413Y309028D01*
X-299618Y309160D01*
X-299819Y309297D01*
X-300017Y309439D01*
X-300212Y309585D01*
X-300403Y309736D01*
X-300590Y309892D01*
X-300773Y310052D01*
X-300953Y310217D01*
X-301128Y310386D01*
X-301299Y310559D01*
X-301466Y310737D01*
X-301628Y310918D01*
X-301786Y311103D01*
X-301940Y311292D01*
X-302089Y311485D01*
X-302233Y311681D01*
X-302372Y311881D01*
X-302507Y312084D01*
X-302636Y312291D01*
X-302760Y312500D01*
X-302879Y312712D01*
X-302993Y312928D01*
X-303102Y313145D01*
X-303205Y313366D01*
X-303303Y313589D01*
X-303396Y313814D01*
X-303483Y314042D01*
X-303564Y314271D01*
X-303640Y314503D01*
X-303710Y314736D01*
X-303775Y314971D01*
X-303834Y315207D01*
X-303887Y315445D01*
X-303934Y315684D01*
X-303975Y315924D01*
X-304010Y316165D01*
X-304040Y316406D01*
X-304064Y316649D01*
X-304081Y316892D01*
X-304093Y317135D01*
X-304099Y317378D01*
X-304099Y317622D01*
X-304093Y317865D01*
X-304081Y318108D01*
X-304064Y318351D01*
X-304040Y318594D01*
X-304010Y318835D01*
X-303975Y319076D01*
X-303934Y319316D01*
X-303887Y319555D01*
X-303834Y319793D01*
X-303775Y320029D01*
X-303710Y320264D01*
X-303640Y320497D01*
X-303564Y320729D01*
X-303483Y320958D01*
X-303396Y321186D01*
X-303303Y321411D01*
X-303205Y321634D01*
X-303102Y321855D01*
X-302993Y322072D01*
X-302879Y322288D01*
X-302760Y322500D01*
X-302636Y322709D01*
X-302507Y322916D01*
X-302372Y323119D01*
X-302233Y323319D01*
X-302089Y323515D01*
X-301940Y323708D01*
X-301786Y323897D01*
X-301628Y324082D01*
X-301466Y324263D01*
X-301299Y324441D01*
X-301128Y324614D01*
X-300953Y324783D01*
X-300773Y324948D01*
X-300590Y325108D01*
X-300403Y325264D01*
X-300212Y325415D01*
X-300017Y325561D01*
X-299819Y325703D01*
X-299618Y325840D01*
X-299413Y325972D01*
X-299205Y326099D01*
X-298994Y326220D01*
X-298780Y326337D01*
X-298564Y326448D01*
X-298345Y326554D01*
X-298123Y326655D01*
X-297899Y326750D01*
X-297672Y326840D01*
X-297444Y326924D01*
X-297213Y327003D01*
X-296981Y327076D01*
X-296747Y327143D01*
X-296511Y327205D01*
X-296274Y327261D01*
X-296036Y327311D01*
X-295796Y327355D01*
X-295556Y327393D01*
X-295315Y327426D01*
X-295073Y327453D01*
X-294830Y327473D01*
X-294587Y327488D01*
X-294344Y327497D01*
X-294100Y327500D01*
X-284100Y333500D02*
X-284100Y335500D01*
X-284100Y333500D02*
X-284100Y331500D01*
X-284100Y333500D02*
X-286100Y333500D01*
X-284100Y333500D02*
X-282100Y333500D01*
D10*
X-306931Y293582D02*
X-307138Y293483D01*
X-307349Y293390D01*
X-307561Y293302D01*
X-307775Y293219D01*
X-307991Y293141D01*
X-308209Y293068D01*
X-308429Y293000D01*
X-308650Y292938D01*
X-308873Y292881D01*
X-309097Y292829D01*
X-309322Y292783D01*
X-309548Y292742D01*
X-309775Y292707D01*
X-310003Y292677D01*
X-310232Y292652D01*
X-310461Y292633D01*
X-310690Y292619D01*
X-310920Y292611D01*
X-311150Y292608D01*
X-306931Y293582D02*
X-306841Y293615D01*
X-306752Y293651D01*
X-306664Y293691D01*
X-306579Y293735D01*
X-306495Y293782D01*
X-306413Y293832D01*
X-306333Y293886D01*
X-306256Y293942D01*
X-306180Y294002D01*
X-306107Y294065D01*
X-306037Y294130D01*
X-305969Y294199D01*
X-305905Y294270D01*
X-305843Y294343D01*
X-305784Y294419D01*
X-305728Y294497D01*
X-305675Y294578D01*
X-305626Y294660D01*
X-305580Y294744D01*
X-305537Y294831D01*
X-305498Y294918D01*
X-305462Y295008D01*
X-305430Y295098D01*
X-305402Y295190D01*
X-305377Y295283D01*
X-305356Y295377D01*
X-305339Y295471D01*
X-305325Y295566D01*
X-305316Y295662D01*
X-305310Y295758D01*
X-305308Y295854D01*
X-305310Y295950D01*
X-305316Y296046D01*
X-305325Y296142D01*
X-305339Y296237D01*
X-305356Y296331D01*
X-305377Y296425D01*
X-305402Y296518D01*
X-305430Y296610D01*
X-305462Y296700D01*
X-305498Y296790D01*
X-305537Y296878D01*
X-305580Y296964D01*
X-305626Y297048D01*
X-305675Y297130D01*
X-305728Y297211D01*
X-305784Y297289D01*
X-305843Y297365D01*
X-305905Y297438D01*
X-305969Y297509D01*
X-306037Y297578D01*
X-306107Y297643D01*
X-306180Y297706D01*
X-306256Y297766D01*
X-306333Y297822D01*
X-306413Y297876D01*
X-306495Y297926D01*
X-306579Y297973D01*
X-306664Y298017D01*
X-306752Y298057D01*
X-306841Y298093D01*
X-306931Y298126D01*
X-306931Y298125D02*
X-307138Y298224D01*
X-307349Y298317D01*
X-307561Y298405D01*
X-307775Y298488D01*
X-307991Y298566D01*
X-308209Y298639D01*
X-308429Y298707D01*
X-308650Y298769D01*
X-308873Y298826D01*
X-309097Y298878D01*
X-309322Y298924D01*
X-309548Y298965D01*
X-309775Y299000D01*
X-310003Y299030D01*
X-310232Y299055D01*
X-310461Y299074D01*
X-310690Y299088D01*
X-310920Y299096D01*
X-311150Y299099D01*
X-311150Y292608D02*
X-311380Y292611D01*
X-311610Y292619D01*
X-311839Y292633D01*
X-312068Y292652D01*
X-312297Y292677D01*
X-312525Y292707D01*
X-312752Y292742D01*
X-312978Y292783D01*
X-313203Y292829D01*
X-313427Y292881D01*
X-313650Y292938D01*
X-313871Y293000D01*
X-314091Y293068D01*
X-314309Y293141D01*
X-314525Y293219D01*
X-314739Y293302D01*
X-314951Y293390D01*
X-315162Y293483D01*
X-315369Y293582D01*
X-315459Y293615D01*
X-315548Y293651D01*
X-315636Y293692D01*
X-315721Y293735D01*
X-315805Y293782D01*
X-315887Y293832D01*
X-315967Y293886D01*
X-316044Y293942D01*
X-316120Y294002D01*
X-316193Y294065D01*
X-316263Y294130D01*
X-316331Y294199D01*
X-316395Y294270D01*
X-316457Y294343D01*
X-316516Y294419D01*
X-316572Y294497D01*
X-316625Y294578D01*
X-316674Y294660D01*
X-316720Y294744D01*
X-316763Y294831D01*
X-316802Y294918D01*
X-316838Y295008D01*
X-316870Y295098D01*
X-316898Y295190D01*
X-316923Y295283D01*
X-316944Y295377D01*
X-316961Y295471D01*
X-316975Y295566D01*
X-316984Y295662D01*
X-316990Y295758D01*
X-316992Y295854D01*
X-315369Y298125D02*
X-315162Y298224D01*
X-314951Y298317D01*
X-314739Y298405D01*
X-314525Y298488D01*
X-314309Y298566D01*
X-314091Y298639D01*
X-313871Y298707D01*
X-313650Y298769D01*
X-313427Y298826D01*
X-313203Y298878D01*
X-312978Y298924D01*
X-312752Y298965D01*
X-312525Y299000D01*
X-312297Y299030D01*
X-312068Y299055D01*
X-311839Y299074D01*
X-311610Y299088D01*
X-311380Y299096D01*
X-311150Y299099D01*
X-315369Y298126D02*
X-315459Y298093D01*
X-315548Y298057D01*
X-315636Y298017D01*
X-315721Y297973D01*
X-315805Y297926D01*
X-315887Y297876D01*
X-315967Y297822D01*
X-316044Y297766D01*
X-316120Y297706D01*
X-316193Y297643D01*
X-316263Y297578D01*
X-316331Y297509D01*
X-316395Y297438D01*
X-316457Y297365D01*
X-316516Y297289D01*
X-316572Y297211D01*
X-316625Y297130D01*
X-316674Y297048D01*
X-316720Y296964D01*
X-316763Y296877D01*
X-316802Y296790D01*
X-316838Y296700D01*
X-316870Y296610D01*
X-316898Y296518D01*
X-316923Y296425D01*
X-316944Y296331D01*
X-316961Y296237D01*
X-316975Y296142D01*
X-316984Y296046D01*
X-316990Y295950D01*
X-316992Y295854D01*
X-314396Y293257D02*
X-307904Y298450D01*
D11*
X-294100Y384300D02*
X-290100Y384300D01*
X-294100Y384300D02*
X-294100Y378300D01*
X-290100Y384300D02*
X-290100Y352300D01*
X-294100Y352300D01*
X-294100Y358300D01*
X-294344Y358303D01*
X-294587Y358312D01*
X-294830Y358327D01*
X-295073Y358347D01*
X-295315Y358374D01*
X-295556Y358407D01*
X-295796Y358445D01*
X-296036Y358489D01*
X-296274Y358539D01*
X-296511Y358595D01*
X-296747Y358657D01*
X-296981Y358724D01*
X-297213Y358797D01*
X-297444Y358876D01*
X-297672Y358960D01*
X-297899Y359050D01*
X-298123Y359145D01*
X-298345Y359246D01*
X-298564Y359352D01*
X-298780Y359463D01*
X-298994Y359580D01*
X-299205Y359701D01*
X-299413Y359828D01*
X-299618Y359960D01*
X-299819Y360097D01*
X-300017Y360239D01*
X-300212Y360385D01*
X-300403Y360536D01*
X-300590Y360692D01*
X-300773Y360852D01*
X-300953Y361017D01*
X-301128Y361186D01*
X-301299Y361359D01*
X-301466Y361537D01*
X-301628Y361718D01*
X-301786Y361903D01*
X-301940Y362092D01*
X-302089Y362285D01*
X-302233Y362481D01*
X-302372Y362681D01*
X-302507Y362884D01*
X-302636Y363091D01*
X-302760Y363300D01*
X-302879Y363512D01*
X-302993Y363728D01*
X-303102Y363945D01*
X-303205Y364166D01*
X-303303Y364389D01*
X-303396Y364614D01*
X-303483Y364842D01*
X-303564Y365071D01*
X-303640Y365303D01*
X-303710Y365536D01*
X-303775Y365771D01*
X-303834Y366007D01*
X-303887Y366245D01*
X-303934Y366484D01*
X-303975Y366724D01*
X-304010Y366965D01*
X-304040Y367206D01*
X-304064Y367449D01*
X-304081Y367692D01*
X-304093Y367935D01*
X-304099Y368178D01*
X-304099Y368422D01*
X-304093Y368665D01*
X-304081Y368908D01*
X-304064Y369151D01*
X-304040Y369394D01*
X-304010Y369635D01*
X-303975Y369876D01*
X-303934Y370116D01*
X-303887Y370355D01*
X-303834Y370593D01*
X-303775Y370829D01*
X-303710Y371064D01*
X-303640Y371297D01*
X-303564Y371529D01*
X-303483Y371758D01*
X-303396Y371986D01*
X-303303Y372211D01*
X-303205Y372434D01*
X-303102Y372655D01*
X-302993Y372872D01*
X-302879Y373088D01*
X-302760Y373300D01*
X-302636Y373509D01*
X-302507Y373716D01*
X-302372Y373919D01*
X-302233Y374119D01*
X-302089Y374315D01*
X-301940Y374508D01*
X-301786Y374697D01*
X-301628Y374882D01*
X-301466Y375063D01*
X-301299Y375241D01*
X-301128Y375414D01*
X-300953Y375583D01*
X-300773Y375748D01*
X-300590Y375908D01*
X-300403Y376064D01*
X-300212Y376215D01*
X-300017Y376361D01*
X-299819Y376503D01*
X-299618Y376640D01*
X-299413Y376772D01*
X-299205Y376899D01*
X-298994Y377020D01*
X-298780Y377137D01*
X-298564Y377248D01*
X-298345Y377354D01*
X-298123Y377455D01*
X-297899Y377550D01*
X-297672Y377640D01*
X-297444Y377724D01*
X-297213Y377803D01*
X-296981Y377876D01*
X-296747Y377943D01*
X-296511Y378005D01*
X-296274Y378061D01*
X-296036Y378111D01*
X-295796Y378155D01*
X-295556Y378193D01*
X-295315Y378226D01*
X-295073Y378253D01*
X-294830Y378273D01*
X-294587Y378288D01*
X-294344Y378297D01*
X-294100Y378300D01*
X-284100Y384300D02*
X-284100Y386300D01*
X-284100Y384300D02*
X-284100Y382300D01*
X-284100Y384300D02*
X-286100Y384300D01*
X-284100Y384300D02*
X-282100Y384300D01*
D10*
X-305308Y346654D02*
X-307904Y343408D01*
X-305308Y346654D02*
X-316992Y346654D01*
X-316992Y349899D02*
X-316992Y343408D01*
D11*
X-294100Y435100D02*
X-290100Y435100D01*
X-294100Y435100D02*
X-294100Y429100D01*
X-290100Y435100D02*
X-290100Y403100D01*
X-294100Y403100D01*
X-294100Y409100D01*
X-294344Y409103D01*
X-294587Y409112D01*
X-294830Y409127D01*
X-295073Y409147D01*
X-295315Y409174D01*
X-295556Y409207D01*
X-295796Y409245D01*
X-296036Y409289D01*
X-296274Y409339D01*
X-296511Y409395D01*
X-296747Y409457D01*
X-296981Y409524D01*
X-297213Y409597D01*
X-297444Y409676D01*
X-297672Y409760D01*
X-297899Y409850D01*
X-298123Y409945D01*
X-298345Y410046D01*
X-298564Y410152D01*
X-298780Y410263D01*
X-298994Y410380D01*
X-299205Y410501D01*
X-299413Y410628D01*
X-299618Y410760D01*
X-299819Y410897D01*
X-300017Y411039D01*
X-300212Y411185D01*
X-300403Y411336D01*
X-300590Y411492D01*
X-300773Y411652D01*
X-300953Y411817D01*
X-301128Y411986D01*
X-301299Y412159D01*
X-301466Y412337D01*
X-301628Y412518D01*
X-301786Y412703D01*
X-301940Y412892D01*
X-302089Y413085D01*
X-302233Y413281D01*
X-302372Y413481D01*
X-302507Y413684D01*
X-302636Y413891D01*
X-302760Y414100D01*
X-302879Y414312D01*
X-302993Y414528D01*
X-303102Y414745D01*
X-303205Y414966D01*
X-303303Y415189D01*
X-303396Y415414D01*
X-303483Y415642D01*
X-303564Y415871D01*
X-303640Y416103D01*
X-303710Y416336D01*
X-303775Y416571D01*
X-303834Y416807D01*
X-303887Y417045D01*
X-303934Y417284D01*
X-303975Y417524D01*
X-304010Y417765D01*
X-304040Y418006D01*
X-304064Y418249D01*
X-304081Y418492D01*
X-304093Y418735D01*
X-304099Y418978D01*
X-304099Y419222D01*
X-304093Y419465D01*
X-304081Y419708D01*
X-304064Y419951D01*
X-304040Y420194D01*
X-304010Y420435D01*
X-303975Y420676D01*
X-303934Y420916D01*
X-303887Y421155D01*
X-303834Y421393D01*
X-303775Y421629D01*
X-303710Y421864D01*
X-303640Y422097D01*
X-303564Y422329D01*
X-303483Y422558D01*
X-303396Y422786D01*
X-303303Y423011D01*
X-303205Y423234D01*
X-303102Y423455D01*
X-302993Y423672D01*
X-302879Y423888D01*
X-302760Y424100D01*
X-302636Y424309D01*
X-302507Y424516D01*
X-302372Y424719D01*
X-302233Y424919D01*
X-302089Y425115D01*
X-301940Y425308D01*
X-301786Y425497D01*
X-301628Y425682D01*
X-301466Y425863D01*
X-301299Y426041D01*
X-301128Y426214D01*
X-300953Y426383D01*
X-300773Y426548D01*
X-300590Y426708D01*
X-300403Y426864D01*
X-300212Y427015D01*
X-300017Y427161D01*
X-299819Y427303D01*
X-299618Y427440D01*
X-299413Y427572D01*
X-299205Y427699D01*
X-298994Y427820D01*
X-298780Y427937D01*
X-298564Y428048D01*
X-298345Y428154D01*
X-298123Y428255D01*
X-297899Y428350D01*
X-297672Y428440D01*
X-297444Y428524D01*
X-297213Y428603D01*
X-296981Y428676D01*
X-296747Y428743D01*
X-296511Y428805D01*
X-296274Y428861D01*
X-296036Y428911D01*
X-295796Y428955D01*
X-295556Y428993D01*
X-295315Y429026D01*
X-295073Y429053D01*
X-294830Y429073D01*
X-294587Y429088D01*
X-294344Y429097D01*
X-294100Y429100D01*
X-284100Y435100D02*
X-284100Y437100D01*
X-284100Y435100D02*
X-284100Y433100D01*
X-284100Y435100D02*
X-286100Y435100D01*
X-284100Y435100D02*
X-282100Y435100D01*
D10*
X-308229Y400699D02*
X-308122Y400697D01*
X-308016Y400691D01*
X-307910Y400681D01*
X-307804Y400668D01*
X-307698Y400650D01*
X-307594Y400629D01*
X-307490Y400604D01*
X-307387Y400575D01*
X-307286Y400543D01*
X-307186Y400506D01*
X-307087Y400466D01*
X-306989Y400423D01*
X-306893Y400376D01*
X-306799Y400325D01*
X-306707Y400271D01*
X-306617Y400214D01*
X-306529Y400154D01*
X-306444Y400090D01*
X-306361Y400023D01*
X-306280Y399953D01*
X-306202Y399881D01*
X-306126Y399805D01*
X-306054Y399727D01*
X-305984Y399646D01*
X-305917Y399563D01*
X-305853Y399478D01*
X-305793Y399390D01*
X-305736Y399300D01*
X-305682Y399208D01*
X-305631Y399114D01*
X-305584Y399018D01*
X-305541Y398920D01*
X-305501Y398821D01*
X-305464Y398721D01*
X-305432Y398620D01*
X-305403Y398517D01*
X-305378Y398413D01*
X-305357Y398309D01*
X-305339Y398203D01*
X-305326Y398097D01*
X-305316Y397991D01*
X-305310Y397885D01*
X-305308Y397778D01*
X-305310Y397657D01*
X-305316Y397536D01*
X-305326Y397416D01*
X-305339Y397295D01*
X-305357Y397176D01*
X-305378Y397056D01*
X-305403Y396938D01*
X-305432Y396821D01*
X-305465Y396704D01*
X-305501Y396589D01*
X-305542Y396475D01*
X-305585Y396362D01*
X-305633Y396250D01*
X-305684Y396141D01*
X-305739Y396033D01*
X-305797Y395926D01*
X-305858Y395822D01*
X-305923Y395720D01*
X-305991Y395620D01*
X-306062Y395522D01*
X-306136Y395426D01*
X-306213Y395333D01*
X-306294Y395243D01*
X-306377Y395155D01*
X-306463Y395070D01*
X-306552Y394987D01*
X-306643Y394908D01*
X-306737Y394831D01*
X-306833Y394758D01*
X-306931Y394688D01*
X-307032Y394621D01*
X-307135Y394557D01*
X-307240Y394497D01*
X-307347Y394439D01*
X-307455Y394386D01*
X-307565Y394336D01*
X-307677Y394290D01*
X-307790Y394247D01*
X-307905Y394208D01*
X-310501Y399725D02*
X-310423Y399804D01*
X-310343Y399880D01*
X-310260Y399953D01*
X-310174Y400023D01*
X-310087Y400090D01*
X-309996Y400154D01*
X-309904Y400214D01*
X-309810Y400272D01*
X-309713Y400326D01*
X-309615Y400376D01*
X-309515Y400423D01*
X-309414Y400467D01*
X-309311Y400507D01*
X-309206Y400543D01*
X-309101Y400575D01*
X-308994Y400604D01*
X-308887Y400629D01*
X-308778Y400651D01*
X-308669Y400668D01*
X-308560Y400682D01*
X-308450Y400691D01*
X-308339Y400697D01*
X-308229Y400699D01*
X-310501Y399725D02*
X-316992Y394208D01*
X-316992Y400699D01*
D11*
X-294100Y485900D02*
X-290100Y485900D01*
X-294100Y485900D02*
X-294100Y479900D01*
X-290100Y485900D02*
X-290100Y453900D01*
X-294100Y453900D01*
X-294100Y459900D01*
X-294344Y459903D01*
X-294587Y459912D01*
X-294830Y459927D01*
X-295073Y459947D01*
X-295315Y459974D01*
X-295556Y460007D01*
X-295796Y460045D01*
X-296036Y460089D01*
X-296274Y460139D01*
X-296511Y460195D01*
X-296747Y460257D01*
X-296981Y460324D01*
X-297213Y460397D01*
X-297444Y460476D01*
X-297672Y460560D01*
X-297899Y460650D01*
X-298123Y460745D01*
X-298345Y460846D01*
X-298564Y460952D01*
X-298780Y461063D01*
X-298994Y461180D01*
X-299205Y461301D01*
X-299413Y461428D01*
X-299618Y461560D01*
X-299819Y461697D01*
X-300017Y461839D01*
X-300212Y461985D01*
X-300403Y462136D01*
X-300590Y462292D01*
X-300773Y462452D01*
X-300953Y462617D01*
X-301128Y462786D01*
X-301299Y462959D01*
X-301466Y463137D01*
X-301628Y463318D01*
X-301786Y463503D01*
X-301940Y463692D01*
X-302089Y463885D01*
X-302233Y464081D01*
X-302372Y464281D01*
X-302507Y464484D01*
X-302636Y464691D01*
X-302760Y464900D01*
X-302879Y465112D01*
X-302993Y465328D01*
X-303102Y465545D01*
X-303205Y465766D01*
X-303303Y465989D01*
X-303396Y466214D01*
X-303483Y466442D01*
X-303564Y466671D01*
X-303640Y466903D01*
X-303710Y467136D01*
X-303775Y467371D01*
X-303834Y467607D01*
X-303887Y467845D01*
X-303934Y468084D01*
X-303975Y468324D01*
X-304010Y468565D01*
X-304040Y468806D01*
X-304064Y469049D01*
X-304081Y469292D01*
X-304093Y469535D01*
X-304099Y469778D01*
X-304099Y470022D01*
X-304093Y470265D01*
X-304081Y470508D01*
X-304064Y470751D01*
X-304040Y470994D01*
X-304010Y471235D01*
X-303975Y471476D01*
X-303934Y471716D01*
X-303887Y471955D01*
X-303834Y472193D01*
X-303775Y472429D01*
X-303710Y472664D01*
X-303640Y472897D01*
X-303564Y473129D01*
X-303483Y473358D01*
X-303396Y473586D01*
X-303303Y473811D01*
X-303205Y474034D01*
X-303102Y474255D01*
X-302993Y474472D01*
X-302879Y474688D01*
X-302760Y474900D01*
X-302636Y475109D01*
X-302507Y475316D01*
X-302372Y475519D01*
X-302233Y475719D01*
X-302089Y475915D01*
X-301940Y476108D01*
X-301786Y476297D01*
X-301628Y476482D01*
X-301466Y476663D01*
X-301299Y476841D01*
X-301128Y477014D01*
X-300953Y477183D01*
X-300773Y477348D01*
X-300590Y477508D01*
X-300403Y477664D01*
X-300212Y477815D01*
X-300017Y477961D01*
X-299819Y478103D01*
X-299618Y478240D01*
X-299413Y478372D01*
X-299205Y478499D01*
X-298994Y478620D01*
X-298780Y478737D01*
X-298564Y478848D01*
X-298345Y478954D01*
X-298123Y479055D01*
X-297899Y479150D01*
X-297672Y479240D01*
X-297444Y479324D01*
X-297213Y479403D01*
X-296981Y479476D01*
X-296747Y479543D01*
X-296511Y479605D01*
X-296274Y479661D01*
X-296036Y479711D01*
X-295796Y479755D01*
X-295556Y479793D01*
X-295315Y479826D01*
X-295073Y479853D01*
X-294830Y479873D01*
X-294587Y479888D01*
X-294344Y479897D01*
X-294100Y479900D01*
X-284100Y485900D02*
X-284100Y487900D01*
X-284100Y485900D02*
X-284100Y483900D01*
X-284100Y485900D02*
X-286100Y485900D01*
X-284100Y485900D02*
X-282100Y485900D01*
D10*
X-316992Y448254D02*
X-316992Y445008D01*
X-316992Y448254D02*
X-316990Y448367D01*
X-316984Y448480D01*
X-316974Y448593D01*
X-316960Y448706D01*
X-316943Y448818D01*
X-316921Y448929D01*
X-316896Y449039D01*
X-316866Y449149D01*
X-316833Y449257D01*
X-316796Y449364D01*
X-316756Y449470D01*
X-316711Y449574D01*
X-316663Y449677D01*
X-316612Y449778D01*
X-316557Y449877D01*
X-316499Y449974D01*
X-316437Y450069D01*
X-316372Y450162D01*
X-316304Y450252D01*
X-316233Y450340D01*
X-316158Y450426D01*
X-316081Y450509D01*
X-316001Y450589D01*
X-315918Y450666D01*
X-315832Y450741D01*
X-315744Y450812D01*
X-315654Y450880D01*
X-315561Y450945D01*
X-315466Y451007D01*
X-315369Y451065D01*
X-315270Y451120D01*
X-315169Y451171D01*
X-315066Y451219D01*
X-314962Y451264D01*
X-314856Y451304D01*
X-314749Y451341D01*
X-314641Y451374D01*
X-314531Y451404D01*
X-314421Y451429D01*
X-314310Y451451D01*
X-314198Y451468D01*
X-314085Y451482D01*
X-313972Y451492D01*
X-313859Y451498D01*
X-313746Y451500D01*
X-313633Y451498D01*
X-313520Y451492D01*
X-313407Y451482D01*
X-313294Y451468D01*
X-313182Y451451D01*
X-313071Y451429D01*
X-312961Y451404D01*
X-312851Y451374D01*
X-312743Y451341D01*
X-312636Y451304D01*
X-312530Y451264D01*
X-312426Y451219D01*
X-312323Y451171D01*
X-312222Y451120D01*
X-312123Y451065D01*
X-312026Y451007D01*
X-311931Y450945D01*
X-311838Y450880D01*
X-311748Y450812D01*
X-311660Y450741D01*
X-311574Y450666D01*
X-311491Y450589D01*
X-311411Y450509D01*
X-311334Y450426D01*
X-311259Y450340D01*
X-311188Y450252D01*
X-311120Y450162D01*
X-311055Y450069D01*
X-310993Y449974D01*
X-310935Y449877D01*
X-310880Y449778D01*
X-310829Y449677D01*
X-310781Y449574D01*
X-310736Y449470D01*
X-310696Y449364D01*
X-310659Y449257D01*
X-310626Y449149D01*
X-310596Y449039D01*
X-310571Y448929D01*
X-310549Y448818D01*
X-310532Y448706D01*
X-310518Y448593D01*
X-310508Y448480D01*
X-310502Y448367D01*
X-310500Y448254D01*
X-305308Y448903D02*
X-305308Y445008D01*
X-305308Y448903D02*
X-305310Y449004D01*
X-305316Y449104D01*
X-305326Y449204D01*
X-305339Y449304D01*
X-305357Y449403D01*
X-305378Y449502D01*
X-305403Y449599D01*
X-305432Y449696D01*
X-305465Y449791D01*
X-305501Y449885D01*
X-305541Y449977D01*
X-305584Y450068D01*
X-305631Y450157D01*
X-305681Y450244D01*
X-305735Y450330D01*
X-305792Y450413D01*
X-305852Y450493D01*
X-305915Y450572D01*
X-305982Y450648D01*
X-306051Y450721D01*
X-306123Y450791D01*
X-306197Y450859D01*
X-306274Y450924D01*
X-306354Y450985D01*
X-306436Y451044D01*
X-306520Y451099D01*
X-306606Y451151D01*
X-306694Y451200D01*
X-306784Y451245D01*
X-306876Y451287D01*
X-306969Y451325D01*
X-307064Y451359D01*
X-307159Y451390D01*
X-307256Y451417D01*
X-307354Y451440D01*
X-307453Y451460D01*
X-307553Y451475D01*
X-307653Y451487D01*
X-307753Y451495D01*
X-307854Y451499D01*
X-307954Y451499D01*
X-308055Y451495D01*
X-308155Y451487D01*
X-308255Y451475D01*
X-308355Y451460D01*
X-308454Y451440D01*
X-308552Y451417D01*
X-308649Y451390D01*
X-308744Y451359D01*
X-308839Y451325D01*
X-308932Y451287D01*
X-309024Y451245D01*
X-309114Y451200D01*
X-309202Y451151D01*
X-309288Y451099D01*
X-309372Y451044D01*
X-309454Y450985D01*
X-309534Y450924D01*
X-309611Y450859D01*
X-309685Y450791D01*
X-309757Y450721D01*
X-309826Y450648D01*
X-309893Y450572D01*
X-309956Y450493D01*
X-310016Y450413D01*
X-310073Y450330D01*
X-310127Y450244D01*
X-310177Y450157D01*
X-310224Y450068D01*
X-310267Y449977D01*
X-310307Y449885D01*
X-310343Y449791D01*
X-310376Y449696D01*
X-310405Y449599D01*
X-310430Y449502D01*
X-310451Y449403D01*
X-310469Y449304D01*
X-310482Y449204D01*
X-310492Y449104D01*
X-310498Y449004D01*
X-310500Y448903D01*
X-310501Y448903D02*
X-310501Y446306D01*
X-65278Y483616D02*
X-65278Y495300D01*
X-68524Y495300D01*
X-68637Y495298D01*
X-68750Y495292D01*
X-68863Y495282D01*
X-68976Y495268D01*
X-69088Y495251D01*
X-69199Y495229D01*
X-69309Y495204D01*
X-69419Y495174D01*
X-69527Y495141D01*
X-69634Y495104D01*
X-69740Y495064D01*
X-69844Y495019D01*
X-69947Y494971D01*
X-70048Y494920D01*
X-70147Y494865D01*
X-70244Y494807D01*
X-70339Y494745D01*
X-70432Y494680D01*
X-70522Y494612D01*
X-70610Y494541D01*
X-70696Y494466D01*
X-70779Y494389D01*
X-70859Y494309D01*
X-70936Y494226D01*
X-71011Y494140D01*
X-71082Y494052D01*
X-71150Y493962D01*
X-71215Y493869D01*
X-71277Y493774D01*
X-71335Y493677D01*
X-71390Y493578D01*
X-71441Y493477D01*
X-71489Y493374D01*
X-71534Y493270D01*
X-71574Y493164D01*
X-71611Y493057D01*
X-71644Y492949D01*
X-71674Y492839D01*
X-71699Y492729D01*
X-71721Y492618D01*
X-71738Y492506D01*
X-71752Y492393D01*
X-71762Y492280D01*
X-71768Y492167D01*
X-71770Y492054D01*
X-71768Y491941D01*
X-71762Y491828D01*
X-71752Y491715D01*
X-71738Y491602D01*
X-71721Y491490D01*
X-71699Y491379D01*
X-71674Y491269D01*
X-71644Y491159D01*
X-71611Y491051D01*
X-71574Y490944D01*
X-71534Y490838D01*
X-71489Y490734D01*
X-71441Y490631D01*
X-71390Y490530D01*
X-71335Y490431D01*
X-71277Y490334D01*
X-71215Y490239D01*
X-71150Y490146D01*
X-71082Y490056D01*
X-71011Y489968D01*
X-70936Y489882D01*
X-70859Y489799D01*
X-70779Y489719D01*
X-70696Y489642D01*
X-70610Y489567D01*
X-70522Y489496D01*
X-70432Y489428D01*
X-70339Y489363D01*
X-70244Y489301D01*
X-70147Y489243D01*
X-70048Y489188D01*
X-69947Y489137D01*
X-69844Y489089D01*
X-69740Y489044D01*
X-69634Y489004D01*
X-69527Y488967D01*
X-69419Y488934D01*
X-69309Y488904D01*
X-69199Y488879D01*
X-69088Y488857D01*
X-68976Y488840D01*
X-68863Y488826D01*
X-68750Y488816D01*
X-68637Y488810D01*
X-68524Y488808D01*
X-68524Y488809D02*
X-65278Y488809D01*
X-69173Y488809D02*
X-71769Y483616D01*
X-76634Y492704D02*
X-79880Y495300D01*
X-79880Y483616D01*
X-83125Y483616D02*
X-76634Y483616D01*
X-91634Y495300D02*
X-91741Y495298D01*
X-91847Y495292D01*
X-91953Y495282D01*
X-92059Y495269D01*
X-92165Y495251D01*
X-92269Y495230D01*
X-92373Y495205D01*
X-92476Y495176D01*
X-92577Y495144D01*
X-92677Y495107D01*
X-92776Y495067D01*
X-92874Y495024D01*
X-92970Y494977D01*
X-93064Y494926D01*
X-93156Y494872D01*
X-93246Y494815D01*
X-93334Y494755D01*
X-93419Y494691D01*
X-93502Y494624D01*
X-93583Y494554D01*
X-93661Y494482D01*
X-93737Y494406D01*
X-93809Y494328D01*
X-93879Y494247D01*
X-93946Y494164D01*
X-94010Y494079D01*
X-94070Y493991D01*
X-94127Y493901D01*
X-94181Y493809D01*
X-94232Y493715D01*
X-94279Y493619D01*
X-94322Y493521D01*
X-94362Y493422D01*
X-94399Y493322D01*
X-94431Y493221D01*
X-94460Y493118D01*
X-94485Y493014D01*
X-94506Y492910D01*
X-94524Y492804D01*
X-94537Y492698D01*
X-94547Y492592D01*
X-94553Y492486D01*
X-94555Y492379D01*
X-91634Y495300D02*
X-91513Y495298D01*
X-91392Y495292D01*
X-91272Y495282D01*
X-91151Y495269D01*
X-91032Y495251D01*
X-90912Y495230D01*
X-90794Y495205D01*
X-90677Y495176D01*
X-90560Y495143D01*
X-90445Y495107D01*
X-90331Y495066D01*
X-90218Y495023D01*
X-90106Y494975D01*
X-89997Y494924D01*
X-89889Y494869D01*
X-89782Y494811D01*
X-89678Y494750D01*
X-89576Y494685D01*
X-89476Y494617D01*
X-89378Y494546D01*
X-89282Y494472D01*
X-89189Y494395D01*
X-89099Y494314D01*
X-89011Y494231D01*
X-88926Y494145D01*
X-88843Y494056D01*
X-88764Y493965D01*
X-88687Y493871D01*
X-88614Y493775D01*
X-88544Y493677D01*
X-88477Y493576D01*
X-88413Y493473D01*
X-88353Y493368D01*
X-88296Y493261D01*
X-88242Y493153D01*
X-88192Y493043D01*
X-88146Y492931D01*
X-88103Y492818D01*
X-88064Y492703D01*
X-93582Y490107D02*
X-93661Y490184D01*
X-93737Y490265D01*
X-93810Y490348D01*
X-93880Y490433D01*
X-93947Y490521D01*
X-94011Y490611D01*
X-94071Y490703D01*
X-94128Y490798D01*
X-94182Y490894D01*
X-94233Y490992D01*
X-94280Y491092D01*
X-94324Y491194D01*
X-94364Y491297D01*
X-94400Y491401D01*
X-94432Y491507D01*
X-94461Y491613D01*
X-94486Y491721D01*
X-94508Y491829D01*
X-94525Y491939D01*
X-94539Y492048D01*
X-94548Y492158D01*
X-94554Y492269D01*
X-94556Y492379D01*
X-93582Y490107D02*
X-88064Y483616D01*
X-94555Y483616D01*
X201235Y215392D02*
X201235Y203708D01*
X201235Y215392D02*
X197990Y215392D01*
X197877Y215390D01*
X197764Y215384D01*
X197651Y215374D01*
X197538Y215360D01*
X197426Y215343D01*
X197315Y215321D01*
X197205Y215296D01*
X197095Y215266D01*
X196987Y215233D01*
X196880Y215196D01*
X196774Y215156D01*
X196670Y215111D01*
X196567Y215063D01*
X196466Y215012D01*
X196367Y214957D01*
X196270Y214899D01*
X196175Y214837D01*
X196082Y214772D01*
X195992Y214704D01*
X195904Y214633D01*
X195818Y214558D01*
X195735Y214481D01*
X195655Y214401D01*
X195578Y214318D01*
X195503Y214232D01*
X195432Y214144D01*
X195364Y214054D01*
X195299Y213961D01*
X195237Y213866D01*
X195179Y213769D01*
X195124Y213670D01*
X195073Y213569D01*
X195025Y213466D01*
X194980Y213362D01*
X194940Y213256D01*
X194903Y213149D01*
X194870Y213041D01*
X194840Y212931D01*
X194815Y212821D01*
X194793Y212710D01*
X194776Y212598D01*
X194762Y212485D01*
X194752Y212372D01*
X194746Y212259D01*
X194744Y212146D01*
X194746Y212033D01*
X194752Y211920D01*
X194762Y211807D01*
X194776Y211694D01*
X194793Y211582D01*
X194815Y211471D01*
X194840Y211361D01*
X194870Y211251D01*
X194903Y211143D01*
X194940Y211036D01*
X194980Y210930D01*
X195025Y210826D01*
X195073Y210723D01*
X195124Y210622D01*
X195179Y210523D01*
X195237Y210426D01*
X195299Y210331D01*
X195364Y210238D01*
X195432Y210148D01*
X195503Y210060D01*
X195578Y209974D01*
X195655Y209891D01*
X195735Y209811D01*
X195818Y209734D01*
X195904Y209659D01*
X195992Y209588D01*
X196082Y209520D01*
X196175Y209455D01*
X196270Y209393D01*
X196367Y209335D01*
X196466Y209280D01*
X196567Y209229D01*
X196670Y209181D01*
X196774Y209136D01*
X196880Y209096D01*
X196987Y209059D01*
X197095Y209026D01*
X197205Y208996D01*
X197315Y208971D01*
X197426Y208949D01*
X197538Y208932D01*
X197651Y208918D01*
X197764Y208908D01*
X197877Y208902D01*
X197990Y208900D01*
X197990Y208901D02*
X201235Y208901D01*
X197341Y208901D02*
X194744Y203708D01*
X189879Y212796D02*
X186634Y215392D01*
X186634Y203708D01*
X189879Y203708D02*
X183388Y203708D01*
X178449Y203708D02*
X175204Y203708D01*
X175091Y203710D01*
X174978Y203716D01*
X174865Y203726D01*
X174752Y203740D01*
X174640Y203757D01*
X174529Y203779D01*
X174419Y203804D01*
X174309Y203834D01*
X174201Y203867D01*
X174094Y203904D01*
X173988Y203944D01*
X173884Y203989D01*
X173781Y204037D01*
X173680Y204088D01*
X173581Y204143D01*
X173484Y204201D01*
X173389Y204263D01*
X173296Y204328D01*
X173206Y204396D01*
X173118Y204467D01*
X173032Y204542D01*
X172949Y204619D01*
X172869Y204699D01*
X172792Y204782D01*
X172717Y204868D01*
X172646Y204956D01*
X172578Y205046D01*
X172513Y205139D01*
X172451Y205234D01*
X172393Y205331D01*
X172338Y205430D01*
X172287Y205531D01*
X172239Y205634D01*
X172194Y205738D01*
X172154Y205844D01*
X172117Y205951D01*
X172084Y206059D01*
X172054Y206169D01*
X172029Y206279D01*
X172007Y206390D01*
X171990Y206502D01*
X171976Y206615D01*
X171966Y206728D01*
X171960Y206841D01*
X171958Y206954D01*
X171960Y207067D01*
X171966Y207180D01*
X171976Y207293D01*
X171990Y207406D01*
X172007Y207518D01*
X172029Y207629D01*
X172054Y207739D01*
X172084Y207849D01*
X172117Y207957D01*
X172154Y208064D01*
X172194Y208170D01*
X172239Y208274D01*
X172287Y208377D01*
X172338Y208478D01*
X172393Y208577D01*
X172451Y208674D01*
X172513Y208769D01*
X172578Y208862D01*
X172646Y208952D01*
X172717Y209040D01*
X172792Y209126D01*
X172869Y209209D01*
X172949Y209289D01*
X173032Y209366D01*
X173118Y209441D01*
X173206Y209512D01*
X173296Y209580D01*
X173389Y209645D01*
X173484Y209707D01*
X173581Y209765D01*
X173680Y209820D01*
X173781Y209871D01*
X173884Y209919D01*
X173988Y209964D01*
X174094Y210004D01*
X174201Y210041D01*
X174309Y210074D01*
X174419Y210104D01*
X174529Y210129D01*
X174640Y210151D01*
X174752Y210168D01*
X174865Y210182D01*
X174978Y210192D01*
X175091Y210198D01*
X175204Y210200D01*
X174554Y215392D02*
X178449Y215392D01*
X174554Y215392D02*
X174453Y215390D01*
X174353Y215384D01*
X174253Y215374D01*
X174153Y215361D01*
X174054Y215343D01*
X173955Y215322D01*
X173858Y215297D01*
X173761Y215268D01*
X173666Y215235D01*
X173572Y215199D01*
X173480Y215159D01*
X173389Y215116D01*
X173300Y215069D01*
X173213Y215019D01*
X173127Y214965D01*
X173044Y214908D01*
X172964Y214848D01*
X172885Y214785D01*
X172809Y214718D01*
X172736Y214649D01*
X172666Y214577D01*
X172598Y214503D01*
X172533Y214426D01*
X172472Y214346D01*
X172413Y214264D01*
X172358Y214180D01*
X172306Y214094D01*
X172257Y214006D01*
X172212Y213916D01*
X172170Y213824D01*
X172132Y213731D01*
X172098Y213636D01*
X172067Y213541D01*
X172040Y213444D01*
X172017Y213346D01*
X171997Y213247D01*
X171982Y213147D01*
X171970Y213047D01*
X171962Y212947D01*
X171958Y212846D01*
X171958Y212746D01*
X171962Y212645D01*
X171970Y212545D01*
X171982Y212445D01*
X171997Y212345D01*
X172017Y212246D01*
X172040Y212148D01*
X172067Y212051D01*
X172098Y211956D01*
X172132Y211861D01*
X172170Y211768D01*
X172212Y211676D01*
X172257Y211586D01*
X172306Y211498D01*
X172358Y211412D01*
X172413Y211328D01*
X172472Y211246D01*
X172533Y211166D01*
X172598Y211089D01*
X172666Y211015D01*
X172736Y210943D01*
X172809Y210874D01*
X172885Y210807D01*
X172964Y210744D01*
X173044Y210684D01*
X173127Y210627D01*
X173213Y210573D01*
X173300Y210523D01*
X173389Y210476D01*
X173480Y210433D01*
X173572Y210393D01*
X173666Y210357D01*
X173761Y210324D01*
X173858Y210295D01*
X173955Y210270D01*
X174054Y210249D01*
X174153Y210231D01*
X174253Y210218D01*
X174353Y210208D01*
X174453Y210202D01*
X174554Y210200D01*
X174554Y210199D02*
X177151Y210199D01*
X-166624Y83058D02*
X-178308Y83058D01*
X-166624Y83058D02*
X-166624Y86304D01*
X-166626Y86417D01*
X-166632Y86530D01*
X-166642Y86643D01*
X-166656Y86756D01*
X-166673Y86868D01*
X-166695Y86979D01*
X-166720Y87089D01*
X-166750Y87199D01*
X-166783Y87307D01*
X-166820Y87414D01*
X-166860Y87520D01*
X-166905Y87624D01*
X-166953Y87727D01*
X-167004Y87828D01*
X-167059Y87927D01*
X-167117Y88024D01*
X-167179Y88119D01*
X-167244Y88212D01*
X-167312Y88302D01*
X-167383Y88390D01*
X-167458Y88476D01*
X-167535Y88559D01*
X-167615Y88639D01*
X-167698Y88716D01*
X-167784Y88791D01*
X-167872Y88862D01*
X-167962Y88930D01*
X-168055Y88995D01*
X-168150Y89057D01*
X-168247Y89115D01*
X-168346Y89170D01*
X-168447Y89221D01*
X-168550Y89269D01*
X-168654Y89314D01*
X-168760Y89354D01*
X-168867Y89391D01*
X-168975Y89424D01*
X-169085Y89454D01*
X-169195Y89479D01*
X-169306Y89501D01*
X-169418Y89518D01*
X-169531Y89532D01*
X-169644Y89542D01*
X-169757Y89548D01*
X-169870Y89550D01*
X-169983Y89548D01*
X-170096Y89542D01*
X-170209Y89532D01*
X-170322Y89518D01*
X-170434Y89501D01*
X-170545Y89479D01*
X-170655Y89454D01*
X-170765Y89424D01*
X-170873Y89391D01*
X-170980Y89354D01*
X-171086Y89314D01*
X-171190Y89269D01*
X-171293Y89221D01*
X-171394Y89170D01*
X-171493Y89115D01*
X-171590Y89057D01*
X-171685Y88995D01*
X-171778Y88930D01*
X-171868Y88862D01*
X-171956Y88791D01*
X-172042Y88716D01*
X-172125Y88639D01*
X-172205Y88559D01*
X-172282Y88476D01*
X-172357Y88390D01*
X-172428Y88302D01*
X-172496Y88212D01*
X-172561Y88119D01*
X-172623Y88024D01*
X-172681Y87927D01*
X-172736Y87828D01*
X-172787Y87727D01*
X-172835Y87624D01*
X-172880Y87520D01*
X-172920Y87414D01*
X-172957Y87307D01*
X-172990Y87199D01*
X-173020Y87089D01*
X-173045Y86979D01*
X-173067Y86868D01*
X-173084Y86756D01*
X-173098Y86643D01*
X-173108Y86530D01*
X-173114Y86417D01*
X-173116Y86304D01*
X-173115Y86304D02*
X-173115Y83058D01*
X-173115Y86953D02*
X-178308Y89549D01*
X-169220Y94414D02*
X-166624Y97660D01*
X-178308Y97660D01*
X-178308Y100905D02*
X-178308Y94414D01*
X-175712Y105844D02*
X-166624Y108441D01*
X-175712Y105844D02*
X-175712Y112335D01*
X-173115Y110388D02*
X-178308Y110388D01*
X-235458Y330708D02*
X-235458Y342392D01*
X-238704Y342392D01*
X-238817Y342390D01*
X-238930Y342384D01*
X-239043Y342374D01*
X-239156Y342360D01*
X-239268Y342343D01*
X-239379Y342321D01*
X-239489Y342296D01*
X-239599Y342266D01*
X-239707Y342233D01*
X-239814Y342196D01*
X-239920Y342156D01*
X-240024Y342111D01*
X-240127Y342063D01*
X-240228Y342012D01*
X-240327Y341957D01*
X-240424Y341899D01*
X-240519Y341837D01*
X-240612Y341772D01*
X-240702Y341704D01*
X-240790Y341633D01*
X-240876Y341558D01*
X-240959Y341481D01*
X-241039Y341401D01*
X-241116Y341318D01*
X-241191Y341232D01*
X-241262Y341144D01*
X-241330Y341054D01*
X-241395Y340961D01*
X-241457Y340866D01*
X-241515Y340769D01*
X-241570Y340670D01*
X-241621Y340569D01*
X-241669Y340466D01*
X-241714Y340362D01*
X-241754Y340256D01*
X-241791Y340149D01*
X-241824Y340041D01*
X-241854Y339931D01*
X-241879Y339821D01*
X-241901Y339710D01*
X-241918Y339598D01*
X-241932Y339485D01*
X-241942Y339372D01*
X-241948Y339259D01*
X-241950Y339146D01*
X-241948Y339033D01*
X-241942Y338920D01*
X-241932Y338807D01*
X-241918Y338694D01*
X-241901Y338582D01*
X-241879Y338471D01*
X-241854Y338361D01*
X-241824Y338251D01*
X-241791Y338143D01*
X-241754Y338036D01*
X-241714Y337930D01*
X-241669Y337826D01*
X-241621Y337723D01*
X-241570Y337622D01*
X-241515Y337523D01*
X-241457Y337426D01*
X-241395Y337331D01*
X-241330Y337238D01*
X-241262Y337148D01*
X-241191Y337060D01*
X-241116Y336974D01*
X-241039Y336891D01*
X-240959Y336811D01*
X-240876Y336734D01*
X-240790Y336659D01*
X-240702Y336588D01*
X-240612Y336520D01*
X-240519Y336455D01*
X-240424Y336393D01*
X-240327Y336335D01*
X-240228Y336280D01*
X-240127Y336229D01*
X-240024Y336181D01*
X-239920Y336136D01*
X-239814Y336096D01*
X-239707Y336059D01*
X-239599Y336026D01*
X-239489Y335996D01*
X-239379Y335971D01*
X-239268Y335949D01*
X-239156Y335932D01*
X-239043Y335918D01*
X-238930Y335908D01*
X-238817Y335902D01*
X-238704Y335900D01*
X-238704Y335901D02*
X-235458Y335901D01*
X-239353Y335901D02*
X-241949Y330708D01*
X-246814Y339796D02*
X-250060Y342392D01*
X-250060Y330708D01*
X-253305Y330708D02*
X-246814Y330708D01*
X-258244Y341094D02*
X-258244Y342392D01*
X-264735Y342392D01*
X-261490Y330708D01*
X-235458Y381508D02*
X-235458Y393192D01*
X-238704Y393192D01*
X-238817Y393190D01*
X-238930Y393184D01*
X-239043Y393174D01*
X-239156Y393160D01*
X-239268Y393143D01*
X-239379Y393121D01*
X-239489Y393096D01*
X-239599Y393066D01*
X-239707Y393033D01*
X-239814Y392996D01*
X-239920Y392956D01*
X-240024Y392911D01*
X-240127Y392863D01*
X-240228Y392812D01*
X-240327Y392757D01*
X-240424Y392699D01*
X-240519Y392637D01*
X-240612Y392572D01*
X-240702Y392504D01*
X-240790Y392433D01*
X-240876Y392358D01*
X-240959Y392281D01*
X-241039Y392201D01*
X-241116Y392118D01*
X-241191Y392032D01*
X-241262Y391944D01*
X-241330Y391854D01*
X-241395Y391761D01*
X-241457Y391666D01*
X-241515Y391569D01*
X-241570Y391470D01*
X-241621Y391369D01*
X-241669Y391266D01*
X-241714Y391162D01*
X-241754Y391056D01*
X-241791Y390949D01*
X-241824Y390841D01*
X-241854Y390731D01*
X-241879Y390621D01*
X-241901Y390510D01*
X-241918Y390398D01*
X-241932Y390285D01*
X-241942Y390172D01*
X-241948Y390059D01*
X-241950Y389946D01*
X-241948Y389833D01*
X-241942Y389720D01*
X-241932Y389607D01*
X-241918Y389494D01*
X-241901Y389382D01*
X-241879Y389271D01*
X-241854Y389161D01*
X-241824Y389051D01*
X-241791Y388943D01*
X-241754Y388836D01*
X-241714Y388730D01*
X-241669Y388626D01*
X-241621Y388523D01*
X-241570Y388422D01*
X-241515Y388323D01*
X-241457Y388226D01*
X-241395Y388131D01*
X-241330Y388038D01*
X-241262Y387948D01*
X-241191Y387860D01*
X-241116Y387774D01*
X-241039Y387691D01*
X-240959Y387611D01*
X-240876Y387534D01*
X-240790Y387459D01*
X-240702Y387388D01*
X-240612Y387320D01*
X-240519Y387255D01*
X-240424Y387193D01*
X-240327Y387135D01*
X-240228Y387080D01*
X-240127Y387029D01*
X-240024Y386981D01*
X-239920Y386936D01*
X-239814Y386896D01*
X-239707Y386859D01*
X-239599Y386826D01*
X-239489Y386796D01*
X-239379Y386771D01*
X-239268Y386749D01*
X-239156Y386732D01*
X-239043Y386718D01*
X-238930Y386708D01*
X-238817Y386702D01*
X-238704Y386700D01*
X-238704Y386701D02*
X-235458Y386701D01*
X-239353Y386701D02*
X-241949Y381508D01*
X-246814Y390596D02*
X-250060Y393192D01*
X-250060Y381508D01*
X-253305Y381508D02*
X-246814Y381508D01*
X-258244Y384754D02*
X-258246Y384867D01*
X-258252Y384980D01*
X-258262Y385093D01*
X-258276Y385206D01*
X-258293Y385318D01*
X-258315Y385429D01*
X-258340Y385539D01*
X-258370Y385649D01*
X-258403Y385757D01*
X-258440Y385864D01*
X-258480Y385970D01*
X-258525Y386074D01*
X-258573Y386177D01*
X-258624Y386278D01*
X-258679Y386377D01*
X-258737Y386474D01*
X-258799Y386569D01*
X-258864Y386662D01*
X-258932Y386752D01*
X-259003Y386840D01*
X-259078Y386926D01*
X-259155Y387009D01*
X-259235Y387089D01*
X-259318Y387166D01*
X-259404Y387241D01*
X-259492Y387312D01*
X-259582Y387380D01*
X-259675Y387445D01*
X-259770Y387507D01*
X-259867Y387565D01*
X-259966Y387620D01*
X-260067Y387671D01*
X-260170Y387719D01*
X-260274Y387764D01*
X-260380Y387804D01*
X-260487Y387841D01*
X-260595Y387874D01*
X-260705Y387904D01*
X-260815Y387929D01*
X-260926Y387951D01*
X-261038Y387968D01*
X-261151Y387982D01*
X-261264Y387992D01*
X-261377Y387998D01*
X-261490Y388000D01*
X-261603Y387998D01*
X-261716Y387992D01*
X-261829Y387982D01*
X-261942Y387968D01*
X-262054Y387951D01*
X-262165Y387929D01*
X-262275Y387904D01*
X-262385Y387874D01*
X-262493Y387841D01*
X-262600Y387804D01*
X-262706Y387764D01*
X-262810Y387719D01*
X-262913Y387671D01*
X-263014Y387620D01*
X-263113Y387565D01*
X-263210Y387507D01*
X-263305Y387445D01*
X-263398Y387380D01*
X-263488Y387312D01*
X-263576Y387241D01*
X-263662Y387166D01*
X-263745Y387089D01*
X-263825Y387009D01*
X-263902Y386926D01*
X-263977Y386840D01*
X-264048Y386752D01*
X-264116Y386662D01*
X-264181Y386569D01*
X-264243Y386474D01*
X-264301Y386377D01*
X-264356Y386278D01*
X-264407Y386177D01*
X-264455Y386074D01*
X-264500Y385970D01*
X-264540Y385864D01*
X-264577Y385757D01*
X-264610Y385649D01*
X-264640Y385539D01*
X-264665Y385429D01*
X-264687Y385318D01*
X-264704Y385206D01*
X-264718Y385093D01*
X-264728Y384980D01*
X-264734Y384867D01*
X-264736Y384754D01*
X-264734Y384641D01*
X-264728Y384528D01*
X-264718Y384415D01*
X-264704Y384302D01*
X-264687Y384190D01*
X-264665Y384079D01*
X-264640Y383969D01*
X-264610Y383859D01*
X-264577Y383751D01*
X-264540Y383644D01*
X-264500Y383538D01*
X-264455Y383434D01*
X-264407Y383331D01*
X-264356Y383230D01*
X-264301Y383131D01*
X-264243Y383034D01*
X-264181Y382939D01*
X-264116Y382846D01*
X-264048Y382756D01*
X-263977Y382668D01*
X-263902Y382582D01*
X-263825Y382499D01*
X-263745Y382419D01*
X-263662Y382342D01*
X-263576Y382267D01*
X-263488Y382196D01*
X-263398Y382128D01*
X-263305Y382063D01*
X-263210Y382001D01*
X-263113Y381943D01*
X-263014Y381888D01*
X-262913Y381837D01*
X-262810Y381789D01*
X-262706Y381744D01*
X-262600Y381704D01*
X-262493Y381667D01*
X-262385Y381634D01*
X-262275Y381604D01*
X-262165Y381579D01*
X-262054Y381557D01*
X-261942Y381540D01*
X-261829Y381526D01*
X-261716Y381516D01*
X-261603Y381510D01*
X-261490Y381508D01*
X-261377Y381510D01*
X-261264Y381516D01*
X-261151Y381526D01*
X-261038Y381540D01*
X-260926Y381557D01*
X-260815Y381579D01*
X-260705Y381604D01*
X-260595Y381634D01*
X-260487Y381667D01*
X-260380Y381704D01*
X-260274Y381744D01*
X-260170Y381789D01*
X-260067Y381837D01*
X-259966Y381888D01*
X-259867Y381943D01*
X-259770Y382001D01*
X-259675Y382063D01*
X-259582Y382128D01*
X-259492Y382196D01*
X-259404Y382267D01*
X-259318Y382342D01*
X-259235Y382419D01*
X-259155Y382499D01*
X-259078Y382582D01*
X-259003Y382668D01*
X-258932Y382756D01*
X-258864Y382846D01*
X-258799Y382939D01*
X-258737Y383034D01*
X-258679Y383131D01*
X-258624Y383230D01*
X-258573Y383331D01*
X-258525Y383434D01*
X-258480Y383538D01*
X-258440Y383644D01*
X-258403Y383751D01*
X-258370Y383859D01*
X-258340Y383969D01*
X-258315Y384079D01*
X-258293Y384190D01*
X-258276Y384302D01*
X-258262Y384415D01*
X-258252Y384528D01*
X-258246Y384641D01*
X-258244Y384754D01*
X-258894Y390596D02*
X-258896Y390697D01*
X-258902Y390797D01*
X-258912Y390897D01*
X-258925Y390997D01*
X-258943Y391096D01*
X-258964Y391195D01*
X-258989Y391292D01*
X-259018Y391389D01*
X-259051Y391484D01*
X-259087Y391578D01*
X-259127Y391670D01*
X-259170Y391761D01*
X-259217Y391850D01*
X-259267Y391937D01*
X-259321Y392023D01*
X-259378Y392106D01*
X-259438Y392186D01*
X-259501Y392265D01*
X-259568Y392341D01*
X-259637Y392414D01*
X-259709Y392484D01*
X-259783Y392552D01*
X-259860Y392617D01*
X-259940Y392678D01*
X-260022Y392737D01*
X-260106Y392792D01*
X-260192Y392844D01*
X-260280Y392893D01*
X-260370Y392938D01*
X-260462Y392980D01*
X-260555Y393018D01*
X-260650Y393052D01*
X-260745Y393083D01*
X-260842Y393110D01*
X-260940Y393133D01*
X-261039Y393153D01*
X-261139Y393168D01*
X-261239Y393180D01*
X-261339Y393188D01*
X-261440Y393192D01*
X-261540Y393192D01*
X-261641Y393188D01*
X-261741Y393180D01*
X-261841Y393168D01*
X-261941Y393153D01*
X-262040Y393133D01*
X-262138Y393110D01*
X-262235Y393083D01*
X-262330Y393052D01*
X-262425Y393018D01*
X-262518Y392980D01*
X-262610Y392938D01*
X-262700Y392893D01*
X-262788Y392844D01*
X-262874Y392792D01*
X-262958Y392737D01*
X-263040Y392678D01*
X-263120Y392617D01*
X-263197Y392552D01*
X-263271Y392484D01*
X-263343Y392414D01*
X-263412Y392341D01*
X-263479Y392265D01*
X-263542Y392186D01*
X-263602Y392106D01*
X-263659Y392023D01*
X-263713Y391937D01*
X-263763Y391850D01*
X-263810Y391761D01*
X-263853Y391670D01*
X-263893Y391578D01*
X-263929Y391484D01*
X-263962Y391389D01*
X-263991Y391292D01*
X-264016Y391195D01*
X-264037Y391096D01*
X-264055Y390997D01*
X-264068Y390897D01*
X-264078Y390797D01*
X-264084Y390697D01*
X-264086Y390596D01*
X-264084Y390495D01*
X-264078Y390395D01*
X-264068Y390295D01*
X-264055Y390195D01*
X-264037Y390096D01*
X-264016Y389997D01*
X-263991Y389900D01*
X-263962Y389803D01*
X-263929Y389708D01*
X-263893Y389614D01*
X-263853Y389522D01*
X-263810Y389431D01*
X-263763Y389342D01*
X-263713Y389255D01*
X-263659Y389169D01*
X-263602Y389086D01*
X-263542Y389006D01*
X-263479Y388927D01*
X-263412Y388851D01*
X-263343Y388778D01*
X-263271Y388708D01*
X-263197Y388640D01*
X-263120Y388575D01*
X-263040Y388514D01*
X-262958Y388455D01*
X-262874Y388400D01*
X-262788Y388348D01*
X-262700Y388299D01*
X-262610Y388254D01*
X-262518Y388212D01*
X-262425Y388174D01*
X-262330Y388140D01*
X-262235Y388109D01*
X-262138Y388082D01*
X-262040Y388059D01*
X-261941Y388039D01*
X-261841Y388024D01*
X-261741Y388012D01*
X-261641Y388004D01*
X-261540Y388000D01*
X-261440Y388000D01*
X-261339Y388004D01*
X-261239Y388012D01*
X-261139Y388024D01*
X-261039Y388039D01*
X-260940Y388059D01*
X-260842Y388082D01*
X-260745Y388109D01*
X-260650Y388140D01*
X-260555Y388174D01*
X-260462Y388212D01*
X-260370Y388254D01*
X-260280Y388299D01*
X-260192Y388348D01*
X-260106Y388400D01*
X-260022Y388455D01*
X-259940Y388514D01*
X-259860Y388575D01*
X-259783Y388640D01*
X-259709Y388708D01*
X-259637Y388778D01*
X-259568Y388851D01*
X-259501Y388927D01*
X-259438Y389006D01*
X-259378Y389086D01*
X-259321Y389169D01*
X-259267Y389255D01*
X-259217Y389342D01*
X-259170Y389431D01*
X-259127Y389522D01*
X-259087Y389614D01*
X-259051Y389708D01*
X-259018Y389803D01*
X-258989Y389900D01*
X-258964Y389997D01*
X-258943Y390096D01*
X-258925Y390195D01*
X-258912Y390295D01*
X-258902Y390395D01*
X-258896Y390495D01*
X-258894Y390596D01*
X-235458Y432308D02*
X-235458Y443992D01*
X-238704Y443992D01*
X-238817Y443990D01*
X-238930Y443984D01*
X-239043Y443974D01*
X-239156Y443960D01*
X-239268Y443943D01*
X-239379Y443921D01*
X-239489Y443896D01*
X-239599Y443866D01*
X-239707Y443833D01*
X-239814Y443796D01*
X-239920Y443756D01*
X-240024Y443711D01*
X-240127Y443663D01*
X-240228Y443612D01*
X-240327Y443557D01*
X-240424Y443499D01*
X-240519Y443437D01*
X-240612Y443372D01*
X-240702Y443304D01*
X-240790Y443233D01*
X-240876Y443158D01*
X-240959Y443081D01*
X-241039Y443001D01*
X-241116Y442918D01*
X-241191Y442832D01*
X-241262Y442744D01*
X-241330Y442654D01*
X-241395Y442561D01*
X-241457Y442466D01*
X-241515Y442369D01*
X-241570Y442270D01*
X-241621Y442169D01*
X-241669Y442066D01*
X-241714Y441962D01*
X-241754Y441856D01*
X-241791Y441749D01*
X-241824Y441641D01*
X-241854Y441531D01*
X-241879Y441421D01*
X-241901Y441310D01*
X-241918Y441198D01*
X-241932Y441085D01*
X-241942Y440972D01*
X-241948Y440859D01*
X-241950Y440746D01*
X-241948Y440633D01*
X-241942Y440520D01*
X-241932Y440407D01*
X-241918Y440294D01*
X-241901Y440182D01*
X-241879Y440071D01*
X-241854Y439961D01*
X-241824Y439851D01*
X-241791Y439743D01*
X-241754Y439636D01*
X-241714Y439530D01*
X-241669Y439426D01*
X-241621Y439323D01*
X-241570Y439222D01*
X-241515Y439123D01*
X-241457Y439026D01*
X-241395Y438931D01*
X-241330Y438838D01*
X-241262Y438748D01*
X-241191Y438660D01*
X-241116Y438574D01*
X-241039Y438491D01*
X-240959Y438411D01*
X-240876Y438334D01*
X-240790Y438259D01*
X-240702Y438188D01*
X-240612Y438120D01*
X-240519Y438055D01*
X-240424Y437993D01*
X-240327Y437935D01*
X-240228Y437880D01*
X-240127Y437829D01*
X-240024Y437781D01*
X-239920Y437736D01*
X-239814Y437696D01*
X-239707Y437659D01*
X-239599Y437626D01*
X-239489Y437596D01*
X-239379Y437571D01*
X-239268Y437549D01*
X-239156Y437532D01*
X-239043Y437518D01*
X-238930Y437508D01*
X-238817Y437502D01*
X-238704Y437500D01*
X-238704Y437501D02*
X-235458Y437501D01*
X-239353Y437501D02*
X-241949Y432308D01*
X-246814Y441396D02*
X-250060Y443992D01*
X-250060Y432308D01*
X-253305Y432308D02*
X-246814Y432308D01*
X-260841Y437501D02*
X-264735Y437501D01*
X-260841Y437501D02*
X-260742Y437503D01*
X-260642Y437509D01*
X-260543Y437518D01*
X-260445Y437531D01*
X-260347Y437548D01*
X-260249Y437569D01*
X-260153Y437594D01*
X-260058Y437622D01*
X-259964Y437654D01*
X-259871Y437689D01*
X-259779Y437728D01*
X-259689Y437771D01*
X-259601Y437816D01*
X-259514Y437866D01*
X-259430Y437918D01*
X-259347Y437974D01*
X-259267Y438032D01*
X-259189Y438094D01*
X-259114Y438159D01*
X-259041Y438227D01*
X-258971Y438297D01*
X-258903Y438370D01*
X-258838Y438445D01*
X-258776Y438523D01*
X-258718Y438603D01*
X-258662Y438686D01*
X-258610Y438770D01*
X-258560Y438857D01*
X-258515Y438945D01*
X-258472Y439035D01*
X-258433Y439127D01*
X-258398Y439220D01*
X-258366Y439314D01*
X-258338Y439409D01*
X-258313Y439505D01*
X-258292Y439603D01*
X-258275Y439701D01*
X-258262Y439799D01*
X-258253Y439898D01*
X-258247Y439998D01*
X-258245Y440097D01*
X-258244Y440097D02*
X-258244Y440746D01*
X-258246Y440859D01*
X-258252Y440972D01*
X-258262Y441085D01*
X-258276Y441198D01*
X-258293Y441310D01*
X-258315Y441421D01*
X-258340Y441531D01*
X-258370Y441641D01*
X-258403Y441749D01*
X-258440Y441856D01*
X-258480Y441962D01*
X-258525Y442066D01*
X-258573Y442169D01*
X-258624Y442270D01*
X-258679Y442369D01*
X-258737Y442466D01*
X-258799Y442561D01*
X-258864Y442654D01*
X-258932Y442744D01*
X-259003Y442832D01*
X-259078Y442918D01*
X-259155Y443001D01*
X-259235Y443081D01*
X-259318Y443158D01*
X-259404Y443233D01*
X-259492Y443304D01*
X-259582Y443372D01*
X-259675Y443437D01*
X-259770Y443499D01*
X-259867Y443557D01*
X-259966Y443612D01*
X-260067Y443663D01*
X-260170Y443711D01*
X-260274Y443756D01*
X-260380Y443796D01*
X-260487Y443833D01*
X-260595Y443866D01*
X-260705Y443896D01*
X-260815Y443921D01*
X-260926Y443943D01*
X-261038Y443960D01*
X-261151Y443974D01*
X-261264Y443984D01*
X-261377Y443990D01*
X-261490Y443992D01*
X-261603Y443990D01*
X-261716Y443984D01*
X-261829Y443974D01*
X-261942Y443960D01*
X-262054Y443943D01*
X-262165Y443921D01*
X-262275Y443896D01*
X-262385Y443866D01*
X-262493Y443833D01*
X-262600Y443796D01*
X-262706Y443756D01*
X-262810Y443711D01*
X-262913Y443663D01*
X-263014Y443612D01*
X-263113Y443557D01*
X-263210Y443499D01*
X-263305Y443437D01*
X-263398Y443372D01*
X-263488Y443304D01*
X-263576Y443233D01*
X-263662Y443158D01*
X-263745Y443081D01*
X-263825Y443001D01*
X-263902Y442918D01*
X-263977Y442832D01*
X-264048Y442744D01*
X-264116Y442654D01*
X-264181Y442561D01*
X-264243Y442466D01*
X-264301Y442369D01*
X-264356Y442270D01*
X-264407Y442169D01*
X-264455Y442066D01*
X-264500Y441962D01*
X-264540Y441856D01*
X-264577Y441749D01*
X-264610Y441641D01*
X-264640Y441531D01*
X-264665Y441421D01*
X-264687Y441310D01*
X-264704Y441198D01*
X-264718Y441085D01*
X-264728Y440972D01*
X-264734Y440859D01*
X-264736Y440746D01*
X-264735Y440746D02*
X-264735Y437501D01*
X-264736Y437501D02*
X-264734Y437358D01*
X-264728Y437215D01*
X-264718Y437072D01*
X-264704Y436930D01*
X-264687Y436788D01*
X-264665Y436646D01*
X-264640Y436505D01*
X-264610Y436365D01*
X-264577Y436226D01*
X-264540Y436088D01*
X-264499Y435951D01*
X-264455Y435815D01*
X-264406Y435680D01*
X-264354Y435547D01*
X-264299Y435415D01*
X-264239Y435285D01*
X-264176Y435156D01*
X-264110Y435029D01*
X-264040Y434905D01*
X-263967Y434782D01*
X-263890Y434661D01*
X-263810Y434542D01*
X-263727Y434426D01*
X-263641Y434311D01*
X-263552Y434200D01*
X-263459Y434090D01*
X-263364Y433984D01*
X-263265Y433880D01*
X-263164Y433779D01*
X-263060Y433680D01*
X-262954Y433585D01*
X-262844Y433492D01*
X-262733Y433403D01*
X-262618Y433317D01*
X-262502Y433234D01*
X-262383Y433154D01*
X-262262Y433077D01*
X-262140Y433004D01*
X-262015Y432934D01*
X-261888Y432868D01*
X-261759Y432805D01*
X-261629Y432745D01*
X-261497Y432690D01*
X-261364Y432638D01*
X-261229Y432589D01*
X-261093Y432545D01*
X-260956Y432504D01*
X-260818Y432467D01*
X-260679Y432434D01*
X-260539Y432404D01*
X-260398Y432379D01*
X-260256Y432357D01*
X-260114Y432340D01*
X-259972Y432326D01*
X-259829Y432316D01*
X-259686Y432310D01*
X-259543Y432308D01*
X-177292Y495995D02*
X-165608Y495995D01*
X-165608Y499240D01*
X-165610Y499353D01*
X-165616Y499466D01*
X-165626Y499579D01*
X-165640Y499692D01*
X-165657Y499804D01*
X-165679Y499915D01*
X-165704Y500025D01*
X-165734Y500135D01*
X-165767Y500243D01*
X-165804Y500350D01*
X-165844Y500456D01*
X-165889Y500560D01*
X-165937Y500663D01*
X-165988Y500764D01*
X-166043Y500863D01*
X-166101Y500960D01*
X-166163Y501055D01*
X-166228Y501148D01*
X-166296Y501238D01*
X-166367Y501326D01*
X-166442Y501412D01*
X-166519Y501495D01*
X-166599Y501575D01*
X-166682Y501652D01*
X-166768Y501727D01*
X-166856Y501798D01*
X-166946Y501866D01*
X-167039Y501931D01*
X-167134Y501993D01*
X-167231Y502051D01*
X-167330Y502106D01*
X-167431Y502157D01*
X-167534Y502205D01*
X-167638Y502250D01*
X-167744Y502290D01*
X-167851Y502327D01*
X-167959Y502360D01*
X-168069Y502390D01*
X-168179Y502415D01*
X-168290Y502437D01*
X-168402Y502454D01*
X-168515Y502468D01*
X-168628Y502478D01*
X-168741Y502484D01*
X-168854Y502486D01*
X-168967Y502484D01*
X-169080Y502478D01*
X-169193Y502468D01*
X-169306Y502454D01*
X-169418Y502437D01*
X-169529Y502415D01*
X-169639Y502390D01*
X-169749Y502360D01*
X-169857Y502327D01*
X-169964Y502290D01*
X-170070Y502250D01*
X-170174Y502205D01*
X-170277Y502157D01*
X-170378Y502106D01*
X-170477Y502051D01*
X-170574Y501993D01*
X-170669Y501931D01*
X-170762Y501866D01*
X-170852Y501798D01*
X-170940Y501727D01*
X-171026Y501652D01*
X-171109Y501575D01*
X-171189Y501495D01*
X-171266Y501412D01*
X-171341Y501326D01*
X-171412Y501238D01*
X-171480Y501148D01*
X-171545Y501055D01*
X-171607Y500960D01*
X-171665Y500863D01*
X-171720Y500764D01*
X-171771Y500663D01*
X-171819Y500560D01*
X-171864Y500456D01*
X-171904Y500350D01*
X-171941Y500243D01*
X-171974Y500135D01*
X-172004Y500025D01*
X-172029Y499915D01*
X-172051Y499804D01*
X-172068Y499692D01*
X-172082Y499579D01*
X-172092Y499466D01*
X-172098Y499353D01*
X-172100Y499240D01*
X-172099Y499240D02*
X-172099Y495995D01*
X-172099Y499889D02*
X-177292Y502486D01*
X-168529Y513842D02*
X-168422Y513840D01*
X-168316Y513834D01*
X-168210Y513824D01*
X-168104Y513811D01*
X-167998Y513793D01*
X-167894Y513772D01*
X-167790Y513747D01*
X-167687Y513718D01*
X-167586Y513686D01*
X-167486Y513649D01*
X-167387Y513609D01*
X-167289Y513566D01*
X-167193Y513519D01*
X-167099Y513468D01*
X-167007Y513414D01*
X-166917Y513357D01*
X-166829Y513297D01*
X-166744Y513233D01*
X-166661Y513166D01*
X-166580Y513096D01*
X-166502Y513024D01*
X-166426Y512948D01*
X-166354Y512870D01*
X-166284Y512789D01*
X-166217Y512706D01*
X-166153Y512621D01*
X-166093Y512533D01*
X-166036Y512443D01*
X-165982Y512351D01*
X-165931Y512257D01*
X-165884Y512161D01*
X-165841Y512063D01*
X-165801Y511964D01*
X-165764Y511864D01*
X-165732Y511763D01*
X-165703Y511660D01*
X-165678Y511556D01*
X-165657Y511452D01*
X-165639Y511346D01*
X-165626Y511240D01*
X-165616Y511134D01*
X-165610Y511028D01*
X-165608Y510921D01*
X-165610Y510800D01*
X-165616Y510679D01*
X-165626Y510559D01*
X-165639Y510438D01*
X-165657Y510319D01*
X-165678Y510199D01*
X-165703Y510081D01*
X-165732Y509964D01*
X-165765Y509847D01*
X-165801Y509732D01*
X-165842Y509618D01*
X-165885Y509505D01*
X-165933Y509393D01*
X-165984Y509284D01*
X-166039Y509176D01*
X-166097Y509069D01*
X-166158Y508965D01*
X-166223Y508863D01*
X-166291Y508763D01*
X-166362Y508665D01*
X-166436Y508569D01*
X-166513Y508476D01*
X-166594Y508386D01*
X-166677Y508298D01*
X-166763Y508213D01*
X-166852Y508130D01*
X-166943Y508051D01*
X-167037Y507974D01*
X-167133Y507901D01*
X-167231Y507831D01*
X-167332Y507764D01*
X-167435Y507700D01*
X-167540Y507640D01*
X-167647Y507582D01*
X-167755Y507529D01*
X-167865Y507479D01*
X-167977Y507433D01*
X-168090Y507390D01*
X-168205Y507351D01*
X-170801Y512868D02*
X-170723Y512947D01*
X-170643Y513023D01*
X-170560Y513096D01*
X-170474Y513166D01*
X-170387Y513233D01*
X-170296Y513297D01*
X-170204Y513357D01*
X-170110Y513415D01*
X-170013Y513469D01*
X-169915Y513519D01*
X-169815Y513566D01*
X-169714Y513610D01*
X-169611Y513650D01*
X-169506Y513686D01*
X-169401Y513718D01*
X-169294Y513747D01*
X-169187Y513772D01*
X-169078Y513794D01*
X-168969Y513811D01*
X-168860Y513825D01*
X-168750Y513834D01*
X-168639Y513840D01*
X-168529Y513842D01*
X-170801Y512868D02*
X-177292Y507351D01*
X-177292Y513842D01*
X-248158Y494792D02*
X-248158Y483108D01*
X-248158Y494792D02*
X-251404Y494792D01*
X-251517Y494790D01*
X-251630Y494784D01*
X-251743Y494774D01*
X-251856Y494760D01*
X-251968Y494743D01*
X-252079Y494721D01*
X-252189Y494696D01*
X-252299Y494666D01*
X-252407Y494633D01*
X-252514Y494596D01*
X-252620Y494556D01*
X-252724Y494511D01*
X-252827Y494463D01*
X-252928Y494412D01*
X-253027Y494357D01*
X-253124Y494299D01*
X-253219Y494237D01*
X-253312Y494172D01*
X-253402Y494104D01*
X-253490Y494033D01*
X-253576Y493958D01*
X-253659Y493881D01*
X-253739Y493801D01*
X-253816Y493718D01*
X-253891Y493632D01*
X-253962Y493544D01*
X-254030Y493454D01*
X-254095Y493361D01*
X-254157Y493266D01*
X-254215Y493169D01*
X-254270Y493070D01*
X-254321Y492969D01*
X-254369Y492866D01*
X-254414Y492762D01*
X-254454Y492656D01*
X-254491Y492549D01*
X-254524Y492441D01*
X-254554Y492331D01*
X-254579Y492221D01*
X-254601Y492110D01*
X-254618Y491998D01*
X-254632Y491885D01*
X-254642Y491772D01*
X-254648Y491659D01*
X-254650Y491546D01*
X-254648Y491433D01*
X-254642Y491320D01*
X-254632Y491207D01*
X-254618Y491094D01*
X-254601Y490982D01*
X-254579Y490871D01*
X-254554Y490761D01*
X-254524Y490651D01*
X-254491Y490543D01*
X-254454Y490436D01*
X-254414Y490330D01*
X-254369Y490226D01*
X-254321Y490123D01*
X-254270Y490022D01*
X-254215Y489923D01*
X-254157Y489826D01*
X-254095Y489731D01*
X-254030Y489638D01*
X-253962Y489548D01*
X-253891Y489460D01*
X-253816Y489374D01*
X-253739Y489291D01*
X-253659Y489211D01*
X-253576Y489134D01*
X-253490Y489059D01*
X-253402Y488988D01*
X-253312Y488920D01*
X-253219Y488855D01*
X-253124Y488793D01*
X-253027Y488735D01*
X-252928Y488680D01*
X-252827Y488629D01*
X-252724Y488581D01*
X-252620Y488536D01*
X-252514Y488496D01*
X-252407Y488459D01*
X-252299Y488426D01*
X-252189Y488396D01*
X-252079Y488371D01*
X-251968Y488349D01*
X-251856Y488332D01*
X-251743Y488318D01*
X-251630Y488308D01*
X-251517Y488302D01*
X-251404Y488300D01*
X-251404Y488301D02*
X-248158Y488301D01*
X-252053Y488301D02*
X-254649Y483108D01*
X-266005Y491871D02*
X-266003Y491978D01*
X-265997Y492084D01*
X-265987Y492190D01*
X-265974Y492296D01*
X-265956Y492402D01*
X-265935Y492506D01*
X-265910Y492610D01*
X-265881Y492713D01*
X-265849Y492814D01*
X-265812Y492914D01*
X-265772Y493013D01*
X-265729Y493111D01*
X-265682Y493207D01*
X-265631Y493301D01*
X-265577Y493393D01*
X-265520Y493483D01*
X-265460Y493571D01*
X-265396Y493656D01*
X-265329Y493739D01*
X-265259Y493820D01*
X-265187Y493898D01*
X-265111Y493974D01*
X-265033Y494046D01*
X-264952Y494116D01*
X-264869Y494183D01*
X-264784Y494247D01*
X-264696Y494307D01*
X-264606Y494364D01*
X-264514Y494418D01*
X-264420Y494469D01*
X-264324Y494516D01*
X-264226Y494559D01*
X-264127Y494599D01*
X-264027Y494636D01*
X-263926Y494668D01*
X-263823Y494697D01*
X-263719Y494722D01*
X-263615Y494743D01*
X-263509Y494761D01*
X-263403Y494774D01*
X-263297Y494784D01*
X-263191Y494790D01*
X-263084Y494792D01*
X-262963Y494790D01*
X-262842Y494784D01*
X-262722Y494774D01*
X-262601Y494761D01*
X-262482Y494743D01*
X-262362Y494722D01*
X-262244Y494697D01*
X-262127Y494668D01*
X-262010Y494635D01*
X-261895Y494599D01*
X-261781Y494558D01*
X-261668Y494515D01*
X-261556Y494467D01*
X-261447Y494416D01*
X-261339Y494361D01*
X-261232Y494303D01*
X-261128Y494242D01*
X-261026Y494177D01*
X-260926Y494109D01*
X-260828Y494038D01*
X-260732Y493964D01*
X-260639Y493887D01*
X-260549Y493806D01*
X-260461Y493723D01*
X-260376Y493637D01*
X-260293Y493548D01*
X-260214Y493457D01*
X-260137Y493363D01*
X-260064Y493267D01*
X-259994Y493169D01*
X-259927Y493068D01*
X-259863Y492965D01*
X-259803Y492860D01*
X-259746Y492753D01*
X-259692Y492645D01*
X-259642Y492535D01*
X-259596Y492423D01*
X-259553Y492310D01*
X-259514Y492195D01*
X-265032Y489599D02*
X-265111Y489676D01*
X-265187Y489757D01*
X-265260Y489840D01*
X-265330Y489925D01*
X-265397Y490013D01*
X-265461Y490103D01*
X-265521Y490195D01*
X-265578Y490290D01*
X-265632Y490386D01*
X-265683Y490484D01*
X-265730Y490584D01*
X-265774Y490686D01*
X-265814Y490789D01*
X-265850Y490893D01*
X-265882Y490999D01*
X-265911Y491105D01*
X-265936Y491213D01*
X-265958Y491321D01*
X-265975Y491431D01*
X-265989Y491540D01*
X-265998Y491650D01*
X-266004Y491761D01*
X-266006Y491871D01*
X-265032Y489599D02*
X-259514Y483108D01*
X-266005Y483108D01*
X-270945Y488950D02*
X-270948Y489180D01*
X-270956Y489410D01*
X-270970Y489639D01*
X-270989Y489868D01*
X-271014Y490097D01*
X-271044Y490324D01*
X-271079Y490552D01*
X-271120Y490778D01*
X-271166Y491003D01*
X-271218Y491227D01*
X-271275Y491449D01*
X-271337Y491671D01*
X-271405Y491890D01*
X-271478Y492108D01*
X-271556Y492325D01*
X-271639Y492539D01*
X-271727Y492751D01*
X-271820Y492961D01*
X-271919Y493169D01*
X-271918Y493169D02*
X-271951Y493259D01*
X-271987Y493348D01*
X-272027Y493436D01*
X-272071Y493521D01*
X-272118Y493605D01*
X-272168Y493687D01*
X-272222Y493767D01*
X-272278Y493844D01*
X-272338Y493920D01*
X-272401Y493993D01*
X-272466Y494063D01*
X-272535Y494131D01*
X-272606Y494195D01*
X-272679Y494257D01*
X-272755Y494316D01*
X-272833Y494372D01*
X-272914Y494425D01*
X-272996Y494474D01*
X-273080Y494520D01*
X-273167Y494563D01*
X-273254Y494602D01*
X-273344Y494638D01*
X-273434Y494670D01*
X-273526Y494698D01*
X-273619Y494723D01*
X-273713Y494744D01*
X-273807Y494761D01*
X-273902Y494775D01*
X-273998Y494784D01*
X-274094Y494790D01*
X-274190Y494792D01*
X-274286Y494790D01*
X-274382Y494784D01*
X-274478Y494775D01*
X-274573Y494761D01*
X-274667Y494744D01*
X-274761Y494723D01*
X-274854Y494698D01*
X-274946Y494670D01*
X-275036Y494638D01*
X-275126Y494602D01*
X-275213Y494563D01*
X-275300Y494520D01*
X-275384Y494474D01*
X-275466Y494425D01*
X-275547Y494372D01*
X-275625Y494316D01*
X-275701Y494257D01*
X-275774Y494195D01*
X-275845Y494131D01*
X-275914Y494063D01*
X-275979Y493993D01*
X-276042Y493920D01*
X-276102Y493844D01*
X-276158Y493767D01*
X-276212Y493687D01*
X-276262Y493605D01*
X-276309Y493521D01*
X-276353Y493436D01*
X-276393Y493348D01*
X-276429Y493259D01*
X-276462Y493169D01*
X-276561Y492962D01*
X-276654Y492752D01*
X-276742Y492539D01*
X-276825Y492325D01*
X-276903Y492109D01*
X-276976Y491891D01*
X-277044Y491671D01*
X-277106Y491450D01*
X-277163Y491227D01*
X-277215Y491003D01*
X-277261Y490778D01*
X-277302Y490552D01*
X-277337Y490325D01*
X-277367Y490097D01*
X-277392Y489868D01*
X-277411Y489639D01*
X-277425Y489410D01*
X-277433Y489180D01*
X-277436Y488950D01*
X-270944Y488950D02*
X-270947Y488720D01*
X-270955Y488490D01*
X-270969Y488261D01*
X-270988Y488032D01*
X-271013Y487803D01*
X-271043Y487575D01*
X-271078Y487348D01*
X-271119Y487122D01*
X-271165Y486897D01*
X-271217Y486673D01*
X-271274Y486450D01*
X-271336Y486229D01*
X-271404Y486009D01*
X-271477Y485791D01*
X-271555Y485575D01*
X-271638Y485361D01*
X-271726Y485149D01*
X-271819Y484938D01*
X-271918Y484731D01*
X-271951Y484641D01*
X-271987Y484552D01*
X-272028Y484464D01*
X-272071Y484379D01*
X-272118Y484295D01*
X-272168Y484213D01*
X-272222Y484133D01*
X-272278Y484056D01*
X-272338Y483980D01*
X-272401Y483907D01*
X-272466Y483837D01*
X-272535Y483769D01*
X-272606Y483705D01*
X-272679Y483643D01*
X-272755Y483584D01*
X-272833Y483528D01*
X-272914Y483475D01*
X-272996Y483426D01*
X-273080Y483380D01*
X-273167Y483337D01*
X-273254Y483298D01*
X-273344Y483262D01*
X-273434Y483230D01*
X-273526Y483202D01*
X-273619Y483177D01*
X-273713Y483156D01*
X-273807Y483139D01*
X-273902Y483125D01*
X-273998Y483116D01*
X-274094Y483110D01*
X-274190Y483108D01*
X-276462Y484731D02*
X-276561Y484938D01*
X-276654Y485149D01*
X-276742Y485361D01*
X-276825Y485575D01*
X-276903Y485791D01*
X-276976Y486009D01*
X-277044Y486229D01*
X-277106Y486450D01*
X-277163Y486673D01*
X-277215Y486897D01*
X-277261Y487122D01*
X-277302Y487348D01*
X-277337Y487575D01*
X-277367Y487803D01*
X-277392Y488032D01*
X-277411Y488261D01*
X-277425Y488490D01*
X-277433Y488720D01*
X-277436Y488950D01*
X-276462Y484731D02*
X-276429Y484641D01*
X-276393Y484552D01*
X-276353Y484464D01*
X-276309Y484379D01*
X-276262Y484295D01*
X-276212Y484213D01*
X-276158Y484133D01*
X-276102Y484056D01*
X-276042Y483980D01*
X-275979Y483907D01*
X-275914Y483837D01*
X-275845Y483769D01*
X-275774Y483705D01*
X-275701Y483643D01*
X-275625Y483584D01*
X-275547Y483528D01*
X-275466Y483475D01*
X-275384Y483426D01*
X-275300Y483380D01*
X-275213Y483337D01*
X-275126Y483298D01*
X-275036Y483262D01*
X-274946Y483230D01*
X-274854Y483202D01*
X-274761Y483177D01*
X-274667Y483156D01*
X-274573Y483139D01*
X-274478Y483125D01*
X-274382Y483116D01*
X-274286Y483110D01*
X-274190Y483108D01*
X-271593Y485704D02*
X-276786Y492196D01*
D12*
X-5122Y486636D02*
X1143Y486636D01*
X-1990Y483503D02*
X-1990Y489768D01*
D13*
X-5176Y509500D03*
X-17176Y509500D03*
D14*
X-11176Y509500D03*
D10*
X2032Y495808D02*
X13716Y495808D01*
X13716Y499054D01*
X13714Y499167D01*
X13708Y499280D01*
X13698Y499393D01*
X13684Y499506D01*
X13667Y499618D01*
X13645Y499729D01*
X13620Y499839D01*
X13590Y499949D01*
X13557Y500057D01*
X13520Y500164D01*
X13480Y500270D01*
X13435Y500374D01*
X13387Y500477D01*
X13336Y500578D01*
X13281Y500677D01*
X13223Y500774D01*
X13161Y500869D01*
X13096Y500962D01*
X13028Y501052D01*
X12957Y501140D01*
X12882Y501226D01*
X12805Y501309D01*
X12725Y501389D01*
X12642Y501466D01*
X12556Y501541D01*
X12468Y501612D01*
X12378Y501680D01*
X12285Y501745D01*
X12190Y501807D01*
X12093Y501865D01*
X11994Y501920D01*
X11893Y501971D01*
X11790Y502019D01*
X11686Y502064D01*
X11580Y502104D01*
X11473Y502141D01*
X11365Y502174D01*
X11255Y502204D01*
X11145Y502229D01*
X11034Y502251D01*
X10922Y502268D01*
X10809Y502282D01*
X10696Y502292D01*
X10583Y502298D01*
X10470Y502300D01*
X10357Y502298D01*
X10244Y502292D01*
X10131Y502282D01*
X10018Y502268D01*
X9906Y502251D01*
X9795Y502229D01*
X9685Y502204D01*
X9575Y502174D01*
X9467Y502141D01*
X9360Y502104D01*
X9254Y502064D01*
X9150Y502019D01*
X9047Y501971D01*
X8946Y501920D01*
X8847Y501865D01*
X8750Y501807D01*
X8655Y501745D01*
X8562Y501680D01*
X8472Y501612D01*
X8384Y501541D01*
X8298Y501466D01*
X8215Y501389D01*
X8135Y501309D01*
X8058Y501226D01*
X7983Y501140D01*
X7912Y501052D01*
X7844Y500962D01*
X7779Y500869D01*
X7717Y500774D01*
X7659Y500677D01*
X7604Y500578D01*
X7553Y500477D01*
X7505Y500374D01*
X7460Y500270D01*
X7420Y500164D01*
X7383Y500057D01*
X7350Y499949D01*
X7320Y499839D01*
X7295Y499729D01*
X7273Y499618D01*
X7256Y499506D01*
X7242Y499393D01*
X7232Y499280D01*
X7226Y499167D01*
X7224Y499054D01*
X7225Y499054D02*
X7225Y495808D01*
X7225Y499703D02*
X2032Y502299D01*
X2032Y506515D02*
X13716Y514305D01*
X13716Y506515D02*
X2032Y514305D01*
X10795Y525085D02*
X10902Y525083D01*
X11008Y525077D01*
X11114Y525067D01*
X11220Y525054D01*
X11326Y525036D01*
X11430Y525015D01*
X11534Y524990D01*
X11637Y524961D01*
X11738Y524929D01*
X11838Y524892D01*
X11937Y524852D01*
X12035Y524809D01*
X12131Y524762D01*
X12225Y524711D01*
X12317Y524657D01*
X12407Y524600D01*
X12495Y524540D01*
X12580Y524476D01*
X12663Y524409D01*
X12744Y524339D01*
X12822Y524267D01*
X12898Y524191D01*
X12970Y524113D01*
X13040Y524032D01*
X13107Y523949D01*
X13171Y523864D01*
X13231Y523776D01*
X13288Y523686D01*
X13342Y523594D01*
X13393Y523500D01*
X13440Y523404D01*
X13483Y523306D01*
X13523Y523207D01*
X13560Y523107D01*
X13592Y523006D01*
X13621Y522903D01*
X13646Y522799D01*
X13667Y522695D01*
X13685Y522589D01*
X13698Y522483D01*
X13708Y522377D01*
X13714Y522271D01*
X13716Y522164D01*
X13714Y522043D01*
X13708Y521922D01*
X13698Y521802D01*
X13685Y521681D01*
X13667Y521562D01*
X13646Y521442D01*
X13621Y521324D01*
X13592Y521207D01*
X13559Y521090D01*
X13523Y520975D01*
X13482Y520861D01*
X13439Y520748D01*
X13391Y520636D01*
X13340Y520527D01*
X13285Y520419D01*
X13227Y520312D01*
X13166Y520208D01*
X13101Y520106D01*
X13033Y520006D01*
X12962Y519908D01*
X12888Y519812D01*
X12811Y519719D01*
X12730Y519629D01*
X12647Y519541D01*
X12561Y519456D01*
X12472Y519373D01*
X12381Y519294D01*
X12287Y519217D01*
X12191Y519144D01*
X12093Y519074D01*
X11992Y519007D01*
X11889Y518943D01*
X11784Y518883D01*
X11677Y518826D01*
X11569Y518772D01*
X11459Y518722D01*
X11347Y518676D01*
X11234Y518633D01*
X11119Y518594D01*
X8523Y524112D02*
X8600Y524191D01*
X8681Y524267D01*
X8764Y524340D01*
X8849Y524410D01*
X8937Y524477D01*
X9027Y524541D01*
X9119Y524601D01*
X9214Y524658D01*
X9310Y524712D01*
X9408Y524763D01*
X9508Y524810D01*
X9610Y524854D01*
X9713Y524894D01*
X9817Y524930D01*
X9923Y524962D01*
X10029Y524991D01*
X10137Y525016D01*
X10245Y525038D01*
X10355Y525055D01*
X10464Y525069D01*
X10574Y525078D01*
X10685Y525084D01*
X10795Y525086D01*
X8523Y524112D02*
X2032Y518594D01*
X2032Y525085D01*
D12*
X-120354Y527276D02*
X-126619Y527276D01*
X-123486Y524143D02*
X-123486Y530408D01*
D13*
X-120300Y506500D03*
X-108300Y506500D03*
D14*
X-114300Y506500D03*
D10*
X-127508Y494848D02*
X-139192Y494848D01*
X-127508Y491603D02*
X-127508Y498094D01*
X-127508Y509411D02*
X-139192Y501622D01*
X-139192Y509411D02*
X-127508Y501622D01*
X-127508Y517271D02*
X-127510Y517378D01*
X-127516Y517484D01*
X-127526Y517590D01*
X-127539Y517696D01*
X-127557Y517802D01*
X-127578Y517906D01*
X-127603Y518010D01*
X-127632Y518113D01*
X-127664Y518214D01*
X-127701Y518314D01*
X-127741Y518413D01*
X-127784Y518511D01*
X-127831Y518607D01*
X-127882Y518701D01*
X-127936Y518793D01*
X-127993Y518883D01*
X-128053Y518971D01*
X-128117Y519056D01*
X-128184Y519139D01*
X-128254Y519220D01*
X-128326Y519298D01*
X-128402Y519374D01*
X-128480Y519446D01*
X-128561Y519516D01*
X-128644Y519583D01*
X-128729Y519647D01*
X-128817Y519707D01*
X-128907Y519764D01*
X-128999Y519818D01*
X-129093Y519869D01*
X-129189Y519916D01*
X-129287Y519959D01*
X-129386Y519999D01*
X-129486Y520036D01*
X-129587Y520068D01*
X-129690Y520097D01*
X-129794Y520122D01*
X-129898Y520143D01*
X-130004Y520161D01*
X-130110Y520174D01*
X-130216Y520184D01*
X-130322Y520190D01*
X-130429Y520192D01*
X-127508Y517271D02*
X-127510Y517150D01*
X-127516Y517029D01*
X-127526Y516909D01*
X-127539Y516788D01*
X-127557Y516669D01*
X-127578Y516549D01*
X-127603Y516431D01*
X-127632Y516314D01*
X-127665Y516197D01*
X-127701Y516082D01*
X-127742Y515968D01*
X-127785Y515855D01*
X-127833Y515743D01*
X-127884Y515634D01*
X-127939Y515526D01*
X-127997Y515419D01*
X-128058Y515315D01*
X-128123Y515213D01*
X-128191Y515113D01*
X-128262Y515015D01*
X-128336Y514919D01*
X-128413Y514826D01*
X-128494Y514736D01*
X-128577Y514648D01*
X-128663Y514563D01*
X-128752Y514480D01*
X-128843Y514401D01*
X-128937Y514324D01*
X-129033Y514251D01*
X-129131Y514181D01*
X-129232Y514114D01*
X-129335Y514050D01*
X-129440Y513990D01*
X-129547Y513932D01*
X-129655Y513879D01*
X-129765Y513829D01*
X-129877Y513783D01*
X-129990Y513740D01*
X-130105Y513701D01*
X-132701Y519218D02*
X-132623Y519297D01*
X-132543Y519373D01*
X-132460Y519446D01*
X-132374Y519516D01*
X-132287Y519583D01*
X-132196Y519647D01*
X-132104Y519707D01*
X-132010Y519765D01*
X-131913Y519819D01*
X-131815Y519869D01*
X-131715Y519916D01*
X-131614Y519960D01*
X-131511Y520000D01*
X-131406Y520036D01*
X-131301Y520068D01*
X-131194Y520097D01*
X-131087Y520122D01*
X-130978Y520144D01*
X-130869Y520161D01*
X-130760Y520175D01*
X-130650Y520184D01*
X-130539Y520190D01*
X-130429Y520192D01*
X-132701Y519218D02*
X-139192Y513701D01*
X-139192Y520192D01*
D15*
X-218694Y219202D02*
X-218694Y176022D01*
X-257810Y219202D02*
X-257808Y219324D01*
X-257802Y219446D01*
X-257792Y219568D01*
X-257779Y219689D01*
X-257761Y219810D01*
X-257740Y219930D01*
X-257714Y220050D01*
X-257685Y220168D01*
X-257653Y220286D01*
X-257616Y220403D01*
X-257576Y220518D01*
X-257532Y220632D01*
X-257484Y220744D01*
X-257433Y220855D01*
X-257378Y220964D01*
X-257320Y221072D01*
X-257258Y221177D01*
X-257193Y221280D01*
X-257125Y221382D01*
X-257053Y221481D01*
X-256979Y221577D01*
X-256901Y221672D01*
X-256820Y221763D01*
X-256737Y221853D01*
X-256651Y221939D01*
X-256561Y222022D01*
X-256470Y222103D01*
X-256375Y222181D01*
X-256279Y222255D01*
X-256180Y222327D01*
X-256078Y222395D01*
X-255975Y222460D01*
X-255870Y222522D01*
X-255762Y222580D01*
X-255653Y222635D01*
X-255542Y222686D01*
X-255430Y222734D01*
X-255316Y222778D01*
X-255201Y222818D01*
X-255084Y222855D01*
X-254966Y222887D01*
X-254848Y222916D01*
X-254728Y222942D01*
X-254608Y222963D01*
X-254487Y222981D01*
X-254366Y222994D01*
X-254244Y223004D01*
X-254122Y223010D01*
X-254000Y223012D01*
X-218694Y176022D02*
X-218696Y175900D01*
X-218702Y175778D01*
X-218712Y175656D01*
X-218725Y175535D01*
X-218743Y175414D01*
X-218764Y175294D01*
X-218790Y175174D01*
X-218819Y175056D01*
X-218851Y174938D01*
X-218888Y174821D01*
X-218928Y174706D01*
X-218972Y174592D01*
X-219020Y174480D01*
X-219071Y174369D01*
X-219126Y174260D01*
X-219184Y174152D01*
X-219246Y174047D01*
X-219311Y173944D01*
X-219379Y173842D01*
X-219451Y173743D01*
X-219525Y173647D01*
X-219603Y173552D01*
X-219684Y173461D01*
X-219767Y173371D01*
X-219853Y173285D01*
X-219943Y173202D01*
X-220034Y173121D01*
X-220129Y173043D01*
X-220225Y172969D01*
X-220324Y172897D01*
X-220426Y172829D01*
X-220529Y172764D01*
X-220634Y172702D01*
X-220742Y172644D01*
X-220851Y172589D01*
X-220962Y172538D01*
X-221074Y172490D01*
X-221188Y172446D01*
X-221303Y172406D01*
X-221420Y172369D01*
X-221538Y172337D01*
X-221656Y172308D01*
X-221776Y172282D01*
X-221896Y172261D01*
X-222017Y172243D01*
X-222138Y172230D01*
X-222260Y172220D01*
X-222382Y172214D01*
X-222504Y172212D01*
X-218694Y219202D02*
X-218696Y219324D01*
X-218702Y219446D01*
X-218712Y219568D01*
X-218725Y219689D01*
X-218743Y219810D01*
X-218764Y219930D01*
X-218790Y220050D01*
X-218819Y220168D01*
X-218851Y220286D01*
X-218888Y220403D01*
X-218928Y220518D01*
X-218972Y220632D01*
X-219020Y220744D01*
X-219071Y220855D01*
X-219126Y220964D01*
X-219184Y221072D01*
X-219246Y221177D01*
X-219311Y221280D01*
X-219379Y221382D01*
X-219451Y221481D01*
X-219525Y221577D01*
X-219603Y221672D01*
X-219684Y221763D01*
X-219767Y221853D01*
X-219853Y221939D01*
X-219943Y222022D01*
X-220034Y222103D01*
X-220129Y222181D01*
X-220225Y222255D01*
X-220324Y222327D01*
X-220426Y222395D01*
X-220529Y222460D01*
X-220634Y222522D01*
X-220742Y222580D01*
X-220851Y222635D01*
X-220962Y222686D01*
X-221074Y222734D01*
X-221188Y222778D01*
X-221303Y222818D01*
X-221420Y222855D01*
X-221538Y222887D01*
X-221656Y222916D01*
X-221776Y222942D01*
X-221896Y222963D01*
X-222017Y222981D01*
X-222138Y222994D01*
X-222260Y223004D01*
X-222382Y223010D01*
X-222504Y223012D01*
X-257810Y176022D02*
X-257808Y175900D01*
X-257802Y175778D01*
X-257792Y175656D01*
X-257779Y175535D01*
X-257761Y175414D01*
X-257740Y175294D01*
X-257714Y175174D01*
X-257685Y175056D01*
X-257653Y174938D01*
X-257616Y174821D01*
X-257576Y174706D01*
X-257532Y174592D01*
X-257484Y174480D01*
X-257433Y174369D01*
X-257378Y174260D01*
X-257320Y174152D01*
X-257258Y174047D01*
X-257193Y173944D01*
X-257125Y173842D01*
X-257053Y173743D01*
X-256979Y173647D01*
X-256901Y173552D01*
X-256820Y173461D01*
X-256737Y173371D01*
X-256651Y173285D01*
X-256561Y173202D01*
X-256470Y173121D01*
X-256375Y173043D01*
X-256279Y172969D01*
X-256180Y172897D01*
X-256078Y172829D01*
X-255975Y172764D01*
X-255870Y172702D01*
X-255762Y172644D01*
X-255653Y172589D01*
X-255542Y172538D01*
X-255430Y172490D01*
X-255316Y172446D01*
X-255201Y172406D01*
X-255084Y172369D01*
X-254966Y172337D01*
X-254848Y172308D01*
X-254728Y172282D01*
X-254608Y172261D01*
X-254487Y172243D01*
X-254366Y172230D01*
X-254244Y172220D01*
X-254122Y172214D01*
X-254000Y172212D01*
X-257810Y176022D02*
X-257810Y219202D01*
X-254000Y223012D02*
X-222504Y223012D01*
X-222504Y172212D02*
X-254000Y172212D01*
X-243332Y172212D02*
X-243330Y172353D01*
X-243324Y172494D01*
X-243314Y172635D01*
X-243301Y172776D01*
X-243283Y172916D01*
X-243261Y173055D01*
X-243236Y173194D01*
X-243207Y173333D01*
X-243174Y173470D01*
X-243137Y173606D01*
X-243096Y173741D01*
X-243052Y173876D01*
X-243004Y174008D01*
X-242952Y174140D01*
X-242897Y174270D01*
X-242838Y174398D01*
X-242775Y174525D01*
X-242709Y174649D01*
X-242640Y174772D01*
X-242567Y174893D01*
X-242491Y175012D01*
X-242411Y175129D01*
X-242328Y175243D01*
X-242243Y175356D01*
X-242154Y175465D01*
X-242062Y175573D01*
X-241967Y175677D01*
X-241869Y175779D01*
X-241768Y175878D01*
X-241665Y175975D01*
X-241559Y176068D01*
X-241451Y176158D01*
X-241340Y176246D01*
X-241227Y176330D01*
X-241111Y176411D01*
X-240993Y176489D01*
X-240873Y176564D01*
X-240751Y176635D01*
X-240627Y176703D01*
X-240501Y176767D01*
X-240374Y176828D01*
X-240245Y176885D01*
X-240114Y176938D01*
X-239982Y176988D01*
X-239849Y177035D01*
X-239714Y177077D01*
X-239578Y177116D01*
X-239441Y177151D01*
X-239304Y177182D01*
X-239165Y177209D01*
X-239026Y177233D01*
X-238886Y177252D01*
X-238746Y177268D01*
X-238605Y177280D01*
X-238464Y177288D01*
X-238323Y177292D01*
X-238181Y177292D01*
X-238040Y177288D01*
X-237899Y177280D01*
X-237758Y177268D01*
X-237618Y177252D01*
X-237478Y177233D01*
X-237339Y177209D01*
X-237200Y177182D01*
X-237063Y177151D01*
X-236926Y177116D01*
X-236790Y177077D01*
X-236655Y177035D01*
X-236522Y176988D01*
X-236390Y176938D01*
X-236259Y176885D01*
X-236130Y176828D01*
X-236003Y176767D01*
X-235877Y176703D01*
X-235753Y176635D01*
X-235631Y176564D01*
X-235511Y176489D01*
X-235393Y176411D01*
X-235277Y176330D01*
X-235164Y176246D01*
X-235053Y176158D01*
X-234945Y176068D01*
X-234839Y175975D01*
X-234736Y175878D01*
X-234635Y175779D01*
X-234537Y175677D01*
X-234442Y175573D01*
X-234350Y175465D01*
X-234261Y175356D01*
X-234176Y175243D01*
X-234093Y175129D01*
X-234013Y175012D01*
X-233937Y174893D01*
X-233864Y174772D01*
X-233795Y174649D01*
X-233729Y174525D01*
X-233666Y174398D01*
X-233607Y174270D01*
X-233552Y174140D01*
X-233500Y174008D01*
X-233452Y173876D01*
X-233408Y173741D01*
X-233367Y173606D01*
X-233330Y173470D01*
X-233297Y173333D01*
X-233268Y173194D01*
X-233243Y173055D01*
X-233221Y172916D01*
X-233203Y172776D01*
X-233190Y172635D01*
X-233180Y172494D01*
X-233174Y172353D01*
X-233172Y172212D01*
D16*
X-254254Y172212D02*
X-254254Y223012D01*
D11*
X-238506Y167767D02*
X-238506Y159512D01*
X-238508Y159401D01*
X-238514Y159291D01*
X-238523Y159180D01*
X-238537Y159070D01*
X-238554Y158961D01*
X-238575Y158852D01*
X-238600Y158744D01*
X-238629Y158637D01*
X-238661Y158531D01*
X-238697Y158426D01*
X-238737Y158323D01*
X-238780Y158221D01*
X-238827Y158120D01*
X-238878Y158021D01*
X-238931Y157924D01*
X-238988Y157830D01*
X-239049Y157737D01*
X-239112Y157646D01*
X-239179Y157557D01*
X-239249Y157471D01*
X-239322Y157388D01*
X-239397Y157306D01*
X-239475Y157228D01*
X-239557Y157153D01*
X-239640Y157080D01*
X-239726Y157010D01*
X-239815Y156943D01*
X-239906Y156880D01*
X-239999Y156819D01*
X-240094Y156762D01*
X-240190Y156709D01*
X-240289Y156658D01*
X-240390Y156611D01*
X-240492Y156568D01*
X-240595Y156528D01*
X-240700Y156492D01*
X-240806Y156460D01*
X-240913Y156431D01*
X-241021Y156406D01*
X-241130Y156385D01*
X-241239Y156368D01*
X-241349Y156354D01*
X-241460Y156345D01*
X-241570Y156339D01*
X-241681Y156337D01*
X-241792Y156339D01*
X-241902Y156345D01*
X-242013Y156354D01*
X-242123Y156368D01*
X-242232Y156385D01*
X-242341Y156406D01*
X-242449Y156431D01*
X-242556Y156460D01*
X-242662Y156492D01*
X-242767Y156528D01*
X-242870Y156568D01*
X-242972Y156611D01*
X-243073Y156658D01*
X-243172Y156709D01*
X-243269Y156762D01*
X-243363Y156819D01*
X-243456Y156880D01*
X-243547Y156943D01*
X-243636Y157010D01*
X-243722Y157080D01*
X-243805Y157153D01*
X-243887Y157228D01*
X-243965Y157306D01*
X-244040Y157388D01*
X-244113Y157471D01*
X-244183Y157557D01*
X-244250Y157646D01*
X-244313Y157737D01*
X-244374Y157830D01*
X-244431Y157925D01*
X-244484Y158021D01*
X-244535Y158120D01*
X-244582Y158221D01*
X-244625Y158323D01*
X-244665Y158426D01*
X-244701Y158531D01*
X-244733Y158637D01*
X-244762Y158744D01*
X-244787Y158852D01*
X-244808Y158961D01*
X-244825Y159070D01*
X-244839Y159180D01*
X-244848Y159291D01*
X-244854Y159401D01*
X-244856Y159512D01*
X-244856Y167767D01*
X-253810Y167768D02*
X-253914Y167766D01*
X-254019Y167760D01*
X-254123Y167751D01*
X-254226Y167738D01*
X-254329Y167720D01*
X-254431Y167700D01*
X-254533Y167675D01*
X-254633Y167647D01*
X-254733Y167615D01*
X-254831Y167579D01*
X-254928Y167540D01*
X-255023Y167498D01*
X-255117Y167452D01*
X-255209Y167402D01*
X-255299Y167350D01*
X-255387Y167294D01*
X-255473Y167234D01*
X-255557Y167172D01*
X-255638Y167107D01*
X-255717Y167039D01*
X-255794Y166967D01*
X-255867Y166894D01*
X-255939Y166817D01*
X-256007Y166738D01*
X-256072Y166657D01*
X-256134Y166573D01*
X-256194Y166487D01*
X-256250Y166399D01*
X-256302Y166309D01*
X-256352Y166217D01*
X-256398Y166123D01*
X-256440Y166028D01*
X-256479Y165931D01*
X-256515Y165833D01*
X-256547Y165733D01*
X-256575Y165633D01*
X-256600Y165531D01*
X-256620Y165429D01*
X-256638Y165326D01*
X-256651Y165223D01*
X-256660Y165119D01*
X-256666Y165014D01*
X-256668Y164910D01*
X-253810Y167767D02*
X-253692Y167765D01*
X-253573Y167759D01*
X-253455Y167750D01*
X-253338Y167737D01*
X-253221Y167719D01*
X-253104Y167699D01*
X-252988Y167674D01*
X-252873Y167646D01*
X-252760Y167613D01*
X-252647Y167578D01*
X-252535Y167538D01*
X-252425Y167496D01*
X-252316Y167449D01*
X-252208Y167399D01*
X-252103Y167346D01*
X-251999Y167289D01*
X-251897Y167229D01*
X-251797Y167166D01*
X-251699Y167099D01*
X-251603Y167030D01*
X-251510Y166957D01*
X-251419Y166881D01*
X-251330Y166803D01*
X-251244Y166721D01*
X-251161Y166637D01*
X-251080Y166551D01*
X-251003Y166461D01*
X-250928Y166370D01*
X-250856Y166276D01*
X-250787Y166179D01*
X-250722Y166081D01*
X-250659Y165980D01*
X-250600Y165877D01*
X-250544Y165773D01*
X-250492Y165667D01*
X-250443Y165559D01*
X-250398Y165450D01*
X-250356Y165339D01*
X-250318Y165227D01*
X-255715Y162688D02*
X-255791Y162763D01*
X-255866Y162842D01*
X-255937Y162923D01*
X-256006Y163007D01*
X-256071Y163093D01*
X-256133Y163181D01*
X-256193Y163271D01*
X-256249Y163363D01*
X-256302Y163458D01*
X-256351Y163554D01*
X-256397Y163652D01*
X-256440Y163751D01*
X-256479Y163852D01*
X-256514Y163954D01*
X-256546Y164057D01*
X-256574Y164161D01*
X-256599Y164266D01*
X-256620Y164373D01*
X-256637Y164479D01*
X-256650Y164586D01*
X-256659Y164694D01*
X-256665Y164802D01*
X-256667Y164910D01*
X-255715Y162687D02*
X-250317Y156337D01*
X-256667Y156337D01*
D10*
X236474Y160283D02*
X236474Y162880D01*
X236474Y160283D02*
X236476Y160184D01*
X236482Y160084D01*
X236491Y159985D01*
X236504Y159887D01*
X236521Y159789D01*
X236542Y159691D01*
X236567Y159595D01*
X236595Y159500D01*
X236627Y159406D01*
X236662Y159313D01*
X236701Y159221D01*
X236744Y159131D01*
X236789Y159043D01*
X236839Y158956D01*
X236891Y158872D01*
X236947Y158789D01*
X237005Y158709D01*
X237067Y158631D01*
X237132Y158556D01*
X237200Y158483D01*
X237270Y158413D01*
X237343Y158345D01*
X237418Y158280D01*
X237496Y158218D01*
X237576Y158160D01*
X237659Y158104D01*
X237743Y158052D01*
X237830Y158002D01*
X237918Y157957D01*
X238008Y157914D01*
X238100Y157875D01*
X238193Y157840D01*
X238287Y157808D01*
X238382Y157780D01*
X238478Y157755D01*
X238576Y157734D01*
X238674Y157717D01*
X238772Y157704D01*
X238871Y157695D01*
X238971Y157689D01*
X239070Y157687D01*
X245562Y157687D01*
X245661Y157689D01*
X245761Y157695D01*
X245860Y157704D01*
X245958Y157717D01*
X246056Y157734D01*
X246154Y157755D01*
X246250Y157780D01*
X246345Y157808D01*
X246439Y157840D01*
X246532Y157875D01*
X246624Y157914D01*
X246714Y157957D01*
X246802Y158002D01*
X246889Y158052D01*
X246973Y158104D01*
X247056Y158160D01*
X247136Y158218D01*
X247214Y158280D01*
X247289Y158345D01*
X247362Y158413D01*
X247432Y158483D01*
X247500Y158556D01*
X247565Y158631D01*
X247627Y158709D01*
X247685Y158789D01*
X247741Y158872D01*
X247793Y158956D01*
X247843Y159043D01*
X247888Y159131D01*
X247931Y159221D01*
X247970Y159313D01*
X248005Y159405D01*
X248037Y159500D01*
X248065Y159595D01*
X248090Y159691D01*
X248111Y159789D01*
X248128Y159887D01*
X248141Y159985D01*
X248150Y160084D01*
X248156Y160184D01*
X248158Y160283D01*
X248158Y162880D01*
X248158Y170815D02*
X248156Y170922D01*
X248150Y171028D01*
X248140Y171134D01*
X248127Y171240D01*
X248109Y171346D01*
X248088Y171450D01*
X248063Y171554D01*
X248034Y171657D01*
X248002Y171758D01*
X247965Y171858D01*
X247925Y171957D01*
X247882Y172055D01*
X247835Y172151D01*
X247784Y172245D01*
X247730Y172337D01*
X247673Y172427D01*
X247613Y172515D01*
X247549Y172600D01*
X247482Y172683D01*
X247412Y172764D01*
X247340Y172842D01*
X247264Y172918D01*
X247186Y172990D01*
X247105Y173060D01*
X247022Y173127D01*
X246937Y173191D01*
X246849Y173251D01*
X246759Y173308D01*
X246667Y173362D01*
X246573Y173413D01*
X246477Y173460D01*
X246379Y173503D01*
X246280Y173543D01*
X246180Y173580D01*
X246079Y173612D01*
X245976Y173641D01*
X245872Y173666D01*
X245768Y173687D01*
X245662Y173705D01*
X245556Y173718D01*
X245450Y173728D01*
X245344Y173734D01*
X245237Y173736D01*
X248158Y170815D02*
X248156Y170694D01*
X248150Y170573D01*
X248140Y170453D01*
X248127Y170332D01*
X248109Y170213D01*
X248088Y170093D01*
X248063Y169975D01*
X248034Y169858D01*
X248001Y169741D01*
X247965Y169626D01*
X247924Y169512D01*
X247881Y169399D01*
X247833Y169287D01*
X247782Y169178D01*
X247727Y169070D01*
X247669Y168963D01*
X247608Y168859D01*
X247543Y168757D01*
X247475Y168657D01*
X247404Y168559D01*
X247330Y168463D01*
X247253Y168370D01*
X247172Y168280D01*
X247089Y168192D01*
X247003Y168107D01*
X246914Y168024D01*
X246823Y167945D01*
X246729Y167868D01*
X246633Y167795D01*
X246535Y167725D01*
X246434Y167658D01*
X246331Y167594D01*
X246226Y167534D01*
X246119Y167477D01*
X246011Y167423D01*
X245901Y167373D01*
X245789Y167327D01*
X245676Y167284D01*
X245561Y167245D01*
X242965Y172763D02*
X243042Y172842D01*
X243123Y172918D01*
X243206Y172991D01*
X243291Y173061D01*
X243379Y173128D01*
X243469Y173192D01*
X243561Y173252D01*
X243656Y173309D01*
X243752Y173363D01*
X243850Y173414D01*
X243950Y173461D01*
X244052Y173505D01*
X244155Y173545D01*
X244259Y173581D01*
X244365Y173613D01*
X244471Y173642D01*
X244579Y173667D01*
X244687Y173689D01*
X244797Y173706D01*
X244906Y173720D01*
X245016Y173729D01*
X245127Y173735D01*
X245237Y173737D01*
X242965Y172762D02*
X236474Y167245D01*
X236474Y173736D01*
X246860Y178675D02*
X248158Y178675D01*
X248158Y185166D01*
X236474Y181920D01*
X141986Y94300D02*
X141986Y91703D01*
X141988Y91604D01*
X141994Y91504D01*
X142003Y91405D01*
X142016Y91307D01*
X142033Y91209D01*
X142054Y91111D01*
X142079Y91015D01*
X142107Y90920D01*
X142139Y90826D01*
X142174Y90733D01*
X142213Y90641D01*
X142256Y90551D01*
X142301Y90463D01*
X142351Y90376D01*
X142403Y90292D01*
X142459Y90209D01*
X142517Y90129D01*
X142579Y90051D01*
X142644Y89976D01*
X142712Y89903D01*
X142782Y89833D01*
X142855Y89765D01*
X142930Y89700D01*
X143008Y89638D01*
X143088Y89580D01*
X143171Y89524D01*
X143255Y89472D01*
X143342Y89422D01*
X143430Y89377D01*
X143520Y89334D01*
X143612Y89295D01*
X143705Y89260D01*
X143799Y89228D01*
X143894Y89200D01*
X143990Y89175D01*
X144088Y89154D01*
X144186Y89137D01*
X144284Y89124D01*
X144383Y89115D01*
X144483Y89109D01*
X144582Y89107D01*
X151074Y89107D01*
X151173Y89109D01*
X151273Y89115D01*
X151372Y89124D01*
X151470Y89137D01*
X151568Y89154D01*
X151666Y89175D01*
X151762Y89200D01*
X151857Y89228D01*
X151951Y89260D01*
X152044Y89295D01*
X152136Y89334D01*
X152226Y89377D01*
X152314Y89422D01*
X152401Y89472D01*
X152485Y89524D01*
X152568Y89580D01*
X152648Y89638D01*
X152726Y89700D01*
X152801Y89765D01*
X152874Y89833D01*
X152944Y89903D01*
X153012Y89976D01*
X153077Y90051D01*
X153139Y90129D01*
X153197Y90209D01*
X153253Y90292D01*
X153305Y90376D01*
X153355Y90463D01*
X153400Y90551D01*
X153443Y90641D01*
X153482Y90733D01*
X153517Y90825D01*
X153549Y90920D01*
X153577Y91015D01*
X153602Y91111D01*
X153623Y91209D01*
X153640Y91307D01*
X153653Y91405D01*
X153662Y91504D01*
X153668Y91604D01*
X153670Y91703D01*
X153670Y94300D01*
X153670Y102235D02*
X153668Y102342D01*
X153662Y102448D01*
X153652Y102554D01*
X153639Y102660D01*
X153621Y102766D01*
X153600Y102870D01*
X153575Y102974D01*
X153546Y103077D01*
X153514Y103178D01*
X153477Y103278D01*
X153437Y103377D01*
X153394Y103475D01*
X153347Y103571D01*
X153296Y103665D01*
X153242Y103757D01*
X153185Y103847D01*
X153125Y103935D01*
X153061Y104020D01*
X152994Y104103D01*
X152924Y104184D01*
X152852Y104262D01*
X152776Y104338D01*
X152698Y104410D01*
X152617Y104480D01*
X152534Y104547D01*
X152449Y104611D01*
X152361Y104671D01*
X152271Y104728D01*
X152179Y104782D01*
X152085Y104833D01*
X151989Y104880D01*
X151891Y104923D01*
X151792Y104963D01*
X151692Y105000D01*
X151591Y105032D01*
X151488Y105061D01*
X151384Y105086D01*
X151280Y105107D01*
X151174Y105125D01*
X151068Y105138D01*
X150962Y105148D01*
X150856Y105154D01*
X150749Y105156D01*
X153670Y102235D02*
X153668Y102114D01*
X153662Y101993D01*
X153652Y101873D01*
X153639Y101752D01*
X153621Y101633D01*
X153600Y101513D01*
X153575Y101395D01*
X153546Y101278D01*
X153513Y101161D01*
X153477Y101046D01*
X153436Y100932D01*
X153393Y100819D01*
X153345Y100707D01*
X153294Y100598D01*
X153239Y100490D01*
X153181Y100383D01*
X153120Y100279D01*
X153055Y100177D01*
X152987Y100077D01*
X152916Y99979D01*
X152842Y99883D01*
X152765Y99790D01*
X152684Y99700D01*
X152601Y99612D01*
X152515Y99527D01*
X152426Y99444D01*
X152335Y99365D01*
X152241Y99288D01*
X152145Y99215D01*
X152047Y99145D01*
X151946Y99078D01*
X151843Y99014D01*
X151738Y98954D01*
X151631Y98897D01*
X151523Y98843D01*
X151413Y98793D01*
X151301Y98747D01*
X151188Y98704D01*
X151073Y98665D01*
X148477Y104183D02*
X148554Y104262D01*
X148635Y104338D01*
X148718Y104411D01*
X148803Y104481D01*
X148891Y104548D01*
X148981Y104612D01*
X149073Y104672D01*
X149168Y104729D01*
X149264Y104783D01*
X149362Y104834D01*
X149462Y104881D01*
X149564Y104925D01*
X149667Y104965D01*
X149771Y105001D01*
X149877Y105033D01*
X149983Y105062D01*
X150091Y105087D01*
X150199Y105109D01*
X150309Y105126D01*
X150418Y105140D01*
X150528Y105149D01*
X150639Y105155D01*
X150749Y105157D01*
X148477Y104182D02*
X141986Y98665D01*
X141986Y105156D01*
X145232Y110094D02*
X145345Y110096D01*
X145458Y110102D01*
X145571Y110112D01*
X145684Y110126D01*
X145796Y110143D01*
X145907Y110165D01*
X146017Y110190D01*
X146127Y110220D01*
X146235Y110253D01*
X146342Y110290D01*
X146448Y110330D01*
X146552Y110375D01*
X146655Y110423D01*
X146756Y110474D01*
X146855Y110529D01*
X146952Y110587D01*
X147047Y110649D01*
X147140Y110714D01*
X147230Y110782D01*
X147318Y110853D01*
X147404Y110928D01*
X147487Y111005D01*
X147567Y111085D01*
X147644Y111168D01*
X147719Y111254D01*
X147790Y111342D01*
X147858Y111432D01*
X147923Y111525D01*
X147985Y111620D01*
X148043Y111717D01*
X148098Y111816D01*
X148149Y111917D01*
X148197Y112020D01*
X148242Y112124D01*
X148282Y112230D01*
X148319Y112337D01*
X148352Y112445D01*
X148382Y112555D01*
X148407Y112665D01*
X148429Y112776D01*
X148446Y112888D01*
X148460Y113001D01*
X148470Y113114D01*
X148476Y113227D01*
X148478Y113340D01*
X148476Y113453D01*
X148470Y113566D01*
X148460Y113679D01*
X148446Y113792D01*
X148429Y113904D01*
X148407Y114015D01*
X148382Y114125D01*
X148352Y114235D01*
X148319Y114343D01*
X148282Y114450D01*
X148242Y114556D01*
X148197Y114660D01*
X148149Y114763D01*
X148098Y114864D01*
X148043Y114963D01*
X147985Y115060D01*
X147923Y115155D01*
X147858Y115248D01*
X147790Y115338D01*
X147719Y115426D01*
X147644Y115512D01*
X147567Y115595D01*
X147487Y115675D01*
X147404Y115752D01*
X147318Y115827D01*
X147230Y115898D01*
X147140Y115966D01*
X147047Y116031D01*
X146952Y116093D01*
X146855Y116151D01*
X146756Y116206D01*
X146655Y116257D01*
X146552Y116305D01*
X146448Y116350D01*
X146342Y116390D01*
X146235Y116427D01*
X146127Y116460D01*
X146017Y116490D01*
X145907Y116515D01*
X145796Y116537D01*
X145684Y116554D01*
X145571Y116568D01*
X145458Y116578D01*
X145345Y116584D01*
X145232Y116586D01*
X145119Y116584D01*
X145006Y116578D01*
X144893Y116568D01*
X144780Y116554D01*
X144668Y116537D01*
X144557Y116515D01*
X144447Y116490D01*
X144337Y116460D01*
X144229Y116427D01*
X144122Y116390D01*
X144016Y116350D01*
X143912Y116305D01*
X143809Y116257D01*
X143708Y116206D01*
X143609Y116151D01*
X143512Y116093D01*
X143417Y116031D01*
X143324Y115966D01*
X143234Y115898D01*
X143146Y115827D01*
X143060Y115752D01*
X142977Y115675D01*
X142897Y115595D01*
X142820Y115512D01*
X142745Y115426D01*
X142674Y115338D01*
X142606Y115248D01*
X142541Y115155D01*
X142479Y115060D01*
X142421Y114963D01*
X142366Y114864D01*
X142315Y114763D01*
X142267Y114660D01*
X142222Y114556D01*
X142182Y114450D01*
X142145Y114343D01*
X142112Y114235D01*
X142082Y114125D01*
X142057Y114015D01*
X142035Y113904D01*
X142018Y113792D01*
X142004Y113679D01*
X141994Y113566D01*
X141988Y113453D01*
X141986Y113340D01*
X141988Y113227D01*
X141994Y113114D01*
X142004Y113001D01*
X142018Y112888D01*
X142035Y112776D01*
X142057Y112665D01*
X142082Y112555D01*
X142112Y112445D01*
X142145Y112337D01*
X142182Y112230D01*
X142222Y112124D01*
X142267Y112020D01*
X142315Y111917D01*
X142366Y111816D01*
X142421Y111717D01*
X142479Y111620D01*
X142541Y111525D01*
X142606Y111432D01*
X142674Y111342D01*
X142745Y111254D01*
X142820Y111168D01*
X142897Y111085D01*
X142977Y111005D01*
X143060Y110928D01*
X143146Y110853D01*
X143234Y110782D01*
X143324Y110714D01*
X143417Y110649D01*
X143512Y110587D01*
X143609Y110529D01*
X143708Y110474D01*
X143809Y110423D01*
X143912Y110375D01*
X144016Y110330D01*
X144122Y110290D01*
X144229Y110253D01*
X144337Y110220D01*
X144447Y110190D01*
X144557Y110165D01*
X144668Y110143D01*
X144780Y110126D01*
X144893Y110112D01*
X145006Y110102D01*
X145119Y110096D01*
X145232Y110094D01*
X151074Y110744D02*
X151175Y110746D01*
X151275Y110752D01*
X151375Y110762D01*
X151475Y110775D01*
X151574Y110793D01*
X151673Y110814D01*
X151770Y110839D01*
X151867Y110868D01*
X151962Y110901D01*
X152056Y110937D01*
X152148Y110977D01*
X152239Y111020D01*
X152328Y111067D01*
X152415Y111117D01*
X152501Y111171D01*
X152584Y111228D01*
X152664Y111288D01*
X152743Y111351D01*
X152819Y111418D01*
X152892Y111487D01*
X152962Y111559D01*
X153030Y111633D01*
X153095Y111710D01*
X153156Y111790D01*
X153215Y111872D01*
X153270Y111956D01*
X153322Y112042D01*
X153371Y112130D01*
X153416Y112220D01*
X153458Y112312D01*
X153496Y112405D01*
X153530Y112500D01*
X153561Y112595D01*
X153588Y112692D01*
X153611Y112790D01*
X153631Y112889D01*
X153646Y112989D01*
X153658Y113089D01*
X153666Y113189D01*
X153670Y113290D01*
X153670Y113390D01*
X153666Y113491D01*
X153658Y113591D01*
X153646Y113691D01*
X153631Y113791D01*
X153611Y113890D01*
X153588Y113988D01*
X153561Y114085D01*
X153530Y114180D01*
X153496Y114275D01*
X153458Y114368D01*
X153416Y114460D01*
X153371Y114550D01*
X153322Y114638D01*
X153270Y114724D01*
X153215Y114808D01*
X153156Y114890D01*
X153095Y114970D01*
X153030Y115047D01*
X152962Y115121D01*
X152892Y115193D01*
X152819Y115262D01*
X152743Y115329D01*
X152664Y115392D01*
X152584Y115452D01*
X152501Y115509D01*
X152415Y115563D01*
X152328Y115613D01*
X152239Y115660D01*
X152148Y115703D01*
X152056Y115743D01*
X151962Y115779D01*
X151867Y115812D01*
X151770Y115841D01*
X151673Y115866D01*
X151574Y115887D01*
X151475Y115905D01*
X151375Y115918D01*
X151275Y115928D01*
X151175Y115934D01*
X151074Y115936D01*
X150973Y115934D01*
X150873Y115928D01*
X150773Y115918D01*
X150673Y115905D01*
X150574Y115887D01*
X150475Y115866D01*
X150378Y115841D01*
X150281Y115812D01*
X150186Y115779D01*
X150092Y115743D01*
X150000Y115703D01*
X149909Y115660D01*
X149820Y115613D01*
X149733Y115563D01*
X149647Y115509D01*
X149564Y115452D01*
X149484Y115392D01*
X149405Y115329D01*
X149329Y115262D01*
X149256Y115193D01*
X149186Y115121D01*
X149118Y115047D01*
X149053Y114970D01*
X148992Y114890D01*
X148933Y114808D01*
X148878Y114724D01*
X148826Y114638D01*
X148777Y114550D01*
X148732Y114460D01*
X148690Y114368D01*
X148652Y114275D01*
X148618Y114180D01*
X148587Y114085D01*
X148560Y113988D01*
X148537Y113890D01*
X148517Y113791D01*
X148502Y113691D01*
X148490Y113591D01*
X148482Y113491D01*
X148478Y113390D01*
X148478Y113290D01*
X148482Y113189D01*
X148490Y113089D01*
X148502Y112989D01*
X148517Y112889D01*
X148537Y112790D01*
X148560Y112692D01*
X148587Y112595D01*
X148618Y112500D01*
X148652Y112405D01*
X148690Y112312D01*
X148732Y112220D01*
X148777Y112130D01*
X148826Y112042D01*
X148878Y111956D01*
X148933Y111872D01*
X148992Y111790D01*
X149053Y111710D01*
X149118Y111633D01*
X149186Y111559D01*
X149256Y111487D01*
X149329Y111418D01*
X149405Y111351D01*
X149484Y111288D01*
X149564Y111228D01*
X149647Y111171D01*
X149733Y111117D01*
X149820Y111067D01*
X149909Y111020D01*
X150000Y110977D01*
X150092Y110937D01*
X150186Y110901D01*
X150281Y110868D01*
X150378Y110839D01*
X150475Y110814D01*
X150574Y110793D01*
X150673Y110775D01*
X150773Y110762D01*
X150873Y110752D01*
X150973Y110746D01*
X151074Y110744D01*
X232918Y95824D02*
X232918Y93227D01*
X232920Y93128D01*
X232926Y93028D01*
X232935Y92929D01*
X232948Y92831D01*
X232965Y92733D01*
X232986Y92635D01*
X233011Y92539D01*
X233039Y92444D01*
X233071Y92350D01*
X233106Y92257D01*
X233145Y92165D01*
X233188Y92075D01*
X233233Y91987D01*
X233283Y91900D01*
X233335Y91816D01*
X233391Y91733D01*
X233449Y91653D01*
X233511Y91575D01*
X233576Y91500D01*
X233644Y91427D01*
X233714Y91357D01*
X233787Y91289D01*
X233862Y91224D01*
X233940Y91162D01*
X234020Y91104D01*
X234103Y91048D01*
X234187Y90996D01*
X234274Y90946D01*
X234362Y90901D01*
X234452Y90858D01*
X234544Y90819D01*
X234637Y90784D01*
X234731Y90752D01*
X234826Y90724D01*
X234922Y90699D01*
X235020Y90678D01*
X235118Y90661D01*
X235216Y90648D01*
X235315Y90639D01*
X235415Y90633D01*
X235514Y90631D01*
X242006Y90631D01*
X242105Y90633D01*
X242205Y90639D01*
X242304Y90648D01*
X242402Y90661D01*
X242500Y90678D01*
X242598Y90699D01*
X242694Y90724D01*
X242789Y90752D01*
X242883Y90784D01*
X242976Y90819D01*
X243068Y90858D01*
X243158Y90901D01*
X243246Y90946D01*
X243333Y90996D01*
X243417Y91048D01*
X243500Y91104D01*
X243580Y91162D01*
X243658Y91224D01*
X243733Y91289D01*
X243806Y91357D01*
X243876Y91427D01*
X243944Y91500D01*
X244009Y91575D01*
X244071Y91653D01*
X244129Y91733D01*
X244185Y91816D01*
X244237Y91900D01*
X244287Y91987D01*
X244332Y92075D01*
X244375Y92165D01*
X244414Y92257D01*
X244449Y92349D01*
X244481Y92444D01*
X244509Y92539D01*
X244534Y92635D01*
X244555Y92733D01*
X244572Y92831D01*
X244585Y92929D01*
X244594Y93028D01*
X244600Y93128D01*
X244602Y93227D01*
X244602Y95824D01*
X244602Y103759D02*
X244600Y103866D01*
X244594Y103972D01*
X244584Y104078D01*
X244571Y104184D01*
X244553Y104290D01*
X244532Y104394D01*
X244507Y104498D01*
X244478Y104601D01*
X244446Y104702D01*
X244409Y104802D01*
X244369Y104901D01*
X244326Y104999D01*
X244279Y105095D01*
X244228Y105189D01*
X244174Y105281D01*
X244117Y105371D01*
X244057Y105459D01*
X243993Y105544D01*
X243926Y105627D01*
X243856Y105708D01*
X243784Y105786D01*
X243708Y105862D01*
X243630Y105934D01*
X243549Y106004D01*
X243466Y106071D01*
X243381Y106135D01*
X243293Y106195D01*
X243203Y106252D01*
X243111Y106306D01*
X243017Y106357D01*
X242921Y106404D01*
X242823Y106447D01*
X242724Y106487D01*
X242624Y106524D01*
X242523Y106556D01*
X242420Y106585D01*
X242316Y106610D01*
X242212Y106631D01*
X242106Y106649D01*
X242000Y106662D01*
X241894Y106672D01*
X241788Y106678D01*
X241681Y106680D01*
X244602Y103759D02*
X244600Y103638D01*
X244594Y103517D01*
X244584Y103397D01*
X244571Y103276D01*
X244553Y103157D01*
X244532Y103037D01*
X244507Y102919D01*
X244478Y102802D01*
X244445Y102685D01*
X244409Y102570D01*
X244368Y102456D01*
X244325Y102343D01*
X244277Y102231D01*
X244226Y102122D01*
X244171Y102014D01*
X244113Y101907D01*
X244052Y101803D01*
X243987Y101701D01*
X243919Y101601D01*
X243848Y101503D01*
X243774Y101407D01*
X243697Y101314D01*
X243616Y101224D01*
X243533Y101136D01*
X243447Y101051D01*
X243358Y100968D01*
X243267Y100889D01*
X243173Y100812D01*
X243077Y100739D01*
X242979Y100669D01*
X242878Y100602D01*
X242775Y100538D01*
X242670Y100478D01*
X242563Y100421D01*
X242455Y100367D01*
X242345Y100317D01*
X242233Y100271D01*
X242120Y100228D01*
X242005Y100189D01*
X239409Y105707D02*
X239486Y105786D01*
X239567Y105862D01*
X239650Y105935D01*
X239735Y106005D01*
X239823Y106072D01*
X239913Y106136D01*
X240005Y106196D01*
X240100Y106253D01*
X240196Y106307D01*
X240294Y106358D01*
X240394Y106405D01*
X240496Y106449D01*
X240599Y106489D01*
X240703Y106525D01*
X240809Y106557D01*
X240915Y106586D01*
X241023Y106611D01*
X241131Y106633D01*
X241241Y106650D01*
X241350Y106664D01*
X241460Y106673D01*
X241571Y106679D01*
X241681Y106681D01*
X239409Y105706D02*
X232918Y100189D01*
X232918Y106680D01*
X238111Y114215D02*
X238111Y118110D01*
X238111Y114215D02*
X238113Y114116D01*
X238119Y114016D01*
X238128Y113917D01*
X238141Y113819D01*
X238158Y113721D01*
X238179Y113623D01*
X238204Y113527D01*
X238232Y113432D01*
X238264Y113338D01*
X238299Y113245D01*
X238338Y113153D01*
X238381Y113063D01*
X238426Y112975D01*
X238476Y112888D01*
X238528Y112804D01*
X238584Y112721D01*
X238642Y112641D01*
X238704Y112563D01*
X238769Y112488D01*
X238837Y112415D01*
X238907Y112345D01*
X238980Y112277D01*
X239055Y112212D01*
X239133Y112150D01*
X239213Y112092D01*
X239296Y112036D01*
X239380Y111984D01*
X239467Y111934D01*
X239555Y111889D01*
X239645Y111846D01*
X239737Y111807D01*
X239830Y111772D01*
X239924Y111740D01*
X240019Y111712D01*
X240115Y111687D01*
X240213Y111666D01*
X240311Y111649D01*
X240409Y111636D01*
X240508Y111627D01*
X240608Y111621D01*
X240707Y111619D01*
X241356Y111619D01*
X241356Y111618D02*
X241469Y111620D01*
X241582Y111626D01*
X241695Y111636D01*
X241808Y111650D01*
X241920Y111667D01*
X242031Y111689D01*
X242141Y111714D01*
X242251Y111744D01*
X242359Y111777D01*
X242466Y111814D01*
X242572Y111854D01*
X242676Y111899D01*
X242779Y111947D01*
X242880Y111998D01*
X242979Y112053D01*
X243076Y112111D01*
X243171Y112173D01*
X243264Y112238D01*
X243354Y112306D01*
X243442Y112377D01*
X243528Y112452D01*
X243611Y112529D01*
X243691Y112609D01*
X243768Y112692D01*
X243843Y112778D01*
X243914Y112866D01*
X243982Y112956D01*
X244047Y113049D01*
X244109Y113144D01*
X244167Y113241D01*
X244222Y113340D01*
X244273Y113441D01*
X244321Y113544D01*
X244366Y113648D01*
X244406Y113754D01*
X244443Y113861D01*
X244476Y113969D01*
X244506Y114079D01*
X244531Y114189D01*
X244553Y114300D01*
X244570Y114412D01*
X244584Y114525D01*
X244594Y114638D01*
X244600Y114751D01*
X244602Y114864D01*
X244600Y114977D01*
X244594Y115090D01*
X244584Y115203D01*
X244570Y115316D01*
X244553Y115428D01*
X244531Y115539D01*
X244506Y115649D01*
X244476Y115759D01*
X244443Y115867D01*
X244406Y115974D01*
X244366Y116080D01*
X244321Y116184D01*
X244273Y116287D01*
X244222Y116388D01*
X244167Y116487D01*
X244109Y116584D01*
X244047Y116679D01*
X243982Y116772D01*
X243914Y116862D01*
X243843Y116950D01*
X243768Y117036D01*
X243691Y117119D01*
X243611Y117199D01*
X243528Y117276D01*
X243442Y117351D01*
X243354Y117422D01*
X243264Y117490D01*
X243171Y117555D01*
X243076Y117617D01*
X242979Y117675D01*
X242880Y117730D01*
X242779Y117781D01*
X242676Y117829D01*
X242572Y117874D01*
X242466Y117914D01*
X242359Y117951D01*
X242251Y117984D01*
X242141Y118014D01*
X242031Y118039D01*
X241920Y118061D01*
X241808Y118078D01*
X241695Y118092D01*
X241582Y118102D01*
X241469Y118108D01*
X241356Y118110D01*
X238111Y118110D01*
X237968Y118108D01*
X237825Y118102D01*
X237682Y118092D01*
X237540Y118078D01*
X237398Y118061D01*
X237256Y118039D01*
X237115Y118014D01*
X236975Y117984D01*
X236836Y117951D01*
X236698Y117914D01*
X236561Y117873D01*
X236425Y117829D01*
X236290Y117780D01*
X236157Y117728D01*
X236025Y117673D01*
X235895Y117613D01*
X235766Y117550D01*
X235639Y117484D01*
X235515Y117414D01*
X235392Y117341D01*
X235271Y117264D01*
X235152Y117184D01*
X235036Y117101D01*
X234921Y117015D01*
X234810Y116926D01*
X234700Y116833D01*
X234594Y116738D01*
X234490Y116639D01*
X234389Y116538D01*
X234290Y116434D01*
X234195Y116328D01*
X234102Y116218D01*
X234013Y116107D01*
X233927Y115992D01*
X233844Y115876D01*
X233764Y115757D01*
X233687Y115636D01*
X233614Y115514D01*
X233544Y115389D01*
X233478Y115262D01*
X233415Y115133D01*
X233355Y115003D01*
X233300Y114871D01*
X233248Y114738D01*
X233199Y114603D01*
X233155Y114467D01*
X233114Y114330D01*
X233077Y114192D01*
X233044Y114053D01*
X233014Y113913D01*
X232989Y113772D01*
X232967Y113630D01*
X232950Y113488D01*
X232936Y113346D01*
X232926Y113203D01*
X232920Y113060D01*
X232918Y112917D01*
X153162Y158759D02*
X153162Y161356D01*
X153162Y158759D02*
X153164Y158660D01*
X153170Y158560D01*
X153179Y158461D01*
X153192Y158363D01*
X153209Y158265D01*
X153230Y158167D01*
X153255Y158071D01*
X153283Y157976D01*
X153315Y157882D01*
X153350Y157789D01*
X153389Y157697D01*
X153432Y157607D01*
X153477Y157519D01*
X153527Y157432D01*
X153579Y157348D01*
X153635Y157265D01*
X153693Y157185D01*
X153755Y157107D01*
X153820Y157032D01*
X153888Y156959D01*
X153958Y156889D01*
X154031Y156821D01*
X154106Y156756D01*
X154184Y156694D01*
X154264Y156636D01*
X154347Y156580D01*
X154431Y156528D01*
X154518Y156478D01*
X154606Y156433D01*
X154696Y156390D01*
X154788Y156351D01*
X154881Y156316D01*
X154975Y156284D01*
X155070Y156256D01*
X155166Y156231D01*
X155264Y156210D01*
X155362Y156193D01*
X155460Y156180D01*
X155559Y156171D01*
X155659Y156165D01*
X155758Y156163D01*
X162250Y156163D01*
X162349Y156165D01*
X162449Y156171D01*
X162548Y156180D01*
X162646Y156193D01*
X162744Y156210D01*
X162842Y156231D01*
X162938Y156256D01*
X163033Y156284D01*
X163127Y156316D01*
X163220Y156351D01*
X163312Y156390D01*
X163402Y156433D01*
X163490Y156478D01*
X163577Y156528D01*
X163661Y156580D01*
X163744Y156636D01*
X163824Y156694D01*
X163902Y156756D01*
X163977Y156821D01*
X164050Y156889D01*
X164120Y156959D01*
X164188Y157032D01*
X164253Y157107D01*
X164315Y157185D01*
X164373Y157265D01*
X164429Y157348D01*
X164481Y157432D01*
X164531Y157519D01*
X164576Y157607D01*
X164619Y157697D01*
X164658Y157789D01*
X164693Y157881D01*
X164725Y157976D01*
X164753Y158071D01*
X164778Y158167D01*
X164799Y158265D01*
X164816Y158363D01*
X164829Y158461D01*
X164838Y158560D01*
X164844Y158660D01*
X164846Y158759D01*
X164846Y161356D01*
X153162Y165721D02*
X153162Y168966D01*
X153164Y169079D01*
X153170Y169192D01*
X153180Y169305D01*
X153194Y169418D01*
X153211Y169530D01*
X153233Y169641D01*
X153258Y169751D01*
X153288Y169861D01*
X153321Y169969D01*
X153358Y170076D01*
X153398Y170182D01*
X153443Y170286D01*
X153491Y170389D01*
X153542Y170490D01*
X153597Y170589D01*
X153655Y170686D01*
X153717Y170781D01*
X153782Y170874D01*
X153850Y170964D01*
X153921Y171052D01*
X153996Y171138D01*
X154073Y171221D01*
X154153Y171301D01*
X154236Y171378D01*
X154322Y171453D01*
X154410Y171524D01*
X154500Y171592D01*
X154593Y171657D01*
X154688Y171719D01*
X154785Y171777D01*
X154884Y171832D01*
X154985Y171883D01*
X155088Y171931D01*
X155192Y171976D01*
X155298Y172016D01*
X155405Y172053D01*
X155513Y172086D01*
X155623Y172116D01*
X155733Y172141D01*
X155844Y172163D01*
X155956Y172180D01*
X156069Y172194D01*
X156182Y172204D01*
X156295Y172210D01*
X156408Y172212D01*
X156521Y172210D01*
X156634Y172204D01*
X156747Y172194D01*
X156860Y172180D01*
X156972Y172163D01*
X157083Y172141D01*
X157193Y172116D01*
X157303Y172086D01*
X157411Y172053D01*
X157518Y172016D01*
X157624Y171976D01*
X157728Y171931D01*
X157831Y171883D01*
X157932Y171832D01*
X158031Y171777D01*
X158128Y171719D01*
X158223Y171657D01*
X158316Y171592D01*
X158406Y171524D01*
X158494Y171453D01*
X158580Y171378D01*
X158663Y171301D01*
X158743Y171221D01*
X158820Y171138D01*
X158895Y171052D01*
X158966Y170964D01*
X159034Y170874D01*
X159099Y170781D01*
X159161Y170686D01*
X159219Y170589D01*
X159274Y170490D01*
X159325Y170389D01*
X159373Y170286D01*
X159418Y170182D01*
X159458Y170076D01*
X159495Y169969D01*
X159528Y169861D01*
X159558Y169751D01*
X159583Y169641D01*
X159605Y169530D01*
X159622Y169418D01*
X159636Y169305D01*
X159646Y169192D01*
X159652Y169079D01*
X159654Y168966D01*
X164846Y169616D02*
X164846Y165721D01*
X164846Y169616D02*
X164844Y169717D01*
X164838Y169817D01*
X164828Y169917D01*
X164815Y170017D01*
X164797Y170116D01*
X164776Y170215D01*
X164751Y170312D01*
X164722Y170409D01*
X164689Y170504D01*
X164653Y170598D01*
X164613Y170690D01*
X164570Y170781D01*
X164523Y170870D01*
X164473Y170957D01*
X164419Y171043D01*
X164362Y171126D01*
X164302Y171206D01*
X164239Y171285D01*
X164172Y171361D01*
X164103Y171434D01*
X164031Y171504D01*
X163957Y171572D01*
X163880Y171637D01*
X163800Y171698D01*
X163718Y171757D01*
X163634Y171812D01*
X163548Y171864D01*
X163460Y171913D01*
X163370Y171958D01*
X163278Y172000D01*
X163185Y172038D01*
X163090Y172072D01*
X162995Y172103D01*
X162898Y172130D01*
X162800Y172153D01*
X162701Y172173D01*
X162601Y172188D01*
X162501Y172200D01*
X162401Y172208D01*
X162300Y172212D01*
X162200Y172212D01*
X162099Y172208D01*
X161999Y172200D01*
X161899Y172188D01*
X161799Y172173D01*
X161700Y172153D01*
X161602Y172130D01*
X161505Y172103D01*
X161410Y172072D01*
X161315Y172038D01*
X161222Y172000D01*
X161130Y171958D01*
X161040Y171913D01*
X160952Y171864D01*
X160866Y171812D01*
X160782Y171757D01*
X160700Y171698D01*
X160620Y171637D01*
X160543Y171572D01*
X160469Y171504D01*
X160397Y171434D01*
X160328Y171361D01*
X160261Y171285D01*
X160198Y171206D01*
X160138Y171126D01*
X160081Y171043D01*
X160027Y170957D01*
X159977Y170870D01*
X159930Y170781D01*
X159887Y170690D01*
X159847Y170598D01*
X159811Y170504D01*
X159778Y170409D01*
X159749Y170312D01*
X159724Y170215D01*
X159703Y170116D01*
X159685Y170017D01*
X159672Y169917D01*
X159662Y169817D01*
X159656Y169717D01*
X159654Y169616D01*
X159653Y169616D02*
X159653Y167019D01*
X159004Y177151D02*
X159234Y177154D01*
X159464Y177162D01*
X159693Y177176D01*
X159922Y177195D01*
X160151Y177220D01*
X160378Y177250D01*
X160606Y177285D01*
X160832Y177326D01*
X161057Y177372D01*
X161281Y177424D01*
X161503Y177481D01*
X161725Y177543D01*
X161944Y177611D01*
X162162Y177684D01*
X162379Y177762D01*
X162593Y177845D01*
X162805Y177933D01*
X163015Y178026D01*
X163223Y178125D01*
X163223Y178124D02*
X163313Y178157D01*
X163402Y178193D01*
X163490Y178233D01*
X163575Y178277D01*
X163659Y178324D01*
X163741Y178374D01*
X163821Y178428D01*
X163898Y178484D01*
X163974Y178544D01*
X164047Y178607D01*
X164117Y178672D01*
X164185Y178741D01*
X164249Y178812D01*
X164311Y178885D01*
X164370Y178961D01*
X164426Y179039D01*
X164479Y179120D01*
X164528Y179202D01*
X164574Y179286D01*
X164617Y179373D01*
X164656Y179460D01*
X164692Y179550D01*
X164724Y179640D01*
X164752Y179732D01*
X164777Y179825D01*
X164798Y179919D01*
X164815Y180013D01*
X164829Y180108D01*
X164838Y180204D01*
X164844Y180300D01*
X164846Y180396D01*
X164844Y180492D01*
X164838Y180588D01*
X164829Y180684D01*
X164815Y180779D01*
X164798Y180873D01*
X164777Y180967D01*
X164752Y181060D01*
X164724Y181152D01*
X164692Y181242D01*
X164656Y181332D01*
X164617Y181419D01*
X164574Y181506D01*
X164528Y181590D01*
X164479Y181672D01*
X164426Y181753D01*
X164370Y181831D01*
X164311Y181907D01*
X164249Y181980D01*
X164185Y182051D01*
X164117Y182120D01*
X164047Y182185D01*
X163974Y182248D01*
X163898Y182308D01*
X163821Y182364D01*
X163741Y182418D01*
X163659Y182468D01*
X163575Y182515D01*
X163490Y182559D01*
X163402Y182599D01*
X163313Y182635D01*
X163223Y182668D01*
X163223Y182669D02*
X163016Y182768D01*
X162806Y182861D01*
X162593Y182949D01*
X162379Y183032D01*
X162163Y183110D01*
X161945Y183183D01*
X161725Y183251D01*
X161504Y183313D01*
X161281Y183370D01*
X161057Y183422D01*
X160832Y183468D01*
X160606Y183509D01*
X160379Y183544D01*
X160151Y183574D01*
X159922Y183599D01*
X159693Y183618D01*
X159464Y183632D01*
X159234Y183640D01*
X159004Y183643D01*
X159004Y177151D02*
X158774Y177154D01*
X158544Y177162D01*
X158315Y177176D01*
X158086Y177195D01*
X157857Y177220D01*
X157629Y177250D01*
X157402Y177285D01*
X157176Y177326D01*
X156951Y177372D01*
X156727Y177424D01*
X156504Y177481D01*
X156283Y177543D01*
X156063Y177611D01*
X155845Y177684D01*
X155629Y177762D01*
X155415Y177845D01*
X155203Y177933D01*
X154992Y178026D01*
X154785Y178125D01*
X154785Y178124D02*
X154695Y178157D01*
X154606Y178193D01*
X154518Y178234D01*
X154433Y178277D01*
X154349Y178324D01*
X154267Y178374D01*
X154187Y178428D01*
X154110Y178484D01*
X154034Y178544D01*
X153961Y178607D01*
X153891Y178672D01*
X153823Y178741D01*
X153759Y178812D01*
X153697Y178885D01*
X153638Y178961D01*
X153582Y179039D01*
X153529Y179120D01*
X153480Y179202D01*
X153434Y179286D01*
X153391Y179373D01*
X153352Y179460D01*
X153316Y179550D01*
X153284Y179640D01*
X153256Y179732D01*
X153231Y179825D01*
X153210Y179919D01*
X153193Y180013D01*
X153179Y180108D01*
X153170Y180204D01*
X153164Y180300D01*
X153162Y180396D01*
X154785Y182668D02*
X154992Y182767D01*
X155203Y182860D01*
X155415Y182948D01*
X155629Y183031D01*
X155845Y183109D01*
X156063Y183182D01*
X156283Y183250D01*
X156504Y183312D01*
X156727Y183369D01*
X156951Y183421D01*
X157176Y183467D01*
X157402Y183508D01*
X157629Y183543D01*
X157857Y183573D01*
X158086Y183598D01*
X158315Y183617D01*
X158544Y183631D01*
X158774Y183639D01*
X159004Y183642D01*
X154785Y182668D02*
X154695Y182635D01*
X154606Y182599D01*
X154518Y182559D01*
X154433Y182515D01*
X154349Y182468D01*
X154267Y182418D01*
X154187Y182364D01*
X154110Y182308D01*
X154034Y182248D01*
X153961Y182185D01*
X153891Y182120D01*
X153823Y182051D01*
X153759Y181980D01*
X153697Y181907D01*
X153638Y181831D01*
X153582Y181753D01*
X153529Y181672D01*
X153480Y181590D01*
X153434Y181506D01*
X153391Y181419D01*
X153352Y181332D01*
X153316Y181242D01*
X153284Y181152D01*
X153256Y181060D01*
X153231Y180967D01*
X153210Y180873D01*
X153193Y180779D01*
X153179Y180684D01*
X153170Y180588D01*
X153164Y180492D01*
X153162Y180396D01*
X155758Y177800D02*
X162250Y182993D01*
D17*
X284600Y467400D02*
X292100Y477900D01*
X299100Y467400D02*
X284600Y467400D01*
X292100Y477900D02*
X299100Y467400D01*
D18*
X292100Y478400D03*
D11*
X278605Y477504D02*
X267175Y477504D01*
X278605Y477504D02*
X278605Y480679D01*
X278603Y480790D01*
X278597Y480900D01*
X278588Y481011D01*
X278574Y481121D01*
X278557Y481230D01*
X278536Y481339D01*
X278511Y481447D01*
X278482Y481554D01*
X278450Y481660D01*
X278414Y481765D01*
X278374Y481868D01*
X278331Y481970D01*
X278284Y482071D01*
X278233Y482170D01*
X278180Y482267D01*
X278123Y482361D01*
X278062Y482454D01*
X277999Y482545D01*
X277932Y482634D01*
X277862Y482720D01*
X277789Y482803D01*
X277714Y482885D01*
X277636Y482963D01*
X277554Y483038D01*
X277471Y483111D01*
X277385Y483181D01*
X277296Y483248D01*
X277205Y483311D01*
X277112Y483372D01*
X277018Y483429D01*
X276921Y483482D01*
X276822Y483533D01*
X276721Y483580D01*
X276619Y483623D01*
X276516Y483663D01*
X276411Y483699D01*
X276305Y483731D01*
X276198Y483760D01*
X276090Y483785D01*
X275981Y483806D01*
X275872Y483823D01*
X275762Y483837D01*
X275651Y483846D01*
X275541Y483852D01*
X275430Y483854D01*
X270350Y483854D01*
X270239Y483852D01*
X270129Y483846D01*
X270018Y483837D01*
X269908Y483823D01*
X269799Y483806D01*
X269690Y483785D01*
X269582Y483760D01*
X269475Y483731D01*
X269369Y483699D01*
X269264Y483663D01*
X269161Y483623D01*
X269059Y483580D01*
X268958Y483533D01*
X268859Y483482D01*
X268763Y483429D01*
X268668Y483372D01*
X268575Y483311D01*
X268484Y483248D01*
X268395Y483181D01*
X268309Y483111D01*
X268226Y483038D01*
X268144Y482963D01*
X268066Y482885D01*
X267991Y482803D01*
X267918Y482720D01*
X267848Y482634D01*
X267781Y482545D01*
X267718Y482454D01*
X267657Y482361D01*
X267600Y482267D01*
X267547Y482170D01*
X267496Y482071D01*
X267449Y481970D01*
X267406Y481868D01*
X267366Y481765D01*
X267330Y481660D01*
X267298Y481554D01*
X267269Y481447D01*
X267244Y481339D01*
X267223Y481230D01*
X267206Y481121D01*
X267192Y481011D01*
X267183Y480900D01*
X267177Y480790D01*
X267175Y480679D01*
X267175Y477504D01*
X267175Y489315D02*
X267175Y493125D01*
X267177Y493225D01*
X267183Y493324D01*
X267193Y493424D01*
X267206Y493522D01*
X267224Y493621D01*
X267245Y493718D01*
X267270Y493814D01*
X267299Y493910D01*
X267332Y494004D01*
X267368Y494097D01*
X267408Y494188D01*
X267452Y494278D01*
X267499Y494366D01*
X267549Y494452D01*
X267603Y494536D01*
X267660Y494618D01*
X267720Y494697D01*
X267784Y494775D01*
X267850Y494849D01*
X267919Y494921D01*
X267991Y494990D01*
X268065Y495056D01*
X268143Y495120D01*
X268222Y495180D01*
X268304Y495237D01*
X268388Y495291D01*
X268474Y495341D01*
X268562Y495388D01*
X268652Y495432D01*
X268743Y495472D01*
X268836Y495508D01*
X268930Y495541D01*
X269026Y495570D01*
X269122Y495595D01*
X269219Y495616D01*
X269318Y495634D01*
X269416Y495647D01*
X269516Y495657D01*
X269615Y495663D01*
X269715Y495665D01*
X270985Y495665D01*
X271085Y495663D01*
X271184Y495657D01*
X271284Y495647D01*
X271382Y495634D01*
X271481Y495616D01*
X271578Y495595D01*
X271674Y495570D01*
X271770Y495541D01*
X271864Y495508D01*
X271957Y495472D01*
X272048Y495432D01*
X272138Y495388D01*
X272226Y495341D01*
X272312Y495291D01*
X272396Y495237D01*
X272478Y495180D01*
X272557Y495120D01*
X272635Y495056D01*
X272709Y494990D01*
X272781Y494921D01*
X272850Y494849D01*
X272916Y494775D01*
X272980Y494697D01*
X273040Y494618D01*
X273097Y494536D01*
X273151Y494452D01*
X273201Y494366D01*
X273248Y494278D01*
X273292Y494188D01*
X273332Y494097D01*
X273368Y494004D01*
X273401Y493910D01*
X273430Y493814D01*
X273455Y493718D01*
X273476Y493621D01*
X273494Y493522D01*
X273507Y493424D01*
X273517Y493324D01*
X273523Y493225D01*
X273525Y493125D01*
X273525Y489315D01*
X278605Y489315D01*
X278605Y495665D01*
M02*
