G04 EAGLE Gerber RS-274X export*
G75*
%MOMM*%
%FSLAX34Y34*%
%LPD*%
%INSoldermask Top*%
%IPPOS*%
%AMOC8*
5,1,8,0,0,1.08239X$1,22.5*%
G01*
%ADD10R,1.003200X1.403200*%
%ADD11R,1.103200X1.103200*%
%ADD12R,1.503200X1.703200*%
%ADD13R,1.703200X1.503200*%
%ADD14R,4.503200X2.703200*%
%ADD15R,1.603200X1.603200*%
%ADD16C,2.082800*%
%ADD17R,0.903200X4.403200*%
%ADD18C,0.000000*%
%ADD19C,0.025400*%
%ADD20R,10.900000X1.400000*%
%ADD21R,20.900000X1.400000*%
%ADD22C,3.203200*%
%ADD23R,1.403200X1.403200*%
%ADD24R,1.753200X1.503200*%
%ADD25R,1.503200X1.303200*%
%ADD26R,1.703200X0.703200*%
%ADD27R,0.703200X1.703200*%
%ADD28R,1.573200X1.273200*%
%ADD29R,9.203200X10.203200*%
%ADD30R,0.863600X2.235200*%
%ADD31R,2.235200X0.863600*%
%ADD32R,1.403200X1.003200*%
%ADD33C,1.600200*%
%ADD34R,1.603200X1.303200*%
%ADD35C,0.959600*%


D10*
X-304800Y548400D03*
X-304800Y518400D03*
D11*
X-299300Y533400D03*
D10*
X-304800Y599200D03*
X-304800Y569200D03*
D11*
X-299300Y584200D03*
D12*
G36*
X-117302Y152595D02*
X-127931Y141966D01*
X-139974Y154009D01*
X-129345Y164638D01*
X-117302Y152595D01*
G37*
G36*
X-103866Y166031D02*
X-114495Y155402D01*
X-126538Y167445D01*
X-115909Y178074D01*
X-103866Y166031D01*
G37*
G36*
X-102570Y137355D02*
X-113199Y126726D01*
X-125242Y138769D01*
X-114613Y149398D01*
X-102570Y137355D01*
G37*
G36*
X-89134Y150791D02*
X-99763Y140162D01*
X-111806Y152205D01*
X-101177Y162834D01*
X-89134Y150791D01*
G37*
D13*
X-25400Y238100D03*
X-25400Y219100D03*
D12*
X215240Y236220D03*
X196240Y236220D03*
X212700Y177800D03*
X193700Y177800D03*
D14*
X-117954Y477012D03*
X-34954Y477012D03*
D15*
X-6908Y125984D03*
X-44908Y125984D03*
X304Y105156D03*
X38304Y105156D03*
D13*
X0Y187300D03*
X0Y168300D03*
D16*
X63500Y585470D03*
X88900Y582930D03*
X114300Y585470D03*
X139700Y582930D03*
X165100Y585470D03*
D17*
X15000Y7000D03*
X25000Y7000D03*
X35000Y7000D03*
X45000Y7000D03*
X55000Y7000D03*
X65000Y7000D03*
X75000Y7000D03*
X85000Y7000D03*
X95000Y7000D03*
X105000Y7000D03*
X115000Y7000D03*
X125000Y7000D03*
X135000Y7000D03*
X145000Y7000D03*
X155000Y7000D03*
X165000Y7000D03*
X175000Y7000D03*
X185000Y7000D03*
X195000Y7000D03*
X205000Y7000D03*
X215000Y7000D03*
X-115000Y7000D03*
X-105000Y7000D03*
X-95000Y7000D03*
X-85000Y7000D03*
X-75000Y7000D03*
X-65000Y7000D03*
X-55000Y7000D03*
X-45000Y7000D03*
X-35000Y7000D03*
X-25000Y7000D03*
X-15000Y7000D03*
D18*
X-120000Y-14000D02*
X-121000Y-14000D01*
X-121000Y-28000D02*
X-120500Y-28000D01*
X-121000Y-28000D02*
X-121000Y-14000D01*
D19*
X-124683Y-24337D02*
X-124062Y-25113D01*
X-124683Y-24337D02*
X-121889Y-24337D01*
X-121889Y-25113D02*
X-121889Y-23561D01*
X-121889Y-22494D02*
X-122044Y-22494D01*
X-122044Y-22339D01*
X-121889Y-22339D01*
X-121889Y-22494D01*
X-122510Y-21272D02*
X-124683Y-20651D01*
X-122510Y-21272D02*
X-122510Y-19720D01*
X-123131Y-20186D02*
X-121889Y-20186D01*
X-123286Y-18529D02*
X-123381Y-18527D01*
X-123476Y-18521D01*
X-123570Y-18511D01*
X-123664Y-18498D01*
X-123757Y-18480D01*
X-123850Y-18459D01*
X-123942Y-18434D01*
X-124032Y-18405D01*
X-124121Y-18372D01*
X-124209Y-18336D01*
X-124295Y-18296D01*
X-124337Y-18280D01*
X-124377Y-18261D01*
X-124415Y-18238D01*
X-124452Y-18213D01*
X-124487Y-18185D01*
X-124519Y-18155D01*
X-124549Y-18122D01*
X-124576Y-18087D01*
X-124601Y-18049D01*
X-124622Y-18010D01*
X-124640Y-17970D01*
X-124656Y-17928D01*
X-124668Y-17885D01*
X-124676Y-17842D01*
X-124681Y-17797D01*
X-124683Y-17753D01*
X-124681Y-17709D01*
X-124676Y-17664D01*
X-124668Y-17621D01*
X-124656Y-17578D01*
X-124640Y-17536D01*
X-124622Y-17496D01*
X-124601Y-17457D01*
X-124576Y-17419D01*
X-124549Y-17384D01*
X-124519Y-17351D01*
X-124487Y-17321D01*
X-124452Y-17293D01*
X-124415Y-17268D01*
X-124377Y-17245D01*
X-124337Y-17226D01*
X-124295Y-17210D01*
X-124209Y-17170D01*
X-124121Y-17134D01*
X-124032Y-17101D01*
X-123941Y-17072D01*
X-123850Y-17047D01*
X-123757Y-17026D01*
X-123664Y-17008D01*
X-123570Y-16995D01*
X-123476Y-16985D01*
X-123381Y-16979D01*
X-123286Y-16977D01*
X-123286Y-18529D02*
X-123191Y-18527D01*
X-123096Y-18521D01*
X-123002Y-18511D01*
X-122908Y-18498D01*
X-122815Y-18480D01*
X-122722Y-18459D01*
X-122631Y-18434D01*
X-122540Y-18405D01*
X-122451Y-18372D01*
X-122363Y-18336D01*
X-122277Y-18296D01*
X-122235Y-18280D01*
X-122195Y-18261D01*
X-122157Y-18238D01*
X-122120Y-18213D01*
X-122085Y-18185D01*
X-122053Y-18155D01*
X-122023Y-18122D01*
X-121996Y-18087D01*
X-121971Y-18049D01*
X-121950Y-18010D01*
X-121932Y-17970D01*
X-121916Y-17928D01*
X-121904Y-17885D01*
X-121896Y-17842D01*
X-121891Y-17797D01*
X-121889Y-17753D01*
X-122277Y-17209D02*
X-122363Y-17169D01*
X-122451Y-17133D01*
X-122540Y-17100D01*
X-122630Y-17071D01*
X-122722Y-17046D01*
X-122815Y-17025D01*
X-122908Y-17007D01*
X-123002Y-16994D01*
X-123096Y-16984D01*
X-123191Y-16978D01*
X-123286Y-16976D01*
X-122277Y-17210D02*
X-122235Y-17226D01*
X-122195Y-17245D01*
X-122157Y-17268D01*
X-122120Y-17293D01*
X-122085Y-17321D01*
X-122053Y-17351D01*
X-122023Y-17384D01*
X-121996Y-17419D01*
X-121971Y-17457D01*
X-121950Y-17496D01*
X-121932Y-17536D01*
X-121916Y-17578D01*
X-121904Y-17621D01*
X-121896Y-17664D01*
X-121891Y-17709D01*
X-121889Y-17753D01*
X-122510Y-18374D02*
X-124062Y-17132D01*
D20*
X-65000Y-21000D03*
D21*
X115000Y-21000D03*
D22*
X-341500Y630000D03*
X441500Y630000D03*
D16*
X-25400Y585470D03*
X0Y582930D03*
X25400Y585470D03*
X-114300Y585470D03*
X-88900Y582930D03*
X-63500Y585470D03*
D10*
X-292100Y269000D03*
X-292100Y239000D03*
D11*
X-286600Y254000D03*
D10*
X-292100Y319800D03*
X-292100Y289800D03*
D11*
X-286600Y304800D03*
D10*
X-292100Y370600D03*
X-292100Y340600D03*
D11*
X-286600Y355600D03*
D10*
X-292100Y421400D03*
X-292100Y391400D03*
D11*
X-286600Y406400D03*
D13*
X-190500Y460400D03*
X-190500Y479400D03*
X-38100Y187300D03*
X-38100Y168300D03*
X107950Y104800D03*
X107950Y123800D03*
X170180Y191160D03*
X170180Y210160D03*
D12*
X-244500Y266700D03*
X-263500Y266700D03*
X-244500Y304800D03*
X-263500Y304800D03*
X-244500Y342900D03*
X-263500Y342900D03*
D13*
X-63500Y238100D03*
X-63500Y219100D03*
D12*
X-244500Y406400D03*
X-263500Y406400D03*
D13*
X-203200Y593700D03*
X-203200Y574700D03*
X-203200Y523900D03*
X-203200Y542900D03*
X-266700Y574700D03*
X-266700Y593700D03*
X-266700Y523900D03*
X-266700Y542900D03*
X-101600Y238100D03*
X-101600Y219100D03*
D23*
X-165100Y573700D03*
X-165100Y594700D03*
D24*
X-306450Y447400D03*
X-226950Y447400D03*
X-306450Y492400D03*
X-226950Y492400D03*
D23*
X-165100Y543900D03*
X-165100Y522900D03*
D25*
X132233Y238068D03*
X155233Y238068D03*
X155233Y256068D03*
X132233Y256068D03*
D26*
G36*
X54307Y378289D02*
X42265Y390331D01*
X47237Y395303D01*
X59279Y383261D01*
X54307Y378289D01*
G37*
G36*
X48650Y372633D02*
X36608Y384675D01*
X41580Y389647D01*
X53622Y377605D01*
X48650Y372633D01*
G37*
G36*
X42993Y366976D02*
X30951Y379018D01*
X35923Y383990D01*
X47965Y371948D01*
X42993Y366976D01*
G37*
G36*
X37337Y361319D02*
X25295Y373361D01*
X30267Y378333D01*
X42309Y366291D01*
X37337Y361319D01*
G37*
G36*
X31680Y355662D02*
X19638Y367704D01*
X24610Y372676D01*
X36652Y360634D01*
X31680Y355662D01*
G37*
G36*
X26023Y350005D02*
X13981Y362047D01*
X18953Y367019D01*
X30995Y354977D01*
X26023Y350005D01*
G37*
G36*
X20366Y344348D02*
X8324Y356390D01*
X13296Y361362D01*
X25338Y349320D01*
X20366Y344348D01*
G37*
G36*
X14709Y338691D02*
X2667Y350733D01*
X7639Y355705D01*
X19681Y343663D01*
X14709Y338691D01*
G37*
G36*
X9052Y333035D02*
X-2990Y345077D01*
X1982Y350049D01*
X14024Y338007D01*
X9052Y333035D01*
G37*
G36*
X3395Y327378D02*
X-8647Y339420D01*
X-3675Y344392D01*
X8367Y332350D01*
X3395Y327378D01*
G37*
G36*
X-2261Y321721D02*
X-14303Y333763D01*
X-9331Y338735D01*
X2711Y326693D01*
X-2261Y321721D01*
G37*
D27*
G36*
X-9331Y296265D02*
X-14303Y301237D01*
X-2261Y313279D01*
X2711Y308307D01*
X-9331Y296265D01*
G37*
G36*
X-3675Y290608D02*
X-8647Y295580D01*
X3395Y307622D01*
X8367Y302650D01*
X-3675Y290608D01*
G37*
G36*
X1982Y284951D02*
X-2990Y289923D01*
X9052Y301965D01*
X14024Y296993D01*
X1982Y284951D01*
G37*
G36*
X7639Y279295D02*
X2667Y284267D01*
X14709Y296309D01*
X19681Y291337D01*
X7639Y279295D01*
G37*
G36*
X13296Y273638D02*
X8324Y278610D01*
X20366Y290652D01*
X25338Y285680D01*
X13296Y273638D01*
G37*
G36*
X18953Y267981D02*
X13981Y272953D01*
X26023Y284995D01*
X30995Y280023D01*
X18953Y267981D01*
G37*
G36*
X24610Y262324D02*
X19638Y267296D01*
X31680Y279338D01*
X36652Y274366D01*
X24610Y262324D01*
G37*
G36*
X30267Y256667D02*
X25295Y261639D01*
X37337Y273681D01*
X42309Y268709D01*
X30267Y256667D01*
G37*
G36*
X35923Y251010D02*
X30951Y255982D01*
X42993Y268024D01*
X47965Y263052D01*
X35923Y251010D01*
G37*
G36*
X41580Y245353D02*
X36608Y250325D01*
X48650Y262367D01*
X53622Y257395D01*
X41580Y245353D01*
G37*
G36*
X47237Y239697D02*
X42265Y244669D01*
X54307Y256711D01*
X59279Y251739D01*
X47237Y239697D01*
G37*
D26*
G36*
X79763Y239697D02*
X67721Y251739D01*
X72693Y256711D01*
X84735Y244669D01*
X79763Y239697D01*
G37*
G36*
X85420Y245353D02*
X73378Y257395D01*
X78350Y262367D01*
X90392Y250325D01*
X85420Y245353D01*
G37*
G36*
X91077Y251010D02*
X79035Y263052D01*
X84007Y268024D01*
X96049Y255982D01*
X91077Y251010D01*
G37*
G36*
X96733Y256667D02*
X84691Y268709D01*
X89663Y273681D01*
X101705Y261639D01*
X96733Y256667D01*
G37*
G36*
X102390Y262324D02*
X90348Y274366D01*
X95320Y279338D01*
X107362Y267296D01*
X102390Y262324D01*
G37*
G36*
X108047Y267981D02*
X96005Y280023D01*
X100977Y284995D01*
X113019Y272953D01*
X108047Y267981D01*
G37*
G36*
X113704Y273638D02*
X101662Y285680D01*
X106634Y290652D01*
X118676Y278610D01*
X113704Y273638D01*
G37*
G36*
X119361Y279295D02*
X107319Y291337D01*
X112291Y296309D01*
X124333Y284267D01*
X119361Y279295D01*
G37*
G36*
X125018Y284951D02*
X112976Y296993D01*
X117948Y301965D01*
X129990Y289923D01*
X125018Y284951D01*
G37*
G36*
X130675Y290608D02*
X118633Y302650D01*
X123605Y307622D01*
X135647Y295580D01*
X130675Y290608D01*
G37*
G36*
X136331Y296265D02*
X124289Y308307D01*
X129261Y313279D01*
X141303Y301237D01*
X136331Y296265D01*
G37*
D27*
G36*
X129261Y321721D02*
X124289Y326693D01*
X136331Y338735D01*
X141303Y333763D01*
X129261Y321721D01*
G37*
G36*
X123605Y327378D02*
X118633Y332350D01*
X130675Y344392D01*
X135647Y339420D01*
X123605Y327378D01*
G37*
G36*
X117948Y333035D02*
X112976Y338007D01*
X125018Y350049D01*
X129990Y345077D01*
X117948Y333035D01*
G37*
G36*
X112291Y338691D02*
X107319Y343663D01*
X119361Y355705D01*
X124333Y350733D01*
X112291Y338691D01*
G37*
G36*
X106634Y344348D02*
X101662Y349320D01*
X113704Y361362D01*
X118676Y356390D01*
X106634Y344348D01*
G37*
G36*
X100977Y350005D02*
X96005Y354977D01*
X108047Y367019D01*
X113019Y362047D01*
X100977Y350005D01*
G37*
G36*
X95320Y355662D02*
X90348Y360634D01*
X102390Y372676D01*
X107362Y367704D01*
X95320Y355662D01*
G37*
G36*
X89663Y361319D02*
X84691Y366291D01*
X96733Y378333D01*
X101705Y373361D01*
X89663Y361319D01*
G37*
G36*
X84007Y366976D02*
X79035Y371948D01*
X91077Y383990D01*
X96049Y379018D01*
X84007Y366976D01*
G37*
G36*
X78350Y372633D02*
X73378Y377605D01*
X85420Y389647D01*
X90392Y384675D01*
X78350Y372633D01*
G37*
G36*
X72693Y378289D02*
X67721Y383261D01*
X79763Y395303D01*
X84735Y390331D01*
X72693Y378289D01*
G37*
D28*
X-197104Y83456D03*
X-197104Y100656D03*
X-197104Y117856D03*
X-197104Y135056D03*
X-197104Y152256D03*
D29*
X-259644Y117856D03*
D30*
X107950Y208534D03*
X107950Y147066D03*
X95250Y208534D03*
X82550Y208534D03*
X95250Y147066D03*
X82550Y147066D03*
X69850Y208534D03*
X69850Y147066D03*
D31*
X210566Y400050D03*
X272034Y400050D03*
X210566Y387350D03*
X210566Y374650D03*
X272034Y387350D03*
X272034Y374650D03*
X210566Y361950D03*
X272034Y361950D03*
D32*
X330200Y410100D03*
X330200Y428100D03*
D13*
X228600Y320700D03*
X228600Y339700D03*
D31*
X197866Y298450D03*
X259334Y298450D03*
X197866Y285750D03*
X197866Y273050D03*
X259334Y285750D03*
X259334Y273050D03*
X197866Y260350D03*
X259334Y260350D03*
D32*
X304800Y333900D03*
X304800Y351900D03*
D13*
X406400Y581000D03*
X406400Y562000D03*
D31*
X248666Y501650D03*
X310134Y501650D03*
X248666Y488950D03*
X248666Y476250D03*
X310134Y488950D03*
X310134Y476250D03*
X248666Y463550D03*
X310134Y463550D03*
D32*
X368300Y460900D03*
X368300Y478900D03*
D13*
X279400Y422300D03*
X279400Y441300D03*
D31*
X310134Y552450D03*
X248666Y552450D03*
X310134Y565150D03*
X310134Y577850D03*
X248666Y565150D03*
X248666Y577850D03*
X310134Y590550D03*
X248666Y590550D03*
D10*
X212200Y571500D03*
X194200Y571500D03*
D13*
X368300Y581000D03*
X368300Y562000D03*
D33*
X342900Y355600D03*
X342900Y335534D03*
X342900Y315722D03*
X342900Y295656D03*
X342900Y275590D03*
X342900Y255524D03*
X342900Y235712D03*
X342900Y215646D03*
D28*
X304800Y174100D03*
X304800Y156900D03*
X304800Y139700D03*
X304800Y122500D03*
X304800Y105300D03*
D29*
X367340Y139700D03*
D32*
X355600Y511700D03*
X355600Y529700D03*
D34*
X393700Y510700D03*
X393700Y530700D03*
D23*
X393700Y459400D03*
X393700Y480400D03*
D15*
X219660Y139700D03*
X181660Y139700D03*
X217628Y113284D03*
X179628Y113284D03*
D16*
X2540Y398272D03*
X2540Y423672D03*
D35*
X-179324Y260096D03*
X192024Y508000D03*
X245872Y242316D03*
X-241300Y585724D03*
X-240792Y539496D03*
X-205232Y310388D03*
X-207264Y402844D03*
X72136Y240792D03*
X73660Y365760D03*
X-82296Y106172D03*
X-297688Y162052D03*
X-286512Y162052D03*
X250444Y376428D03*
X274828Y409448D03*
X293116Y360680D03*
X334264Y166624D03*
X197612Y162560D03*
X157988Y148336D03*
X139192Y105664D03*
X89408Y96520D03*
X15748Y91948D03*
X-44704Y91948D03*
X-153924Y78232D03*
X-170180Y81280D03*
X-218440Y279908D03*
X-231140Y277368D03*
X-225552Y303784D03*
X-223520Y349504D03*
X-212852Y320040D03*
X-204724Y298704D03*
X-224536Y400304D03*
X-178308Y395732D03*
X-224028Y528320D03*
X-249428Y550164D03*
X-248412Y573024D03*
X-146304Y392176D03*
X-68072Y403352D03*
X-112776Y317500D03*
X8128Y151892D03*
X15748Y176784D03*
X54356Y216408D03*
X77216Y180848D03*
X127508Y183388D03*
X137160Y318516D03*
X-40132Y390144D03*
X24384Y379476D03*
X-96520Y202692D03*
X-273812Y160528D03*
X-261620Y160528D03*
X-231140Y161036D03*
X-221996Y159512D03*
X-296164Y147828D03*
X-283972Y147828D03*
X-271780Y148336D03*
X-259080Y146304D03*
X-244856Y145796D03*
X-233172Y146304D03*
X362712Y179832D03*
X365252Y162052D03*
X347980Y180340D03*
X373380Y178816D03*
X335280Y179832D03*
X344932Y165608D03*
X371348Y169164D03*
X385064Y178308D03*
X400304Y179832D03*
X377444Y161544D03*
X393700Y160528D03*
X399288Y149352D03*
X383032Y147828D03*
X365760Y147320D03*
X345948Y151892D03*
X375412Y117856D03*
X330708Y152908D03*
X344424Y136652D03*
X330708Y136144D03*
X344932Y122936D03*
X332232Y122428D03*
X331216Y108204D03*
X344932Y108712D03*
X337820Y96012D03*
X365760Y128016D03*
X364236Y109220D03*
X366776Y96012D03*
X394208Y131064D03*
X379984Y129032D03*
X388620Y119380D03*
X382524Y108204D03*
X399288Y111252D03*
X384048Y96012D03*
X399288Y96520D03*
X-297180Y134112D03*
X-280416Y131572D03*
X-268732Y132080D03*
X-252984Y131064D03*
X-242316Y131064D03*
X-229108Y130048D03*
X-289560Y121412D03*
X-280416Y111252D03*
X-298196Y111252D03*
X-260096Y116840D03*
X-240284Y119888D03*
X-219456Y145796D03*
X-223012Y115824D03*
X-237236Y108712D03*
X-262128Y104648D03*
X-250952Y104648D03*
X-224028Y96520D03*
X-221996Y80772D03*
X-236220Y90932D03*
X-296672Y92964D03*
X-283464Y93472D03*
X-268224Y91948D03*
X-250952Y91440D03*
X-245364Y78232D03*
X-265684Y75692D03*
X-280416Y75184D03*
X-292608Y75184D03*
X12700Y237236D03*
X-7620Y249428D03*
X-47752Y413004D03*
X13208Y376936D03*
X43180Y491744D03*
X86360Y533908D03*
X134620Y525272D03*
X182372Y471424D03*
X136144Y485140D03*
X103124Y498348D03*
X24384Y513080D03*
X188468Y401828D03*
X157480Y432816D03*
X192024Y550164D03*
X177292Y358140D03*
X180340Y324612D03*
X162052Y318516D03*
X239776Y214376D03*
X235712Y80772D03*
X284988Y224028D03*
X376428Y76708D03*
X-190500Y168148D03*
X-209804Y230124D03*
X-143764Y259588D03*
X-83820Y193040D03*
X-102108Y86360D03*
X-6604Y87884D03*
X4064Y469392D03*
X135636Y553212D03*
X204216Y587248D03*
X228600Y522224D03*
X327152Y531876D03*
X373888Y543560D03*
X382524Y423672D03*
X338328Y447040D03*
X307848Y437388D03*
X345440Y397256D03*
X262128Y337312D03*
X-181356Y116332D03*
X-91440Y169672D03*
X-74676Y367792D03*
X-38100Y292100D03*
X112954Y260782D03*
X-135636Y128524D03*
X7620Y266700D03*
X108311Y373625D03*
X-190500Y431800D03*
X-176276Y224536D03*
X-151384Y221996D03*
X-63500Y190500D03*
X0Y215900D03*
X-38100Y203200D03*
X50800Y546100D03*
X6350Y539750D03*
X-23876Y536956D03*
X-104168Y534924D03*
X-169164Y465074D03*
X-124460Y534924D03*
X133350Y69624D03*
X0Y368300D03*
X101600Y406400D03*
X129540Y420624D03*
X108204Y399796D03*
X130048Y405892D03*
X-203200Y342900D03*
X-76200Y342900D03*
X-50800Y317500D03*
X-203200Y419100D03*
X-101600Y368300D03*
X-22676Y285976D03*
X-240006Y495300D03*
X-203200Y444500D03*
X-177800Y431800D03*
X-88900Y368300D03*
X-25400Y317500D03*
X-203200Y381000D03*
X-127000Y368300D03*
X-12700Y292100D03*
X-203200Y279400D03*
X-139700Y279400D03*
X50800Y457200D03*
X-63776Y279676D03*
X-76200Y444500D03*
X25400Y431800D03*
X101600Y444500D03*
X-114300Y457200D03*
X-228092Y264160D03*
X-155730Y245576D03*
X-124714Y243586D03*
X78232Y403860D03*
X152400Y292100D03*
X-165100Y558800D03*
X-63500Y546100D03*
X152400Y279400D03*
X117856Y252476D03*
X-57178Y528348D03*
X34544Y438404D03*
X-88900Y266700D03*
X-50524Y266424D03*
X-292100Y571500D03*
X-165100Y177800D03*
X88900Y228600D03*
X-127000Y76200D03*
X138225Y195375D03*
X127000Y165100D03*
X-25908Y157226D03*
X-247650Y247650D03*
X-111760Y186436D03*
X-150368Y188468D03*
X-134620Y197104D03*
X-207772Y255524D03*
X-199012Y270736D03*
X-174752Y271272D03*
X-87884Y485140D03*
X-172212Y145796D03*
X-163576Y123444D03*
X-76200Y38100D03*
X-76200Y127000D03*
X-178308Y202184D03*
X-150368Y201168D03*
X76200Y101600D03*
X-51576Y50800D03*
X68072Y106786D03*
X-47244Y63500D03*
X63500Y76200D03*
X-50800Y76200D03*
X-95504Y66548D03*
X304800Y241300D03*
X138684Y144230D03*
X154522Y176276D03*
X50800Y228600D03*
X101600Y241300D03*
X15748Y208280D03*
X38100Y228600D03*
X165100Y266700D03*
X58420Y195072D03*
X127000Y203200D03*
X-174470Y212344D03*
X-125777Y211582D03*
X307340Y379984D03*
X317500Y393700D03*
X172720Y273812D03*
X152880Y368808D03*
X304800Y304800D03*
X304800Y322298D03*
X154912Y382041D03*
X143472Y357416D03*
X128016Y385572D03*
X317500Y279400D03*
X342900Y482600D03*
X154940Y346964D03*
X228600Y482600D03*
X330200Y584751D03*
X139700Y393700D03*
X298450Y266700D03*
X208075Y553925D03*
X304876Y273126D03*
X215900Y533400D03*
X356108Y489712D03*
X304800Y63500D03*
X355600Y499364D03*
X196400Y355150D03*
X190754Y378206D03*
X182344Y273558D03*
X209550Y215900D03*
X228600Y469900D03*
X247650Y438150D03*
X245908Y147164D03*
X-179324Y313944D03*
X-178308Y298196D03*
M02*
