M48
;GenerationSoftware,Autodesk,EAGLE,9.3.1*%
;CreationDate,2020-03-09T22:32:49Z*%
FMAT,2
ICI,OFF
METRIC,TZ,000.000
T4C0.350
T3C0.813
T2C1.016
T1C3.000
%
G90
M71
T1
X-34150Y63000
X44150Y63000
T2
X254Y42367
X6350Y58547
X8890Y58293
X11430Y58547
X13970Y58293
X16510Y58547
X-2540Y58547
X0Y58293
X2540Y58547
X-11430Y58547
X-8890Y58293
X-6350Y58547
X254Y39827
T3
X34290Y35560
X34290Y33553
X34290Y31572
X34290Y29566
X34290Y27559
X34290Y25552
X34290Y23571
X34290Y21565
T4
X-17018Y8128
X-21844Y27991
X-23114Y27737
X-22555Y30378
X-22352Y34950
X-21285Y32004
X-20472Y29870
X-22454Y40030
X-17831Y39573
X-22403Y52832
X-24943Y55016
X-24841Y57302
X-14630Y39218
X-6807Y40335
X-11278Y31750
X813Y15189
X1575Y17678
X5436Y21641
X7722Y18085
X12751Y18339
X13716Y31852
X-4013Y39014
X2438Y37948
X-9652Y20269
X-27381Y16053
X-26162Y16053
X-23114Y16104
X-22200Y15951
X-29616Y14783
X-28397Y14783
X-27178Y14834
X-25908Y14630
X-24486Y14580
X-23317Y14630
X36271Y17983
X36525Y16205
X34798Y18034
X37338Y17882
X33528Y17983
X34493Y16561
X37135Y16916
X38506Y17831
X40030Y17983
X37744Y16154
X39370Y16053
X39929Y14935
X38303Y14783
X36576Y14732
X34595Y15189
X37541Y11786
X33071Y15291
X34442Y13665
X33071Y13614
X34493Y12294
X33223Y12243
X33122Y10820
X34493Y10871
X33782Y9601
X36576Y12802
X36424Y10922
X36678Y9601
X39421Y13106
X37998Y12903
X38862Y11938
X38252Y10820
X39929Y11125
X38405Y9601
X39929Y9652
X-29718Y13411
X-28042Y13157
X-26873Y13208
X-25298Y13106
X-24232Y13106
X-22911Y13005
X-28956Y12141
X-28042Y11125
X-29820Y11125
X-26010Y11684
X-24028Y11989
X-21946Y14580
X-22301Y11582
X-23724Y10871
X-26213Y10465
X-25095Y10465
X-22403Y9652
X-22200Y8077
X-23622Y9093
X-29667Y9296
X-28346Y9347
X-26822Y9195
X-25095Y9144
X-24536Y7823
X-26568Y7569
X-28042Y7518
X-29261Y7518
X1270Y23724
X-762Y24943
X-4775Y41300
X1321Y37694
X4318Y49174
X8636Y53391
X13462Y52527
X18237Y47142
X13614Y48514
X10312Y49835
X2438Y51308
X18847Y40183
X15748Y43282
X19202Y55016
X17729Y35814
X18034Y32461
X16205Y31852
X23978Y21438
X23571Y8077
X28499Y22403
X37643Y7671
X-19050Y16815
X-20980Y23012
X-14376Y25959
X-8382Y19304
X-10211Y8636
X-660Y8788
X406Y46939
X13564Y55321
X20422Y58725
X22860Y52222
X32715Y53188
X37389Y54356
X38252Y42367
X33833Y44704
X30785Y43739
X34544Y39726
X26213Y33731
X-18136Y11633
X-9144Y16967
X-7468Y36779
X-3810Y29210
X11295Y26078
X-13564Y12852
X762Y26670
X10831Y37362
X-19050Y43180
X-17628Y22454
X-15138Y22200
X-6350Y19050
X0Y21590
X-3810Y20320
X5080Y54610
X635Y53975
X-2388Y53696
X-10417Y53492
X-16916Y46507
X-12446Y53492
X13335Y6962
X0Y36830
X10160Y40640
X12954Y42062
X10820Y39980
X13005Y40589
X-20320Y34290
X-7620Y34290
X-5080Y31750
X-20320Y41910
X-10160Y36830
X-2268Y28598
X-24001Y49530
X-20320Y44450
X-17780Y43180
X-8890Y36830
X-2540Y31750
X-20320Y38100
X-12700Y36830
X-1270Y29210
X-20320Y27940
X-13970Y27940
X5080Y45720
X-6378Y27968
X-7620Y44450
X2540Y43180
X10160Y44450
X-11430Y45720
X-22809Y26416
X-15573Y24558
X-12471Y24359
X7823Y40386
X15240Y29210
X-16510Y55880
X-6350Y54610
X15240Y27940
X11786Y25248
X-5718Y52835
X3454Y43840
X-8890Y26670
X-5052Y26642
X-29210Y57150
X-16510Y17780
X8890Y22860
X-12700Y7620
X13823Y19538
X12700Y16510
X-2591Y15723
X-24765Y24765
X-11176Y18644
X-15037Y18847
X-13462Y19710
X-20777Y25552
X-19901Y27074
X-17475Y27127
X-8788Y48514
X-17221Y14580
X-16358Y12344
X-17932Y26010
X-7620Y12700
X-17831Y20218
X-15037Y20117
X7620Y10160
X-5158Y5080
X6807Y10679
X-4724Y6350
X6350Y7620
X-5080Y7620
X-9550Y6655
X30480Y24130
X13868Y14423
X15452Y17628
X5080Y22860
X10160Y24130
X1575Y20828
X3810Y22860
X16510Y26670
X5842Y19507
X12700Y20320
X-17447Y21234
X-12578Y21158
X30734Y37998
X31750Y39370
X17272Y27381
X15288Y36881
X30480Y30480
X30480Y32230
X15491Y38204
X14347Y35742
X12802Y38557
X31750Y27940
X34290Y48260
X15494Y34696
X22860Y48260
X33020Y58475
X13970Y39370
X-7620Y3810
X20808Y55392
X30488Y27313
X21590Y53340
X35611Y48971
X30480Y6350
X35560Y49936
X19640Y35515
X19075Y37821
X18234Y27356
X20955Y21590
X22860Y46990
X24765Y43815
X24591Y14716
X-17932Y31394
X-17831Y29820
X19202Y50800
X24587Y24232
X-24130Y58572
X-24079Y53950
X-20523Y31039
X-20726Y40284
X7214Y24079
X7366Y36576
X-8230Y10617
X-29769Y16205
X-28651Y16205
X25044Y37643
X27483Y40945
X29312Y36068
X33426Y16662
X19761Y16256
X15799Y14834
X13919Y10566
X8941Y9652
X1575Y9195
X-4470Y9195
X-15392Y7823
X29845Y26670
M30